<?xml version="1.0" encoding="utf-8"?>
<!-- Generator: Adobe Illustrator 24.1.0, SVG Export Plug-In . SVG Version: 6.00 Build 0)  -->
<svg version="1.1" id="Layer_1" xmlns="http://www.w3.org/2000/svg" xmlns:xlink="http://www.w3.org/1999/xlink" x="0px" y="0px"
	 viewBox="0 0 25 25" style="enable-background:new 0 0 25 25;" xml:space="preserve">
<style type="text/css">
	.st0{fill:#231F20;stroke:#231F20;stroke-width:0.75;stroke-miterlimit:10;}
	.st1{fill:none;}
</style>
<path class="st0" d="M0.8,12.5C0.8,6,6,0.8,12.5,0.8s11.7,5.3,11.7,11.7c0,6.5-5.2,11.7-11.7,11.7S0.8,19,0.8,12.5 M0.5,12.5
	c0,6.6,5.4,12,12,12s12-5.4,12-12s-5.4-12-12-12S0.5,5.9,0.5,12.5"/>
<rect x="0.5" y="0.5" class="st1" width="24" height="24"/>
<g>
	<path d="M12.5,2.5c-5.5,0-10,4.5-10,10s4.5,10,10,10s10-4.5,10-10S18,2.5,12.5,2.5z M19.5,16h-1.9v1.6L17,18.3h-1.6l-0.6-0.6V16
		H5.5v-1.3h9.3v-1.6l0.6-0.6H17l0.7,0.6v1.6h1.9V16z M19.5,10.2h-8.6v1.6l-0.6,0.6H8.7L8,11.8v-1.6H5.5V9H8V7.4l0.6-0.6h1.6l0.6,0.6
		V9h8.6V10.2z"/>
	<rect x="9" y="7.7" width="1" height="3.8"/>
	<polygon points="15.7,17.3 16.7,17.3 16.7,17.3 16.7,13.5 15.7,13.5 	"/>
</g>
</svg>
