<?xml version="1.0" encoding="utf-8"?>
<!-- Generator: Adobe Illustrator 24.3.0, SVG Export Plug-In . SVG Version: 6.00 Build 0)  -->
<svg version="1.1" id="Layer_1" xmlns="http://www.w3.org/2000/svg" xmlns:xlink="http://www.w3.org/1999/xlink" x="0px" y="0px"
	 viewBox="0 0 300 300" style="enable-background:new 0 0 300 300;" xml:space="preserve">
<style type="text/css">
	.st0{fill:none;stroke:#555555;stroke-width:1.5;stroke-opacity:0.4;}
	.st1{fill:none;stroke:#555555;stroke-width:1.5;stroke-opacity:0.4;stroke-dasharray:3,3;}
	.st2{font-family:'LucidaGrande-Bold';}
	.st3{font-size:12px;}
	.st4{fill:#D73027;}

<style type="text/css">
	.radial-total {
		font-family: "Guardian Text Sans Web", "Helvetica Neue", Helvetica, Arial, "Lucida Grande", sans-serif;
		font-size: 12px;
		fill: #D73027;
		font-weight: 600;
	}

	.radial-info {
		font-family: "Guardian Text Sans Web", "Helvetica Neue", Helvetica, Arial, "Lucida Grande", sans-serif;
		font-size: 12px;
		fill: black;
		font-weight: 600;
	}
</style>

</style>
<g transform="translate(150,150)">
	<path class="st0" d="M0,0c0,17.2,8.6-14.9,17.2-29.9"/>
	<path class="st0" d="M0,0c0,17.2,17.2,0,34.5,0"/>
	<path class="st0" d="M0,0c0,17.2,8.6,14.9,17.2,29.9"/>
	<path class="st0" d="M0,0c0,17.2-8.6,14.9-17.2,29.9"/>
	<path class="st0" d="M0,0c0,17.2-17.2,0-34.5,0"/>
	<path class="st0" d="M0,0c0,17.2-8.6-14.9-17.2-29.9"/>
	<path class="st0" d="M17.2-29.9C25.9-44.8,4.5-51.5,6-68.7"/>
	<path class="st0" d="M17.2-29.9c8.6-14.9-3.9-20.1,0.6-36.8"/>
	<path class="st0" d="M17.2-29.9c8.6-14.9,4.6-17,11.9-32.6"/>
	<path class="st0" d="M17.2-29.9c8.6-14.9,12.4-12.5,22.3-26.6"/>
	<path class="st0" d="M17.2-29.9c8.6-14.9,19.3-6.7,31.5-18.9"/>
	<path class="st0" d="M17.2-29.9c8.6-14.9,25.1,0.2,39.3-9.7"/>
	<path class="st0" d="M34.5,0c17.2,0,12.4-21.9,28-29.1"/>
	<path class="st0" d="M34.5,0C51.7,0,50-13.4,66.6-17.8"/>
	<path class="st0" d="M34.5,0c17.2,0,17-4.5,34.2-6"/>
	<path class="st0" d="M34.5,0c17.2,0,17,4.5,34.2,6"/>
	<path class="st0" d="M34.5,0C51.7,0,50,13.4,66.6,17.8"/>
	<path class="st0" d="M34.5,0c17.2,0,12.4,21.9,28,29.1"/>
	<path class="st0" d="M17.2,29.9c8.6,14.9,25.1-0.2,39.3,9.7"/>
	<path class="st0" d="M17.2,29.9c8.6,14.9,19.3,6.7,31.5,18.9"/>
	<path class="st0" d="M17.2,29.9c8.6,14.9,12.4,12.5,22.3,26.6"/>
	<path class="st0" d="M17.2,29.9c8.6,14.9,4.6,17,11.9,32.6"/>
	<path class="st0" d="M17.2,29.9c8.6,14.9-3.9,20.1,0.6,36.8"/>
	<path class="st0" d="M17.2,29.9C25.9,44.8,4.5,51.5,6,68.7"/>
	<path class="st0" d="M-17.2,29.9C-25.9,44.8-4.5,51.5-6,68.7"/>
	<path class="st0" d="M-17.2,29.9c-8.6,14.9,3.9,20.1-0.6,36.8"/>
	<path class="st0" d="M-17.2,29.9c-8.6,14.9-4.6,17-11.9,32.6"/>
	<path class="st0" d="M-17.2,29.9c-8.6,14.9-12.4,12.5-22.3,26.6"/>
	<path class="st0" d="M-17.2,29.9c-8.6,14.9-19.3,6.7-31.5,18.9"/>
	<path class="st0" d="M-17.2,29.9c-8.6,14.9-25.1-0.2-39.3,9.7"/>
	<path class="st0" d="M-34.5,0c-17.2,0-12.4,21.9-28,29.1"/>
	<path class="st0" d="M-34.5,0C-51.7,0-50,13.4-66.6,17.8"/>
	<path class="st0" d="M-34.5,0c-17.2,0-17,4.5-34.2,6"/>
	<path class="st0" d="M-34.5,0c-17.2,0-17-4.5-34.2-6"/>
	<path class="st0" d="M-34.5,0C-51.7,0-50-13.4-66.6-17.8"/>
	<path class="st0" d="M-34.5,0c-17.2,0-12.4-21.9-28-29.1"/>
	<path class="st0" d="M-17.2-29.9c-8.6-14.9-25.1,0.2-39.3-9.7"/>
	<path class="st0" d="M-17.2-29.9c-8.6-14.9-19.3-6.7-31.5-18.9"/>
	<path class="st0" d="M-17.2-29.9c-8.6-14.9-12.4-12.5-22.3-26.6"/>
	<path class="st0" d="M-17.2-29.9c-8.6-14.9-4.6-17-11.9-32.6"/>
	<path class="st0" d="M-17.2-29.9c-8.6-14.9,3.9-20.1-0.6-36.8"/>
	<path class="st0" d="M-17.2-29.9C-25.9-44.8-4.5-51.5-6-68.7"/>
	<path class="st0" d="M6-68.7c1.5-17.2-3.9-17.5-3.4-34.7"/>
	<path class="st0" d="M6-68.7c1.5-17.2-1.7-17.4-0.9-34.6"/>
	<path class="st0" d="M6-68.7C7.5-85.9,6.4-86,7.7-103.2"/>
	<path class="st0" d="M6-68.7c1.5-17.2,2.6-17.1,4.3-34.2"/>
	<path class="st0" d="M6-68.7c1.5-17.2,4.7-16.8,6.9-33.9"/>
	<path class="st0" d="M6-68.7c1.5-17.2,6.8-16.5,9.4-33.6"/>
	<path class="st0" d="M17.8-66.6c4.5-16.7-0.8-17.9,2.6-34.8"/>
	<path class="st0" d="M17.8-66.6c4.5-16.7,1.3-17.4,5.2-34.2"/>
	<path class="st0" d="M17.8-66.6c4.5-16.7,3.4-16.9,7.7-33.6"/>
	<path class="st0" d="M17.8-66.6c4.5-16.7,5.5-16.4,10.2-33"/>
	<path class="st0" d="M17.8-66.6c4.5-16.7,7.6-15.8,12.6-32.2"/>
	<path class="st0" d="M17.8-66.6c4.5-16.7,9.6-15.1,15.1-31.4"/>
	<path class="st0" d="M29.1-62.5c7.3-15.6,2.3-17.7,8.6-33.8"/>
	<path class="st0" d="M29.1-62.5c7.3-15.6,4.3-16.9,11-32.8"/>
	<path class="st0" d="M29.1-62.5c7.3-15.6,6.3-16.1,13.4-31.8"/>
	<path class="st0" d="M29.1-62.5c7.3-15.6,8.3-15.2,15.7-30.7"/>
	<path class="st0" d="M29.1-62.5c7.3-15.6,10.2-14.2,18-29.6"/>
	<path class="st0" d="M29.1-62.5c7.3-15.6,12.1-13.2,20.3-28.3"/>
	<path class="st0" d="M39.6-56.5c9.9-14.1,5.4-17.1,14.4-31.8"/>
	<path class="st0" d="M39.6-56.5c9.9-14.1,7.2-15.9,16.6-30.4"/>
	<path class="st0" d="M39.6-56.5c9.9-14.1,9-14.7,18.7-29"/>
	<path class="st0" d="M39.6-56.5C49.4-70.6,50.3-70,60.4-84"/>
	<path class="st0" d="M39.6-56.5c9.9-14.1,12.5-12.2,22.9-26"/>
	<path class="st0" d="M39.6-56.5c9.9-14.1,14.2-10.9,24.9-24.4"/>
	<path class="st0" d="M48.8-48.8C61-61,57-64.6,68.5-77.6"/>
	<path class="st0" d="M48.8-48.8C61-61,58.6-63.2,70.4-75.8"/>
	<path class="st0" d="M48.8-48.8C61-61,60.2-61.7,72.2-74.1"/>
	<path class="st0" d="M48.8-48.8C61-61,61.7-60.2,74.1-72.2"/>
	<path class="st0" d="M48.8-48.8C61-61,63.2-58.6,75.8-70.4"/>
	<path class="st0" d="M48.8-48.8C61-61,64.6-57,77.6-68.5"/>
	<path class="st0" d="M56.5-39.6c14.1-9.9,10.9-14.2,24.4-24.9"/>
	<path class="st0" d="M56.5-39.6c14.1-9.9,12.2-12.5,26-22.9"/>
	<path class="st0" d="M56.5-39.6C70.6-49.4,70-50.3,84-60.4"/>
	<path class="st0" d="M56.5-39.6c14.1-9.9,14.7-9,29-18.7"/>
	<path class="st0" d="M56.5-39.6c14.1-9.9,15.9-7.2,30.4-16.6"/>
	<path class="st0" d="M56.5-39.6c14.1-9.9,17.1-5.4,31.8-14.4"/>
	<path class="st0" d="M62.5-29.1c15.6-7.3,13.2-12.1,28.3-20.3"/>
	<path class="st0" d="M62.5-29.1c15.6-7.3,14.2-10.2,29.6-18"/>
	<path class="st0" d="M62.5-29.1c15.6-7.3,15.2-8.3,30.7-15.7"/>
	<path class="st0" d="M62.5-29.1c15.6-7.3,16.1-6.3,31.8-13.4"/>
	<path class="st0" d="M62.5-29.1c15.6-7.3,16.9-4.3,32.8-11"/>
	<path class="st0" d="M62.5-29.1c15.6-7.3,17.7-2.3,33.8-8.6"/>
	<path class="st0" d="M66.6-17.8c16.7-4.5,15.1-9.6,31.4-15.1"/>
	<path class="st0" d="M66.6-17.8c16.7-4.5,15.8-7.6,32.2-12.6"/>
	<path class="st0" d="M66.6-17.8c16.7-4.5,16.4-5.5,33-10.2"/>
	<path class="st0" d="M66.6-17.8c16.7-4.5,16.9-3.4,33.6-7.7"/>
	<path class="st0" d="M66.6-17.8c16.7-4.5,17.4-1.3,34.2-5.2"/>
	<path class="st0" d="M66.6-17.8c16.7-4.5,17.9,0.8,34.8-2.6"/>
	<path class="st0" d="M68.7-6c17.2-1.5,16.5-6.8,33.6-9.4"/>
	<path class="st0" d="M68.7-6c17.2-1.5,16.8-4.7,33.9-6.9"/>
	<path class="st0" d="M68.7-6c17.2-1.5,17.1-2.6,34.2-4.3"/>
	<path class="st0" d="M68.7-6C85.9-7.5,86-6.4,103.2-7.7"/>
	<path class="st0" d="M68.7-6c17.2-1.5,17.4,1.7,34.6,0.9"/>
	<path class="st0" d="M68.7-6c17.2-1.5,17.5,3.9,34.7,3.4"/>
	<path class="st0" d="M68.7,6c17.2,1.5,17.5-3.9,34.7-3.4"/>
	<path class="st0" d="M68.7,6c17.2,1.5,17.4-1.7,34.6-0.9"/>
	<path class="st0" d="M68.7,6C85.9,7.5,86,6.4,103.2,7.7"/>
	<path class="st0" d="M68.7,6c17.2,1.5,17.1,2.6,34.2,4.3"/>
	<path class="st0" d="M68.7,6c17.2,1.5,16.8,4.7,33.9,6.9"/>
	<path class="st0" d="M68.7,6c17.2,1.5,16.5,6.8,33.6,9.4"/>
	<path class="st0" d="M66.6,17.8c16.7,4.5,17.9-0.8,34.8,2.6"/>
	<path class="st0" d="M66.6,17.8c16.7,4.5,17.4,1.3,34.2,5.2"/>
	<path class="st0" d="M66.6,17.8c16.7,4.5,16.9,3.4,33.6,7.7"/>
	<path class="st0" d="M66.6,17.8c16.7,4.5,16.4,5.5,33,10.2"/>
	<path class="st0" d="M66.6,17.8c16.7,4.5,15.8,7.6,32.2,12.6"/>
	<path class="st0" d="M66.6,17.8c16.7,4.5,15.1,9.6,31.4,15.1"/>
	<path class="st0" d="M62.5,29.1c15.6,7.3,17.7,2.3,33.8,8.6"/>
	<path class="st0" d="M62.5,29.1c15.6,7.3,16.9,4.3,32.8,11"/>
	<path class="st0" d="M62.5,29.1c15.6,7.3,16.1,6.3,31.8,13.4"/>
	<path class="st0" d="M62.5,29.1c15.6,7.3,15.2,8.3,30.7,15.7"/>
	<path class="st0" d="M62.5,29.1c15.6,7.3,14.2,10.2,29.6,18"/>
	<path class="st0" d="M62.5,29.1c15.6,7.3,13.2,12.1,28.3,20.3"/>
	<path class="st0" d="M56.5,39.6c14.1,9.9,17.1,5.4,31.8,14.4"/>
	<path class="st0" d="M56.5,39.6c14.1,9.9,15.9,7.2,30.4,16.6"/>
	<path class="st0" d="M56.5,39.6c14.1,9.9,14.7,9,29,18.7"/>
	<path class="st0" d="M56.5,39.6C70.6,49.4,70,50.3,84,60.4"/>
	<path class="st0" d="M56.5,39.6c14.1,9.9,12.2,12.5,26,22.9"/>
	<path class="st0" d="M56.5,39.6c14.1,9.9,10.9,14.2,24.4,24.9"/>
	<path class="st0" d="M48.8,48.8C61,61,64.6,57,77.6,68.5"/>
	<path class="st0" d="M48.8,48.8C61,61,63.2,58.6,75.8,70.4"/>
	<path class="st0" d="M48.8,48.8C61,61,61.7,60.2,74.1,72.2"/>
	<path class="st0" d="M48.8,48.8C61,61,60.2,61.7,72.2,74.1"/>
	<path class="st0" d="M48.8,48.8C61,61,58.6,63.2,70.4,75.8"/>
	<path class="st0" d="M48.8,48.8C61,61,57,64.6,68.5,77.6"/>
	<path class="st0" d="M39.6,56.5c9.9,14.1,14.2,10.9,24.9,24.4"/>
	<path class="st0" d="M39.6,56.5c9.9,14.1,12.5,12.2,22.9,26"/>
	<path class="st0" d="M39.6,56.5C49.4,70.6,50.3,70,60.4,84"/>
	<path class="st0" d="M39.6,56.5c9.9,14.1,9,14.7,18.7,29"/>
	<path class="st0" d="M39.6,56.5c9.9,14.1,7.2,15.9,16.6,30.4"/>
	<path class="st0" d="M39.6,56.5c9.9,14.1,5.4,17.1,14.4,31.8"/>
	<path class="st0" d="M29.1,62.5c7.3,15.6,12.1,13.2,20.3,28.3"/>
	<path class="st0" d="M29.1,62.5c7.3,15.6,10.2,14.2,18,29.6"/>
	<path class="st0" d="M29.1,62.5c7.3,15.6,8.3,15.2,15.7,30.7"/>
	<path class="st0" d="M29.1,62.5c7.3,15.6,6.3,16.1,13.4,31.8"/>
	<path class="st0" d="M29.1,62.5c7.3,15.6,4.3,16.9,11,32.8"/>
	<path class="st0" d="M29.1,62.5c7.3,15.6,2.3,17.7,8.6,33.8"/>
	<path class="st0" d="M17.8,66.6c4.5,16.7,9.6,15.1,15.1,31.4"/>
	<path class="st0" d="M17.8,66.6c4.5,16.7,7.6,15.8,12.6,32.2"/>
	<path class="st0" d="M17.8,66.6c4.5,16.7,5.5,16.4,10.2,33"/>
	<path class="st0" d="M17.8,66.6c4.5,16.7,3.4,16.9,7.7,33.6"/>
	<path class="st0" d="M17.8,66.6c4.5,16.7,1.3,17.4,5.2,34.2"/>
	<path class="st0" d="M17.8,66.6c4.5,16.7-0.8,17.9,2.6,34.8"/>
	<path class="st0" d="M6,68.7c1.5,17.2,6.8,16.5,9.4,33.6"/>
	<path class="st0" d="M6,68.7c1.5,17.2,4.7,16.8,6.9,33.9"/>
	<path class="st0" d="M6,68.7c1.5,17.2,2.6,17.1,4.3,34.2"/>
	<path class="st0" d="M6,68.7C7.5,85.9,6.4,86,7.7,103.2"/>
	<path class="st0" d="M6,68.7c1.5,17.2-1.7,17.4-0.9,34.6"/>
	<path class="st0" d="M6,68.7c1.5,17.2-3.9,17.5-3.4,34.7"/>
	<path class="st0" d="M-6,68.7c-1.5,17.2,3.9,17.5,3.4,34.7"/>
	<path class="st0" d="M-6,68.7c-1.5,17.2,1.7,17.4,0.9,34.6"/>
	<path class="st0" d="M-6,68.7C-7.5,85.9-6.4,86-7.7,103.2"/>
	<path class="st0" d="M-6,68.7c-1.5,17.2-2.6,17.1-4.3,34.2"/>
	<path class="st0" d="M-6,68.7c-1.5,17.2-4.7,16.8-6.9,33.9"/>
	<path class="st0" d="M-6,68.7c-1.5,17.2-6.8,16.5-9.4,33.6"/>
	<path class="st0" d="M-17.8,66.6c-4.5,16.7,0.8,17.9-2.6,34.8"/>
	<path class="st0" d="M-17.8,66.6c-4.5,16.7-1.3,17.4-5.2,34.2"/>
	<path class="st0" d="M-17.8,66.6c-4.5,16.7-3.4,16.9-7.7,33.6"/>
	<path class="st0" d="M-17.8,66.6c-4.5,16.7-5.5,16.4-10.2,33"/>
	<path class="st0" d="M-17.8,66.6c-4.5,16.7-7.6,15.8-12.6,32.2"/>
	<path class="st0" d="M-17.8,66.6c-4.5,16.7-9.6,15.1-15.1,31.4"/>
	<path class="st0" d="M-29.1,62.5c-7.3,15.6-2.3,17.7-8.6,33.8"/>
	<path class="st0" d="M-29.1,62.5c-7.3,15.6-4.3,16.9-11,32.8"/>
	<path class="st0" d="M-29.1,62.5c-7.3,15.6-6.3,16.1-13.4,31.8"/>
	<path class="st0" d="M-29.1,62.5c-7.3,15.6-8.3,15.2-15.7,30.7"/>
	<path class="st0" d="M-29.1,62.5c-7.3,15.6-10.2,14.2-18,29.6"/>
	<path class="st0" d="M-29.1,62.5c-7.3,15.6-12.1,13.2-20.3,28.3"/>
	<path class="st0" d="M-39.6,56.5c-9.9,14.1-5.4,17.1-14.4,31.8"/>
	<path class="st0" d="M-39.6,56.5c-9.9,14.1-7.2,15.9-16.6,30.4"/>
	<path class="st0" d="M-39.6,56.5c-9.9,14.1-9,14.7-18.7,29"/>
	<path class="st0" d="M-39.6,56.5C-49.4,70.6-50.3,70-60.4,84"/>
	<path class="st0" d="M-39.6,56.5c-9.9,14.1-12.5,12.2-22.9,26"/>
	<path class="st0" d="M-39.6,56.5c-9.9,14.1-14.2,10.9-24.9,24.4"/>
	<path class="st0" d="M-48.8,48.8C-61,61-57,64.6-68.5,77.6"/>
	<path class="st0" d="M-48.8,48.8C-61,61-58.6,63.2-70.4,75.8"/>
	<path class="st0" d="M-48.8,48.8C-61,61-60.2,61.7-72.2,74.1"/>
	<path class="st0" d="M-48.8,48.8C-61,61-61.7,60.2-74.1,72.2"/>
	<path class="st0" d="M-48.8,48.8C-61,61-63.2,58.6-75.8,70.4"/>
	<path class="st0" d="M-48.8,48.8C-61,61-64.6,57-77.6,68.5"/>
	<path class="st0" d="M-56.5,39.6c-14.1,9.9-10.9,14.2-24.4,24.9"/>
	<path class="st0" d="M-56.5,39.6c-14.1,9.9-12.2,12.5-26,22.9"/>
	<path class="st0" d="M-56.5,39.6C-70.6,49.4-70,50.3-84,60.4"/>
	<path class="st0" d="M-56.5,39.6c-14.1,9.9-14.7,9-29,18.7"/>
	<path class="st0" d="M-56.5,39.6c-14.1,9.9-15.9,7.2-30.4,16.6"/>
	<path class="st0" d="M-56.5,39.6c-14.1,9.9-17.1,5.4-31.8,14.4"/>
	<path class="st0" d="M-62.5,29.1c-15.6,7.3-13.2,12.1-28.3,20.3"/>
	<path class="st0" d="M-62.5,29.1c-15.6,7.3-14.2,10.2-29.6,18"/>
	<path class="st0" d="M-62.5,29.1c-15.6,7.3-15.2,8.3-30.7,15.7"/>
	<path class="st0" d="M-62.5,29.1c-15.6,7.3-16.1,6.3-31.8,13.4"/>
	<path class="st0" d="M-62.5,29.1c-15.6,7.3-16.9,4.3-32.8,11"/>
	<path class="st0" d="M-62.5,29.1c-15.6,7.3-17.7,2.3-33.8,8.6"/>
	<path class="st0" d="M-66.6,17.8c-16.7,4.5-15.1,9.6-31.4,15.1"/>
	<path class="st0" d="M-66.6,17.8c-16.7,4.5-15.8,7.6-32.2,12.6"/>
	<path class="st0" d="M-66.6,17.8c-16.7,4.5-16.4,5.5-33,10.2"/>
	<path class="st0" d="M-66.6,17.8c-16.7,4.5-16.9,3.4-33.6,7.7"/>
	<path class="st0" d="M-66.6,17.8c-16.7,4.5-17.4,1.3-34.2,5.2"/>
	<path class="st0" d="M-66.6,17.8c-16.7,4.5-17.9-0.8-34.8,2.6"/>
	<path class="st0" d="M-68.7,6c-17.2,1.5-16.5,6.8-33.6,9.4"/>
	<path class="st0" d="M-68.7,6c-17.2,1.5-16.8,4.7-33.9,6.9"/>
	<path class="st0" d="M-68.7,6c-17.2,1.5-17.1,2.6-34.2,4.3"/>
	<path class="st0" d="M-68.7,6C-85.9,7.5-86,6.4-103.2,7.7"/>
	<path class="st0" d="M-68.7,6c-17.2,1.5-17.4-1.7-34.6-0.9"/>
	<path class="st0" d="M-68.7,6c-17.2,1.5-17.5-3.9-34.7-3.4"/>
	<path class="st0" d="M-68.7-6c-17.2-1.5-17.5,3.9-34.7,3.4"/>
	<path class="st0" d="M-68.7-6c-17.2-1.5-17.4,1.7-34.6,0.9"/>
	<path class="st0" d="M-68.7-6C-85.9-7.5-86-6.4-103.2-7.7"/>
	<path class="st0" d="M-68.7-6c-17.2-1.5-17.1-2.6-34.2-4.3"/>
	<path class="st0" d="M-68.7-6c-17.2-1.5-16.8-4.7-33.9-6.9"/>
	<path class="st0" d="M-68.7-6c-17.2-1.5-16.5-6.8-33.6-9.4"/>
	<path class="st0" d="M-66.6-17.8c-16.7-4.5-17.9,0.8-34.8-2.6"/>
	<path class="st0" d="M-66.6-17.8c-16.7-4.5-17.4-1.3-34.2-5.2"/>
	<path class="st0" d="M-66.6-17.8c-16.7-4.5-16.9-3.4-33.6-7.7"/>
	<path class="st0" d="M-66.6-17.8c-16.7-4.5-16.4-5.5-33-10.2"/>
	<path class="st0" d="M-66.6-17.8c-16.7-4.5-15.8-7.6-32.2-12.6"/>
	<path class="st0" d="M-66.6-17.8c-16.7-4.5-15.1-9.6-31.4-15.1"/>
	<path class="st0" d="M-62.5-29.1c-15.6-7.3-17.7-2.3-33.8-8.6"/>
	<path class="st0" d="M-62.5-29.1c-15.6-7.3-16.9-4.3-32.8-11"/>
	<path class="st0" d="M-62.5-29.1c-15.6-7.3-16.1-6.3-31.8-13.4"/>
	<path class="st0" d="M-62.5-29.1c-15.6-7.3-15.2-8.3-30.7-15.7"/>
	<path class="st0" d="M-62.5-29.1c-15.6-7.3-14.2-10.2-29.6-18"/>
	<path class="st0" d="M-62.5-29.1c-15.6-7.3-13.2-12.1-28.3-20.3"/>
	<path class="st0" d="M-56.5-39.6c-14.1-9.9-17.1-5.4-31.8-14.4"/>
	<path class="st0" d="M-56.5-39.6c-14.1-9.9-15.9-7.2-30.4-16.6"/>
	<path class="st0" d="M-56.5-39.6c-14.1-9.9-14.7-9-29-18.7"/>
	<path class="st0" d="M-56.5-39.6C-70.6-49.4-70-50.3-84-60.4"/>
	<path class="st0" d="M-56.5-39.6c-14.1-9.9-12.2-12.5-26-22.9"/>
	<path class="st0" d="M-56.5-39.6c-14.1-9.9-10.9-14.2-24.4-24.9"/>
	<path class="st0" d="M-48.8-48.8C-61-61-64.6-57-77.6-68.5"/>
	<path class="st0" d="M-48.8-48.8C-61-61-63.2-58.6-75.8-70.4"/>
	<path class="st0" d="M-48.8-48.8C-61-61-61.7-60.2-74.1-72.2"/>
	<path class="st0" d="M-48.8-48.8C-61-61-60.2-61.7-72.2-74.1"/>
	<path class="st0" d="M-48.8-48.8C-61-61-58.6-63.2-70.4-75.8"/>
	<path class="st0" d="M-48.8-48.8C-61-61-57-64.6-68.5-77.6"/>
	<path class="st0" d="M-39.6-56.5c-9.9-14.1-14.2-10.9-24.9-24.4"/>
	<path class="st0" d="M-39.6-56.5c-9.9-14.1-12.5-12.2-22.9-26"/>
	<path class="st0" d="M-39.6-56.5C-49.4-70.6-50.3-70-60.4-84"/>
	<path class="st0" d="M-39.6-56.5c-9.9-14.1-9-14.7-18.7-29"/>
	<path class="st0" d="M-39.6-56.5c-9.9-14.1-7.2-15.9-16.6-30.4"/>
	<path class="st0" d="M-39.6-56.5c-9.9-14.1-5.4-17.1-14.4-31.8"/>
	<path class="st0" d="M-29.1-62.5c-7.3-15.6-12.1-13.2-20.3-28.3"/>
	<path class="st0" d="M-29.1-62.5c-7.3-15.6-10.2-14.2-18-29.6"/>
	<path class="st0" d="M-29.1-62.5c-7.3-15.6-8.3-15.2-15.7-30.7"/>
	<path class="st0" d="M-29.1-62.5c-7.3-15.6-6.3-16.1-13.4-31.8"/>
	<path class="st0" d="M-29.1-62.5c-7.3-15.6-4.3-16.9-11-32.8"/>
	<path class="st0" d="M-29.1-62.5c-7.3-15.6-2.3-17.7-8.6-33.8"/>
	<path class="st0" d="M-17.8-66.6c-4.5-16.7-9.6-15.1-15.1-31.4"/>
	<path class="st0" d="M-17.8-66.6c-4.5-16.7-7.6-15.8-12.6-32.2"/>
	<path class="st0" d="M-17.8-66.6c-4.5-16.7-5.5-16.4-10.2-33"/>
	<path class="st0" d="M-17.8-66.6c-4.5-16.7-3.4-16.9-7.7-33.6"/>
	<path class="st0" d="M-17.8-66.6c-4.5-16.7-1.3-17.4-5.2-34.2"/>
	<path class="st0" d="M-17.8-66.6c-4.5-16.7,0.8-17.9-2.6-34.8"/>
	<path class="st0" d="M-6-68.7c-1.5-17.2-6.8-16.5-9.4-33.6"/>
	<path class="st0" d="M-6-68.7c-1.5-17.2-4.7-16.8-6.9-33.9"/>
	<path class="st0" d="M-6-68.7c-1.5-17.2-2.6-17.1-4.3-34.2"/>
	<path class="st0" d="M-6-68.7C-7.5-85.9-6.4-86-7.7-103.2"/>
	<path class="st0" d="M-6-68.7c-1.5-17.2,1.7-17.4,0.9-34.6"/>
	<path class="st0" d="M-6-68.7c-1.5-17.2,3.9-17.5,3.4-34.7"/>
</g>
<g transform="translate(150,150)">
</g>
<g>
	<circle class="st1" cx="150" cy="150" r="103.4"/>
</g>
<g>
	<circle class="st1" cx="150" cy="150" r="69"/>
</g>
<g>
	<circle class="st1" cx="150" cy="150" r="34.5"/>
</g>
<text transform="matrix(1 0 0 1 47.5137 15)" class="radial-info">Covid-19 (Delta variant), R0 = 6</text>
<text transform="matrix(1 0 0 1 91.7959 285)" class="radial-total">Total infected: 259</text>
<g transform="translate(150,150)">
	<path class="st0" d="M0,0c0,17.2,8.6-14.9,17.2-29.9"/>
	<path class="st0" d="M0,0c0,17.2,17.2,0,34.5,0"/>
	<path class="st0" d="M0,0c0,17.2,8.6,14.9,17.2,29.9"/>
	<path class="st0" d="M0,0c0,17.2-8.6,14.9-17.2,29.9"/>
	<path class="st0" d="M0,0c0,17.2-17.2,0-34.5,0"/>
	<path class="st0" d="M0,0c0,17.2-8.6-14.9-17.2-29.9"/>
	<path class="st0" d="M17.2-29.9C25.9-44.8,4.5-51.5,6-68.7"/>
	<path class="st0" d="M17.2-29.9c8.6-14.9-3.9-20.1,0.6-36.8"/>
	<path class="st0" d="M17.2-29.9c8.6-14.9,4.6-17,11.9-32.6"/>
	<path class="st0" d="M17.2-29.9c8.6-14.9,12.4-12.5,22.3-26.6"/>
	<path class="st0" d="M17.2-29.9c8.6-14.9,19.3-6.7,31.5-18.9"/>
	<path class="st0" d="M17.2-29.9c8.6-14.9,25.1,0.2,39.3-9.7"/>
	<path class="st0" d="M34.5,0c17.2,0,12.4-21.9,28-29.1"/>
	<path class="st0" d="M34.5,0C51.7,0,50-13.4,66.6-17.8"/>
	<path class="st0" d="M34.5,0c17.2,0,17-4.5,34.2-6"/>
	<path class="st0" d="M34.5,0c17.2,0,17,4.5,34.2,6"/>
	<path class="st0" d="M34.5,0C51.7,0,50,13.4,66.6,17.8"/>
	<path class="st0" d="M34.5,0c17.2,0,12.4,21.9,28,29.1"/>
	<path class="st0" d="M17.2,29.9c8.6,14.9,25.1-0.2,39.3,9.7"/>
	<path class="st0" d="M17.2,29.9c8.6,14.9,19.3,6.7,31.5,18.9"/>
	<path class="st0" d="M17.2,29.9c8.6,14.9,12.4,12.5,22.3,26.6"/>
	<path class="st0" d="M17.2,29.9c8.6,14.9,4.6,17,11.9,32.6"/>
	<path class="st0" d="M17.2,29.9c8.6,14.9-3.9,20.1,0.6,36.8"/>
	<path class="st0" d="M17.2,29.9C25.9,44.8,4.5,51.5,6,68.7"/>
	<path class="st0" d="M-17.2,29.9C-25.9,44.8-4.5,51.5-6,68.7"/>
	<path class="st0" d="M-17.2,29.9c-8.6,14.9,3.9,20.1-0.6,36.8"/>
	<path class="st0" d="M-17.2,29.9c-8.6,14.9-4.6,17-11.9,32.6"/>
	<path class="st0" d="M-17.2,29.9c-8.6,14.9-12.4,12.5-22.3,26.6"/>
	<path class="st0" d="M-17.2,29.9c-8.6,14.9-19.3,6.7-31.5,18.9"/>
	<path class="st0" d="M-17.2,29.9c-8.6,14.9-25.1-0.2-39.3,9.7"/>
	<path class="st0" d="M-34.5,0c-17.2,0-12.4,21.9-28,29.1"/>
	<path class="st0" d="M-34.5,0C-51.7,0-50,13.4-66.6,17.8"/>
	<path class="st0" d="M-34.5,0c-17.2,0-17,4.5-34.2,6"/>
	<path class="st0" d="M-34.5,0c-17.2,0-17-4.5-34.2-6"/>
	<path class="st0" d="M-34.5,0C-51.7,0-50-13.4-66.6-17.8"/>
	<path class="st0" d="M-34.5,0c-17.2,0-12.4-21.9-28-29.1"/>
	<path class="st0" d="M-17.2-29.9c-8.6-14.9-25.1,0.2-39.3-9.7"/>
	<path class="st0" d="M-17.2-29.9c-8.6-14.9-19.3-6.7-31.5-18.9"/>
	<path class="st0" d="M-17.2-29.9c-8.6-14.9-12.4-12.5-22.3-26.6"/>
	<path class="st0" d="M-17.2-29.9c-8.6-14.9-4.6-17-11.9-32.6"/>
	<path class="st0" d="M-17.2-29.9c-8.6-14.9,3.9-20.1-0.6-36.8"/>
	<path class="st0" d="M-17.2-29.9C-25.9-44.8-4.5-51.5-6-68.7"/>
	<path class="st0" d="M6-68.7c1.5-17.2-3.9-17.5-3.4-34.7"/>
	<path class="st0" d="M6-68.7c1.5-17.2-1.7-17.4-0.9-34.6"/>
	<path class="st0" d="M6-68.7C7.5-85.9,6.4-86,7.7-103.2"/>
	<path class="st0" d="M6-68.7c1.5-17.2,2.6-17.1,4.3-34.2"/>
	<path class="st0" d="M6-68.7c1.5-17.2,4.7-16.8,6.9-33.9"/>
	<path class="st0" d="M6-68.7c1.5-17.2,6.8-16.5,9.4-33.6"/>
	<path class="st0" d="M17.8-66.6c4.5-16.7-0.8-17.9,2.6-34.8"/>
	<path class="st0" d="M17.8-66.6c4.5-16.7,1.3-17.4,5.2-34.2"/>
	<path class="st0" d="M17.8-66.6c4.5-16.7,3.4-16.9,7.7-33.6"/>
	<path class="st0" d="M17.8-66.6c4.5-16.7,5.5-16.4,10.2-33"/>
	<path class="st0" d="M17.8-66.6c4.5-16.7,7.6-15.8,12.6-32.2"/>
	<path class="st0" d="M17.8-66.6c4.5-16.7,9.6-15.1,15.1-31.4"/>
	<path class="st0" d="M29.1-62.5c7.3-15.6,2.3-17.7,8.6-33.8"/>
	<path class="st0" d="M29.1-62.5c7.3-15.6,4.3-16.9,11-32.8"/>
	<path class="st0" d="M29.1-62.5c7.3-15.6,6.3-16.1,13.4-31.8"/>
	<path class="st0" d="M29.1-62.5c7.3-15.6,8.3-15.2,15.7-30.7"/>
	<path class="st0" d="M29.1-62.5c7.3-15.6,10.2-14.2,18-29.6"/>
	<path class="st0" d="M29.1-62.5c7.3-15.6,12.1-13.2,20.3-28.3"/>
	<path class="st0" d="M39.6-56.5c9.9-14.1,5.4-17.1,14.4-31.8"/>
	<path class="st0" d="M39.6-56.5c9.9-14.1,7.2-15.9,16.6-30.4"/>
	<path class="st0" d="M39.6-56.5c9.9-14.1,9-14.7,18.7-29"/>
	<path class="st0" d="M39.6-56.5C49.4-70.6,50.3-70,60.4-84"/>
	<path class="st0" d="M39.6-56.5c9.9-14.1,12.5-12.2,22.9-26"/>
	<path class="st0" d="M39.6-56.5c9.9-14.1,14.2-10.9,24.9-24.4"/>
	<path class="st0" d="M48.8-48.8C61-61,57-64.6,68.5-77.6"/>
	<path class="st0" d="M48.8-48.8C61-61,58.6-63.2,70.4-75.8"/>
	<path class="st0" d="M48.8-48.8C61-61,60.2-61.7,72.2-74.1"/>
	<path class="st0" d="M48.8-48.8C61-61,61.7-60.2,74.1-72.2"/>
	<path class="st0" d="M48.8-48.8C61-61,63.2-58.6,75.8-70.4"/>
	<path class="st0" d="M48.8-48.8C61-61,64.6-57,77.6-68.5"/>
	<path class="st0" d="M56.5-39.6c14.1-9.9,10.9-14.2,24.4-24.9"/>
	<path class="st0" d="M56.5-39.6c14.1-9.9,12.2-12.5,26-22.9"/>
	<path class="st0" d="M56.5-39.6C70.6-49.4,70-50.3,84-60.4"/>
	<path class="st0" d="M56.5-39.6c14.1-9.9,14.7-9,29-18.7"/>
	<path class="st0" d="M56.5-39.6c14.1-9.9,15.9-7.2,30.4-16.6"/>
	<path class="st0" d="M56.5-39.6c14.1-9.9,17.1-5.4,31.8-14.4"/>
	<path class="st0" d="M62.5-29.1c15.6-7.3,13.2-12.1,28.3-20.3"/>
	<path class="st0" d="M62.5-29.1c15.6-7.3,14.2-10.2,29.6-18"/>
	<path class="st0" d="M62.5-29.1c15.6-7.3,15.2-8.3,30.7-15.7"/>
	<path class="st0" d="M62.5-29.1c15.6-7.3,16.1-6.3,31.8-13.4"/>
	<path class="st0" d="M62.5-29.1c15.6-7.3,16.9-4.3,32.8-11"/>
	<path class="st0" d="M62.5-29.1c15.6-7.3,17.7-2.3,33.8-8.6"/>
	<path class="st0" d="M66.6-17.8c16.7-4.5,15.1-9.6,31.4-15.1"/>
	<path class="st0" d="M66.6-17.8c16.7-4.5,15.8-7.6,32.2-12.6"/>
	<path class="st0" d="M66.6-17.8c16.7-4.5,16.4-5.5,33-10.2"/>
	<path class="st0" d="M66.6-17.8c16.7-4.5,16.9-3.4,33.6-7.7"/>
	<path class="st0" d="M66.6-17.8c16.7-4.5,17.4-1.3,34.2-5.2"/>
	<path class="st0" d="M66.6-17.8c16.7-4.5,17.9,0.8,34.8-2.6"/>
	<path class="st0" d="M68.7-6c17.2-1.5,16.5-6.8,33.6-9.4"/>
	<path class="st0" d="M68.7-6c17.2-1.5,16.8-4.7,33.9-6.9"/>
	<path class="st0" d="M68.7-6c17.2-1.5,17.1-2.6,34.2-4.3"/>
	<path class="st0" d="M68.7-6C85.9-7.5,86-6.4,103.2-7.7"/>
	<path class="st0" d="M68.7-6c17.2-1.5,17.4,1.7,34.6,0.9"/>
	<path class="st0" d="M68.7-6c17.2-1.5,17.5,3.9,34.7,3.4"/>
	<path class="st0" d="M68.7,6c17.2,1.5,17.5-3.9,34.7-3.4"/>
	<path class="st0" d="M68.7,6c17.2,1.5,17.4-1.7,34.6-0.9"/>
	<path class="st0" d="M68.7,6C85.9,7.5,86,6.4,103.2,7.7"/>
	<path class="st0" d="M68.7,6c17.2,1.5,17.1,2.6,34.2,4.3"/>
	<path class="st0" d="M68.7,6c17.2,1.5,16.8,4.7,33.9,6.9"/>
	<path class="st0" d="M68.7,6c17.2,1.5,16.5,6.8,33.6,9.4"/>
	<path class="st0" d="M66.6,17.8c16.7,4.5,17.9-0.8,34.8,2.6"/>
	<path class="st0" d="M66.6,17.8c16.7,4.5,17.4,1.3,34.2,5.2"/>
	<path class="st0" d="M66.6,17.8c16.7,4.5,16.9,3.4,33.6,7.7"/>
	<path class="st0" d="M66.6,17.8c16.7,4.5,16.4,5.5,33,10.2"/>
	<path class="st0" d="M66.6,17.8c16.7,4.5,15.8,7.6,32.2,12.6"/>
	<path class="st0" d="M66.6,17.8c16.7,4.5,15.1,9.6,31.4,15.1"/>
	<path class="st0" d="M62.5,29.1c15.6,7.3,17.7,2.3,33.8,8.6"/>
	<path class="st0" d="M62.5,29.1c15.6,7.3,16.9,4.3,32.8,11"/>
	<path class="st0" d="M62.5,29.1c15.6,7.3,16.1,6.3,31.8,13.4"/>
	<path class="st0" d="M62.5,29.1c15.6,7.3,15.2,8.3,30.7,15.7"/>
	<path class="st0" d="M62.5,29.1c15.6,7.3,14.2,10.2,29.6,18"/>
	<path class="st0" d="M62.5,29.1c15.6,7.3,13.2,12.1,28.3,20.3"/>
	<path class="st0" d="M56.5,39.6c14.1,9.9,17.1,5.4,31.8,14.4"/>
	<path class="st0" d="M56.5,39.6c14.1,9.9,15.9,7.2,30.4,16.6"/>
	<path class="st0" d="M56.5,39.6c14.1,9.9,14.7,9,29,18.7"/>
	<path class="st0" d="M56.5,39.6C70.6,49.4,70,50.3,84,60.4"/>
	<path class="st0" d="M56.5,39.6c14.1,9.9,12.2,12.5,26,22.9"/>
	<path class="st0" d="M56.5,39.6c14.1,9.9,10.9,14.2,24.4,24.9"/>
	<path class="st0" d="M48.8,48.8C61,61,64.6,57,77.6,68.5"/>
	<path class="st0" d="M48.8,48.8C61,61,63.2,58.6,75.8,70.4"/>
	<path class="st0" d="M48.8,48.8C61,61,61.7,60.2,74.1,72.2"/>
	<path class="st0" d="M48.8,48.8C61,61,60.2,61.7,72.2,74.1"/>
	<path class="st0" d="M48.8,48.8C61,61,58.6,63.2,70.4,75.8"/>
	<path class="st0" d="M48.8,48.8C61,61,57,64.6,68.5,77.6"/>
	<path class="st0" d="M39.6,56.5c9.9,14.1,14.2,10.9,24.9,24.4"/>
	<path class="st0" d="M39.6,56.5c9.9,14.1,12.5,12.2,22.9,26"/>
	<path class="st0" d="M39.6,56.5C49.4,70.6,50.3,70,60.4,84"/>
	<path class="st0" d="M39.6,56.5c9.9,14.1,9,14.7,18.7,29"/>
	<path class="st0" d="M39.6,56.5c9.9,14.1,7.2,15.9,16.6,30.4"/>
	<path class="st0" d="M39.6,56.5c9.9,14.1,5.4,17.1,14.4,31.8"/>
	<path class="st0" d="M29.1,62.5c7.3,15.6,12.1,13.2,20.3,28.3"/>
	<path class="st0" d="M29.1,62.5c7.3,15.6,10.2,14.2,18,29.6"/>
	<path class="st0" d="M29.1,62.5c7.3,15.6,8.3,15.2,15.7,30.7"/>
	<path class="st0" d="M29.1,62.5c7.3,15.6,6.3,16.1,13.4,31.8"/>
	<path class="st0" d="M29.1,62.5c7.3,15.6,4.3,16.9,11,32.8"/>
	<path class="st0" d="M29.1,62.5c7.3,15.6,2.3,17.7,8.6,33.8"/>
	<path class="st0" d="M17.8,66.6c4.5,16.7,9.6,15.1,15.1,31.4"/>
	<path class="st0" d="M17.8,66.6c4.5,16.7,7.6,15.8,12.6,32.2"/>
	<path class="st0" d="M17.8,66.6c4.5,16.7,5.5,16.4,10.2,33"/>
	<path class="st0" d="M17.8,66.6c4.5,16.7,3.4,16.9,7.7,33.6"/>
	<path class="st0" d="M17.8,66.6c4.5,16.7,1.3,17.4,5.2,34.2"/>
	<path class="st0" d="M17.8,66.6c4.5,16.7-0.8,17.9,2.6,34.8"/>
	<path class="st0" d="M6,68.7c1.5,17.2,6.8,16.5,9.4,33.6"/>
	<path class="st0" d="M6,68.7c1.5,17.2,4.7,16.8,6.9,33.9"/>
	<path class="st0" d="M6,68.7c1.5,17.2,2.6,17.1,4.3,34.2"/>
	<path class="st0" d="M6,68.7C7.5,85.9,6.4,86,7.7,103.2"/>
	<path class="st0" d="M6,68.7c1.5,17.2-1.7,17.4-0.9,34.6"/>
	<path class="st0" d="M6,68.7c1.5,17.2-3.9,17.5-3.4,34.7"/>
	<path class="st0" d="M-6,68.7c-1.5,17.2,3.9,17.5,3.4,34.7"/>
	<path class="st0" d="M-6,68.7c-1.5,17.2,1.7,17.4,0.9,34.6"/>
	<path class="st0" d="M-6,68.7C-7.5,85.9-6.4,86-7.7,103.2"/>
	<path class="st0" d="M-6,68.7c-1.5,17.2-2.6,17.1-4.3,34.2"/>
	<path class="st0" d="M-6,68.7c-1.5,17.2-4.7,16.8-6.9,33.9"/>
	<path class="st0" d="M-6,68.7c-1.5,17.2-6.8,16.5-9.4,33.6"/>
	<path class="st0" d="M-17.8,66.6c-4.5,16.7,0.8,17.9-2.6,34.8"/>
	<path class="st0" d="M-17.8,66.6c-4.5,16.7-1.3,17.4-5.2,34.2"/>
	<path class="st0" d="M-17.8,66.6c-4.5,16.7-3.4,16.9-7.7,33.6"/>
	<path class="st0" d="M-17.8,66.6c-4.5,16.7-5.5,16.4-10.2,33"/>
	<path class="st0" d="M-17.8,66.6c-4.5,16.7-7.6,15.8-12.6,32.2"/>
	<path class="st0" d="M-17.8,66.6c-4.5,16.7-9.6,15.1-15.1,31.4"/>
	<path class="st0" d="M-29.1,62.5c-7.3,15.6-2.3,17.7-8.6,33.8"/>
	<path class="st0" d="M-29.1,62.5c-7.3,15.6-4.3,16.9-11,32.8"/>
	<path class="st0" d="M-29.1,62.5c-7.3,15.6-6.3,16.1-13.4,31.8"/>
	<path class="st0" d="M-29.1,62.5c-7.3,15.6-8.3,15.2-15.7,30.7"/>
	<path class="st0" d="M-29.1,62.5c-7.3,15.6-10.2,14.2-18,29.6"/>
	<path class="st0" d="M-29.1,62.5c-7.3,15.6-12.1,13.2-20.3,28.3"/>
	<path class="st0" d="M-39.6,56.5c-9.9,14.1-5.4,17.1-14.4,31.8"/>
	<path class="st0" d="M-39.6,56.5c-9.9,14.1-7.2,15.9-16.6,30.4"/>
	<path class="st0" d="M-39.6,56.5c-9.9,14.1-9,14.7-18.7,29"/>
	<path class="st0" d="M-39.6,56.5C-49.4,70.6-50.3,70-60.4,84"/>
	<path class="st0" d="M-39.6,56.5c-9.9,14.1-12.5,12.2-22.9,26"/>
	<path class="st0" d="M-39.6,56.5c-9.9,14.1-14.2,10.9-24.9,24.4"/>
	<path class="st0" d="M-48.8,48.8C-61,61-57,64.6-68.5,77.6"/>
	<path class="st0" d="M-48.8,48.8C-61,61-58.6,63.2-70.4,75.8"/>
	<path class="st0" d="M-48.8,48.8C-61,61-60.2,61.7-72.2,74.1"/>
	<path class="st0" d="M-48.8,48.8C-61,61-61.7,60.2-74.1,72.2"/>
	<path class="st0" d="M-48.8,48.8C-61,61-63.2,58.6-75.8,70.4"/>
	<path class="st0" d="M-48.8,48.8C-61,61-64.6,57-77.6,68.5"/>
	<path class="st0" d="M-56.5,39.6c-14.1,9.9-10.9,14.2-24.4,24.9"/>
	<path class="st0" d="M-56.5,39.6c-14.1,9.9-12.2,12.5-26,22.9"/>
	<path class="st0" d="M-56.5,39.6C-70.6,49.4-70,50.3-84,60.4"/>
	<path class="st0" d="M-56.5,39.6c-14.1,9.9-14.7,9-29,18.7"/>
	<path class="st0" d="M-56.5,39.6c-14.1,9.9-15.9,7.2-30.4,16.6"/>
	<path class="st0" d="M-56.5,39.6c-14.1,9.9-17.1,5.4-31.8,14.4"/>
	<path class="st0" d="M-62.5,29.1c-15.6,7.3-13.2,12.1-28.3,20.3"/>
	<path class="st0" d="M-62.5,29.1c-15.6,7.3-14.2,10.2-29.6,18"/>
	<path class="st0" d="M-62.5,29.1c-15.6,7.3-15.2,8.3-30.7,15.7"/>
	<path class="st0" d="M-62.5,29.1c-15.6,7.3-16.1,6.3-31.8,13.4"/>
	<path class="st0" d="M-62.5,29.1c-15.6,7.3-16.9,4.3-32.8,11"/>
	<path class="st0" d="M-62.5,29.1c-15.6,7.3-17.7,2.3-33.8,8.6"/>
	<path class="st0" d="M-66.6,17.8c-16.7,4.5-15.1,9.6-31.4,15.1"/>
	<path class="st0" d="M-66.6,17.8c-16.7,4.5-15.8,7.6-32.2,12.6"/>
	<path class="st0" d="M-66.6,17.8c-16.7,4.5-16.4,5.5-33,10.2"/>
	<path class="st0" d="M-66.6,17.8c-16.7,4.5-16.9,3.4-33.6,7.7"/>
	<path class="st0" d="M-66.6,17.8c-16.7,4.5-17.4,1.3-34.2,5.2"/>
	<path class="st0" d="M-66.6,17.8c-16.7,4.5-17.9-0.8-34.8,2.6"/>
	<path class="st0" d="M-68.7,6c-17.2,1.5-16.5,6.8-33.6,9.4"/>
	<path class="st0" d="M-68.7,6c-17.2,1.5-16.8,4.7-33.9,6.9"/>
	<path class="st0" d="M-68.7,6c-17.2,1.5-17.1,2.6-34.2,4.3"/>
	<path class="st0" d="M-68.7,6C-85.9,7.5-86,6.4-103.2,7.7"/>
	<path class="st0" d="M-68.7,6c-17.2,1.5-17.4-1.7-34.6-0.9"/>
	<path class="st0" d="M-68.7,6c-17.2,1.5-17.5-3.9-34.7-3.4"/>
	<path class="st0" d="M-68.7-6c-17.2-1.5-17.5,3.9-34.7,3.4"/>
	<path class="st0" d="M-68.7-6c-17.2-1.5-17.4,1.7-34.6,0.9"/>
	<path class="st0" d="M-68.7-6C-85.9-7.5-86-6.4-103.2-7.7"/>
	<path class="st0" d="M-68.7-6c-17.2-1.5-17.1-2.6-34.2-4.3"/>
	<path class="st0" d="M-68.7-6c-17.2-1.5-16.8-4.7-33.9-6.9"/>
	<path class="st0" d="M-68.7-6c-17.2-1.5-16.5-6.8-33.6-9.4"/>
	<path class="st0" d="M-66.6-17.8c-16.7-4.5-17.9,0.8-34.8-2.6"/>
	<path class="st0" d="M-66.6-17.8c-16.7-4.5-17.4-1.3-34.2-5.2"/>
	<path class="st0" d="M-66.6-17.8c-16.7-4.5-16.9-3.4-33.6-7.7"/>
	<path class="st0" d="M-66.6-17.8c-16.7-4.5-16.4-5.5-33-10.2"/>
	<path class="st0" d="M-66.6-17.8c-16.7-4.5-15.8-7.6-32.2-12.6"/>
	<path class="st0" d="M-66.6-17.8c-16.7-4.5-15.1-9.6-31.4-15.1"/>
	<path class="st0" d="M-62.5-29.1c-15.6-7.3-17.7-2.3-33.8-8.6"/>
	<path class="st0" d="M-62.5-29.1c-15.6-7.3-16.9-4.3-32.8-11"/>
	<path class="st0" d="M-62.5-29.1c-15.6-7.3-16.1-6.3-31.8-13.4"/>
	<path class="st0" d="M-62.5-29.1c-15.6-7.3-15.2-8.3-30.7-15.7"/>
	<path class="st0" d="M-62.5-29.1c-15.6-7.3-14.2-10.2-29.6-18"/>
	<path class="st0" d="M-62.5-29.1c-15.6-7.3-13.2-12.1-28.3-20.3"/>
	<path class="st0" d="M-56.5-39.6c-14.1-9.9-17.1-5.4-31.8-14.4"/>
	<path class="st0" d="M-56.5-39.6c-14.1-9.9-15.9-7.2-30.4-16.6"/>
	<path class="st0" d="M-56.5-39.6c-14.1-9.9-14.7-9-29-18.7"/>
	<path class="st0" d="M-56.5-39.6C-70.6-49.4-70-50.3-84-60.4"/>
	<path class="st0" d="M-56.5-39.6c-14.1-9.9-12.2-12.5-26-22.9"/>
	<path class="st0" d="M-56.5-39.6c-14.1-9.9-10.9-14.2-24.4-24.9"/>
	<path class="st0" d="M-48.8-48.8C-61-61-64.6-57-77.6-68.5"/>
	<path class="st0" d="M-48.8-48.8C-61-61-63.2-58.6-75.8-70.4"/>
	<path class="st0" d="M-48.8-48.8C-61-61-61.7-60.2-74.1-72.2"/>
	<path class="st0" d="M-48.8-48.8C-61-61-60.2-61.7-72.2-74.1"/>
	<path class="st0" d="M-48.8-48.8C-61-61-58.6-63.2-70.4-75.8"/>
	<path class="st0" d="M-48.8-48.8C-61-61-57-64.6-68.5-77.6"/>
	<path class="st0" d="M-39.6-56.5c-9.9-14.1-14.2-10.9-24.9-24.4"/>
	<path class="st0" d="M-39.6-56.5c-9.9-14.1-12.5-12.2-22.9-26"/>
	<path class="st0" d="M-39.6-56.5C-49.4-70.6-50.3-70-60.4-84"/>
	<path class="st0" d="M-39.6-56.5c-9.9-14.1-9-14.7-18.7-29"/>
	<path class="st0" d="M-39.6-56.5c-9.9-14.1-7.2-15.9-16.6-30.4"/>
	<path class="st0" d="M-39.6-56.5c-9.9-14.1-5.4-17.1-14.4-31.8"/>
	<path class="st0" d="M-29.1-62.5c-7.3-15.6-12.1-13.2-20.3-28.3"/>
	<path class="st0" d="M-29.1-62.5c-7.3-15.6-10.2-14.2-18-29.6"/>
	<path class="st0" d="M-29.1-62.5c-7.3-15.6-8.3-15.2-15.7-30.7"/>
	<path class="st0" d="M-29.1-62.5c-7.3-15.6-6.3-16.1-13.4-31.8"/>
	<path class="st0" d="M-29.1-62.5c-7.3-15.6-4.3-16.9-11-32.8"/>
	<path class="st0" d="M-29.1-62.5c-7.3-15.6-2.3-17.7-8.6-33.8"/>
	<path class="st0" d="M-17.8-66.6c-4.5-16.7-9.6-15.1-15.1-31.4"/>
	<path class="st0" d="M-17.8-66.6c-4.5-16.7-7.6-15.8-12.6-32.2"/>
	<path class="st0" d="M-17.8-66.6c-4.5-16.7-5.5-16.4-10.2-33"/>
	<path class="st0" d="M-17.8-66.6c-4.5-16.7-3.4-16.9-7.7-33.6"/>
	<path class="st0" d="M-17.8-66.6c-4.5-16.7-1.3-17.4-5.2-34.2"/>
	<path class="st0" d="M-17.8-66.6c-4.5-16.7,0.8-17.9-2.6-34.8"/>
	<path class="st0" d="M-6-68.7c-1.5-17.2-6.8-16.5-9.4-33.6"/>
	<path class="st0" d="M-6-68.7c-1.5-17.2-4.7-16.8-6.9-33.9"/>
	<path class="st0" d="M-6-68.7c-1.5-17.2-2.6-17.1-4.3-34.2"/>
	<path class="st0" d="M-6-68.7C-7.5-85.9-6.4-86-7.7-103.2"/>
	<path class="st0" d="M-6-68.7c-1.5-17.2,1.7-17.4,0.9-34.6"/>
	<path class="st0" d="M-6-68.7c-1.5-17.2,3.9-17.5,3.4-34.7"/>
</g>
<g transform="translate(150,150)">
	<path class="st0" d="M0,0c0,17.2,8.6-14.9,17.2-29.9"/>
	<path class="st0" d="M0,0c0,17.2,17.2,0,34.5,0"/>
	<path class="st0" d="M0,0c0,17.2,8.6,14.9,17.2,29.9"/>
	<path class="st0" d="M0,0c0,17.2-8.6,14.9-17.2,29.9"/>
	<path class="st0" d="M0,0c0,17.2-17.2,0-34.5,0"/>
	<path class="st0" d="M0,0c0,17.2-8.6-14.9-17.2-29.9"/>
	<path class="st0" d="M17.2-29.9C25.9-44.8,4.5-51.5,6-68.7"/>
	<path class="st0" d="M17.2-29.9c8.6-14.9-3.9-20.1,0.6-36.8"/>
	<path class="st0" d="M17.2-29.9c8.6-14.9,4.6-17,11.9-32.6"/>
	<path class="st0" d="M17.2-29.9c8.6-14.9,12.4-12.5,22.3-26.6"/>
	<path class="st0" d="M17.2-29.9c8.6-14.9,19.3-6.7,31.5-18.9"/>
	<path class="st0" d="M17.2-29.9c8.6-14.9,25.1,0.2,39.3-9.7"/>
	<path class="st0" d="M34.5,0c17.2,0,12.4-21.9,28-29.1"/>
	<path class="st0" d="M34.5,0C51.7,0,50-13.4,66.6-17.8"/>
	<path class="st0" d="M34.5,0c17.2,0,17-4.5,34.2-6"/>
	<path class="st0" d="M34.5,0c17.2,0,17,4.5,34.2,6"/>
	<path class="st0" d="M34.5,0C51.7,0,50,13.4,66.6,17.8"/>
	<path class="st0" d="M34.5,0c17.2,0,12.4,21.9,28,29.1"/>
	<path class="st0" d="M17.2,29.9c8.6,14.9,25.1-0.2,39.3,9.7"/>
	<path class="st0" d="M17.2,29.9c8.6,14.9,19.3,6.7,31.5,18.9"/>
	<path class="st0" d="M17.2,29.9c8.6,14.9,12.4,12.5,22.3,26.6"/>
	<path class="st0" d="M17.2,29.9c8.6,14.9,4.6,17,11.9,32.6"/>
	<path class="st0" d="M17.2,29.9c8.6,14.9-3.9,20.1,0.6,36.8"/>
	<path class="st0" d="M17.2,29.9C25.9,44.8,4.5,51.5,6,68.7"/>
	<path class="st0" d="M-17.2,29.9C-25.9,44.8-4.5,51.5-6,68.7"/>
	<path class="st0" d="M-17.2,29.9c-8.6,14.9,3.9,20.1-0.6,36.8"/>
	<path class="st0" d="M-17.2,29.9c-8.6,14.9-4.6,17-11.9,32.6"/>
	<path class="st0" d="M-17.2,29.9c-8.6,14.9-12.4,12.5-22.3,26.6"/>
	<path class="st0" d="M-17.2,29.9c-8.6,14.9-19.3,6.7-31.5,18.9"/>
	<path class="st0" d="M-17.2,29.9c-8.6,14.9-25.1-0.2-39.3,9.7"/>
	<path class="st0" d="M-34.5,0c-17.2,0-12.4,21.9-28,29.1"/>
	<path class="st0" d="M-34.5,0C-51.7,0-50,13.4-66.6,17.8"/>
	<path class="st0" d="M-34.5,0c-17.2,0-17,4.5-34.2,6"/>
	<path class="st0" d="M-34.5,0c-17.2,0-17-4.5-34.2-6"/>
	<path class="st0" d="M-34.5,0C-51.7,0-50-13.4-66.6-17.8"/>
	<path class="st0" d="M-34.5,0c-17.2,0-12.4-21.9-28-29.1"/>
	<path class="st0" d="M-17.2-29.9c-8.6-14.9-25.1,0.2-39.3-9.7"/>
	<path class="st0" d="M-17.2-29.9c-8.6-14.9-19.3-6.7-31.5-18.9"/>
	<path class="st0" d="M-17.2-29.9c-8.6-14.9-12.4-12.5-22.3-26.6"/>
	<path class="st0" d="M-17.2-29.9c-8.6-14.9-4.6-17-11.9-32.6"/>
	<path class="st0" d="M-17.2-29.9c-8.6-14.9,3.9-20.1-0.6-36.8"/>
	<path class="st0" d="M-17.2-29.9C-25.9-44.8-4.5-51.5-6-68.7"/>
	<path class="st0" d="M6-68.7c1.5-17.2-3.9-17.5-3.4-34.7"/>
	<path class="st0" d="M6-68.7c1.5-17.2-1.7-17.4-0.9-34.6"/>
	<path class="st0" d="M6-68.7C7.5-85.9,6.4-86,7.7-103.2"/>
	<path class="st0" d="M6-68.7c1.5-17.2,2.6-17.1,4.3-34.2"/>
	<path class="st0" d="M6-68.7c1.5-17.2,4.7-16.8,6.9-33.9"/>
	<path class="st0" d="M6-68.7c1.5-17.2,6.8-16.5,9.4-33.6"/>
	<path class="st0" d="M17.8-66.6c4.5-16.7-0.8-17.9,2.6-34.8"/>
	<path class="st0" d="M17.8-66.6c4.5-16.7,1.3-17.4,5.2-34.2"/>
	<path class="st0" d="M17.8-66.6c4.5-16.7,3.4-16.9,7.7-33.6"/>
	<path class="st0" d="M17.8-66.6c4.5-16.7,5.5-16.4,10.2-33"/>
	<path class="st0" d="M17.8-66.6c4.5-16.7,7.6-15.8,12.6-32.2"/>
	<path class="st0" d="M17.8-66.6c4.5-16.7,9.6-15.1,15.1-31.4"/>
	<path class="st0" d="M29.1-62.5c7.3-15.6,2.3-17.7,8.6-33.8"/>
	<path class="st0" d="M29.1-62.5c7.3-15.6,4.3-16.9,11-32.8"/>
	<path class="st0" d="M29.1-62.5c7.3-15.6,6.3-16.1,13.4-31.8"/>
	<path class="st0" d="M29.1-62.5c7.3-15.6,8.3-15.2,15.7-30.7"/>
	<path class="st0" d="M29.1-62.5c7.3-15.6,10.2-14.2,18-29.6"/>
	<path class="st0" d="M29.1-62.5c7.3-15.6,12.1-13.2,20.3-28.3"/>
	<path class="st0" d="M39.6-56.5c9.9-14.1,5.4-17.1,14.4-31.8"/>
	<path class="st0" d="M39.6-56.5c9.9-14.1,7.2-15.9,16.6-30.4"/>
	<path class="st0" d="M39.6-56.5c9.9-14.1,9-14.7,18.7-29"/>
	<path class="st0" d="M39.6-56.5C49.4-70.6,50.3-70,60.4-84"/>
	<path class="st0" d="M39.6-56.5c9.9-14.1,12.5-12.2,22.9-26"/>
	<path class="st0" d="M39.6-56.5c9.9-14.1,14.2-10.9,24.9-24.4"/>
	<path class="st0" d="M48.8-48.8C61-61,57-64.6,68.5-77.6"/>
	<path class="st0" d="M48.8-48.8C61-61,58.6-63.2,70.4-75.8"/>
	<path class="st0" d="M48.8-48.8C61-61,60.2-61.7,72.2-74.1"/>
	<path class="st0" d="M48.8-48.8C61-61,61.7-60.2,74.1-72.2"/>
	<path class="st0" d="M48.8-48.8C61-61,63.2-58.6,75.8-70.4"/>
	<path class="st0" d="M48.8-48.8C61-61,64.6-57,77.6-68.5"/>
	<path class="st0" d="M56.5-39.6c14.1-9.9,10.9-14.2,24.4-24.9"/>
	<path class="st0" d="M56.5-39.6c14.1-9.9,12.2-12.5,26-22.9"/>
	<path class="st0" d="M56.5-39.6C70.6-49.4,70-50.3,84-60.4"/>
	<path class="st0" d="M56.5-39.6c14.1-9.9,14.7-9,29-18.7"/>
	<path class="st0" d="M56.5-39.6c14.1-9.9,15.9-7.2,30.4-16.6"/>
	<path class="st0" d="M56.5-39.6c14.1-9.9,17.1-5.4,31.8-14.4"/>
	<path class="st0" d="M62.5-29.1c15.6-7.3,13.2-12.1,28.3-20.3"/>
	<path class="st0" d="M62.5-29.1c15.6-7.3,14.2-10.2,29.6-18"/>
	<path class="st0" d="M62.5-29.1c15.6-7.3,15.2-8.3,30.7-15.7"/>
	<path class="st0" d="M62.5-29.1c15.6-7.3,16.1-6.3,31.8-13.4"/>
	<path class="st0" d="M62.5-29.1c15.6-7.3,16.9-4.3,32.8-11"/>
	<path class="st0" d="M62.5-29.1c15.6-7.3,17.7-2.3,33.8-8.6"/>
	<path class="st0" d="M66.6-17.8c16.7-4.5,15.1-9.6,31.4-15.1"/>
	<path class="st0" d="M66.6-17.8c16.7-4.5,15.8-7.6,32.2-12.6"/>
	<path class="st0" d="M66.6-17.8c16.7-4.5,16.4-5.5,33-10.2"/>
	<path class="st0" d="M66.6-17.8c16.7-4.5,16.9-3.4,33.6-7.7"/>
	<path class="st0" d="M66.6-17.8c16.7-4.5,17.4-1.3,34.2-5.2"/>
	<path class="st0" d="M66.6-17.8c16.7-4.5,17.9,0.8,34.8-2.6"/>
	<path class="st0" d="M68.7-6c17.2-1.5,16.5-6.8,33.6-9.4"/>
	<path class="st0" d="M68.7-6c17.2-1.5,16.8-4.7,33.9-6.9"/>
	<path class="st0" d="M68.7-6c17.2-1.5,17.1-2.6,34.2-4.3"/>
	<path class="st0" d="M68.7-6C85.9-7.5,86-6.4,103.2-7.7"/>
	<path class="st0" d="M68.7-6c17.2-1.5,17.4,1.7,34.6,0.9"/>
	<path class="st0" d="M68.7-6c17.2-1.5,17.5,3.9,34.7,3.4"/>
	<path class="st0" d="M68.7,6c17.2,1.5,17.5-3.9,34.7-3.4"/>
	<path class="st0" d="M68.7,6c17.2,1.5,17.4-1.7,34.6-0.9"/>
	<path class="st0" d="M68.7,6C85.9,7.5,86,6.4,103.2,7.7"/>
	<path class="st0" d="M68.7,6c17.2,1.5,17.1,2.6,34.2,4.3"/>
	<path class="st0" d="M68.7,6c17.2,1.5,16.8,4.7,33.9,6.9"/>
	<path class="st0" d="M68.7,6c17.2,1.5,16.5,6.8,33.6,9.4"/>
	<path class="st0" d="M66.6,17.8c16.7,4.5,17.9-0.8,34.8,2.6"/>
	<path class="st0" d="M66.6,17.8c16.7,4.5,17.4,1.3,34.2,5.2"/>
	<path class="st0" d="M66.6,17.8c16.7,4.5,16.9,3.4,33.6,7.7"/>
	<path class="st0" d="M66.6,17.8c16.7,4.5,16.4,5.5,33,10.2"/>
	<path class="st0" d="M66.6,17.8c16.7,4.5,15.8,7.6,32.2,12.6"/>
	<path class="st0" d="M66.6,17.8c16.7,4.5,15.1,9.6,31.4,15.1"/>
	<path class="st0" d="M62.5,29.1c15.6,7.3,17.7,2.3,33.8,8.6"/>
	<path class="st0" d="M62.5,29.1c15.6,7.3,16.9,4.3,32.8,11"/>
	<path class="st0" d="M62.5,29.1c15.6,7.3,16.1,6.3,31.8,13.4"/>
	<path class="st0" d="M62.5,29.1c15.6,7.3,15.2,8.3,30.7,15.7"/>
	<path class="st0" d="M62.5,29.1c15.6,7.3,14.2,10.2,29.6,18"/>
	<path class="st0" d="M62.5,29.1c15.6,7.3,13.2,12.1,28.3,20.3"/>
	<path class="st0" d="M56.5,39.6c14.1,9.9,17.1,5.4,31.8,14.4"/>
	<path class="st0" d="M56.5,39.6c14.1,9.9,15.9,7.2,30.4,16.6"/>
	<path class="st0" d="M56.5,39.6c14.1,9.9,14.7,9,29,18.7"/>
	<path class="st0" d="M56.5,39.6C70.6,49.4,70,50.3,84,60.4"/>
	<path class="st0" d="M56.5,39.6c14.1,9.9,12.2,12.5,26,22.9"/>
	<path class="st0" d="M56.5,39.6c14.1,9.9,10.9,14.2,24.4,24.9"/>
	<path class="st0" d="M48.8,48.8C61,61,64.6,57,77.6,68.5"/>
	<path class="st0" d="M48.8,48.8C61,61,63.2,58.6,75.8,70.4"/>
	<path class="st0" d="M48.8,48.8C61,61,61.7,60.2,74.1,72.2"/>
	<path class="st0" d="M48.8,48.8C61,61,60.2,61.7,72.2,74.1"/>
	<path class="st0" d="M48.8,48.8C61,61,58.6,63.2,70.4,75.8"/>
	<path class="st0" d="M48.8,48.8C61,61,57,64.6,68.5,77.6"/>
	<path class="st0" d="M39.6,56.5c9.9,14.1,14.2,10.9,24.9,24.4"/>
	<path class="st0" d="M39.6,56.5c9.9,14.1,12.5,12.2,22.9,26"/>
	<path class="st0" d="M39.6,56.5C49.4,70.6,50.3,70,60.4,84"/>
	<path class="st0" d="M39.6,56.5c9.9,14.1,9,14.7,18.7,29"/>
	<path class="st0" d="M39.6,56.5c9.9,14.1,7.2,15.9,16.6,30.4"/>
	<path class="st0" d="M39.6,56.5c9.9,14.1,5.4,17.1,14.4,31.8"/>
	<path class="st0" d="M29.1,62.5c7.3,15.6,12.1,13.2,20.3,28.3"/>
	<path class="st0" d="M29.1,62.5c7.3,15.6,10.2,14.2,18,29.6"/>
	<path class="st0" d="M29.1,62.5c7.3,15.6,8.3,15.2,15.7,30.7"/>
	<path class="st0" d="M29.1,62.5c7.3,15.6,6.3,16.1,13.4,31.8"/>
	<path class="st0" d="M29.1,62.5c7.3,15.6,4.3,16.9,11,32.8"/>
	<path class="st0" d="M29.1,62.5c7.3,15.6,2.3,17.7,8.6,33.8"/>
	<path class="st0" d="M17.8,66.6c4.5,16.7,9.6,15.1,15.1,31.4"/>
	<path class="st0" d="M17.8,66.6c4.5,16.7,7.6,15.8,12.6,32.2"/>
	<path class="st0" d="M17.8,66.6c4.5,16.7,5.5,16.4,10.2,33"/>
	<path class="st0" d="M17.8,66.6c4.5,16.7,3.4,16.9,7.7,33.6"/>
	<path class="st0" d="M17.8,66.6c4.5,16.7,1.3,17.4,5.2,34.2"/>
	<path class="st0" d="M17.8,66.6c4.5,16.7-0.8,17.9,2.6,34.8"/>
	<path class="st0" d="M6,68.7c1.5,17.2,6.8,16.5,9.4,33.6"/>
	<path class="st0" d="M6,68.7c1.5,17.2,4.7,16.8,6.9,33.9"/>
	<path class="st0" d="M6,68.7c1.5,17.2,2.6,17.1,4.3,34.2"/>
	<path class="st0" d="M6,68.7C7.5,85.9,6.4,86,7.7,103.2"/>
	<path class="st0" d="M6,68.7c1.5,17.2-1.7,17.4-0.9,34.6"/>
	<path class="st0" d="M6,68.7c1.5,17.2-3.9,17.5-3.4,34.7"/>
	<path class="st0" d="M-6,68.7c-1.5,17.2,3.9,17.5,3.4,34.7"/>
	<path class="st0" d="M-6,68.7c-1.5,17.2,1.7,17.4,0.9,34.6"/>
	<path class="st0" d="M-6,68.7C-7.5,85.9-6.4,86-7.7,103.2"/>
	<path class="st0" d="M-6,68.7c-1.5,17.2-2.6,17.1-4.3,34.2"/>
	<path class="st0" d="M-6,68.7c-1.5,17.2-4.7,16.8-6.9,33.9"/>
	<path class="st0" d="M-6,68.7c-1.5,17.2-6.8,16.5-9.4,33.6"/>
	<path class="st0" d="M-17.8,66.6c-4.5,16.7,0.8,17.9-2.6,34.8"/>
	<path class="st0" d="M-17.8,66.6c-4.5,16.7-1.3,17.4-5.2,34.2"/>
	<path class="st0" d="M-17.8,66.6c-4.5,16.7-3.4,16.9-7.7,33.6"/>
	<path class="st0" d="M-17.8,66.6c-4.5,16.7-5.5,16.4-10.2,33"/>
	<path class="st0" d="M-17.8,66.6c-4.5,16.7-7.6,15.8-12.6,32.2"/>
	<path class="st0" d="M-17.8,66.6c-4.5,16.7-9.6,15.1-15.1,31.4"/>
	<path class="st0" d="M-29.1,62.5c-7.3,15.6-2.3,17.7-8.6,33.8"/>
	<path class="st0" d="M-29.1,62.5c-7.3,15.6-4.3,16.9-11,32.8"/>
	<path class="st0" d="M-29.1,62.5c-7.3,15.6-6.3,16.1-13.4,31.8"/>
	<path class="st0" d="M-29.1,62.5c-7.3,15.6-8.3,15.2-15.7,30.7"/>
	<path class="st0" d="M-29.1,62.5c-7.3,15.6-10.2,14.2-18,29.6"/>
	<path class="st0" d="M-29.1,62.5c-7.3,15.6-12.1,13.2-20.3,28.3"/>
	<path class="st0" d="M-39.6,56.5c-9.9,14.1-5.4,17.1-14.4,31.8"/>
	<path class="st0" d="M-39.6,56.5c-9.9,14.1-7.2,15.9-16.6,30.4"/>
	<path class="st0" d="M-39.6,56.5c-9.9,14.1-9,14.7-18.7,29"/>
	<path class="st0" d="M-39.6,56.5C-49.4,70.6-50.3,70-60.4,84"/>
	<path class="st0" d="M-39.6,56.5c-9.9,14.1-12.5,12.2-22.9,26"/>
	<path class="st0" d="M-39.6,56.5c-9.9,14.1-14.2,10.9-24.9,24.4"/>
	<path class="st0" d="M-48.8,48.8C-61,61-57,64.6-68.5,77.6"/>
	<path class="st0" d="M-48.8,48.8C-61,61-58.6,63.2-70.4,75.8"/>
	<path class="st0" d="M-48.8,48.8C-61,61-60.2,61.7-72.2,74.1"/>
	<path class="st0" d="M-48.8,48.8C-61,61-61.7,60.2-74.1,72.2"/>
	<path class="st0" d="M-48.8,48.8C-61,61-63.2,58.6-75.8,70.4"/>
	<path class="st0" d="M-48.8,48.8C-61,61-64.6,57-77.6,68.5"/>
	<path class="st0" d="M-56.5,39.6c-14.1,9.9-10.9,14.2-24.4,24.9"/>
	<path class="st0" d="M-56.5,39.6c-14.1,9.9-12.2,12.5-26,22.9"/>
	<path class="st0" d="M-56.5,39.6C-70.6,49.4-70,50.3-84,60.4"/>
	<path class="st0" d="M-56.5,39.6c-14.1,9.9-14.7,9-29,18.7"/>
	<path class="st0" d="M-56.5,39.6c-14.1,9.9-15.9,7.2-30.4,16.6"/>
	<path class="st0" d="M-56.5,39.6c-14.1,9.9-17.1,5.4-31.8,14.4"/>
	<path class="st0" d="M-62.5,29.1c-15.6,7.3-13.2,12.1-28.3,20.3"/>
	<path class="st0" d="M-62.5,29.1c-15.6,7.3-14.2,10.2-29.6,18"/>
	<path class="st0" d="M-62.5,29.1c-15.6,7.3-15.2,8.3-30.7,15.7"/>
	<path class="st0" d="M-62.5,29.1c-15.6,7.3-16.1,6.3-31.8,13.4"/>
	<path class="st0" d="M-62.5,29.1c-15.6,7.3-16.9,4.3-32.8,11"/>
	<path class="st0" d="M-62.5,29.1c-15.6,7.3-17.7,2.3-33.8,8.6"/>
	<path class="st0" d="M-66.6,17.8c-16.7,4.5-15.1,9.6-31.4,15.1"/>
	<path class="st0" d="M-66.6,17.8c-16.7,4.5-15.8,7.6-32.2,12.6"/>
	<path class="st0" d="M-66.6,17.8c-16.7,4.5-16.4,5.5-33,10.2"/>
	<path class="st0" d="M-66.6,17.8c-16.7,4.5-16.9,3.4-33.6,7.7"/>
	<path class="st0" d="M-66.6,17.8c-16.7,4.5-17.4,1.3-34.2,5.2"/>
	<path class="st0" d="M-66.6,17.8c-16.7,4.5-17.9-0.8-34.8,2.6"/>
	<path class="st0" d="M-68.7,6c-17.2,1.5-16.5,6.8-33.6,9.4"/>
	<path class="st0" d="M-68.7,6c-17.2,1.5-16.8,4.7-33.9,6.9"/>
	<path class="st0" d="M-68.7,6c-17.2,1.5-17.1,2.6-34.2,4.3"/>
	<path class="st0" d="M-68.7,6C-85.9,7.5-86,6.4-103.2,7.7"/>
	<path class="st0" d="M-68.7,6c-17.2,1.5-17.4-1.7-34.6-0.9"/>
	<path class="st0" d="M-68.7,6c-17.2,1.5-17.5-3.9-34.7-3.4"/>
	<path class="st0" d="M-68.7-6c-17.2-1.5-17.5,3.9-34.7,3.4"/>
	<path class="st0" d="M-68.7-6c-17.2-1.5-17.4,1.7-34.6,0.9"/>
	<path class="st0" d="M-68.7-6C-85.9-7.5-86-6.4-103.2-7.7"/>
	<path class="st0" d="M-68.7-6c-17.2-1.5-17.1-2.6-34.2-4.3"/>
	<path class="st0" d="M-68.7-6c-17.2-1.5-16.8-4.7-33.9-6.9"/>
	<path class="st0" d="M-68.7-6c-17.2-1.5-16.5-6.8-33.6-9.4"/>
	<path class="st0" d="M-66.6-17.8c-16.7-4.5-17.9,0.8-34.8-2.6"/>
	<path class="st0" d="M-66.6-17.8c-16.7-4.5-17.4-1.3-34.2-5.2"/>
	<path class="st0" d="M-66.6-17.8c-16.7-4.5-16.9-3.4-33.6-7.7"/>
	<path class="st0" d="M-66.6-17.8c-16.7-4.5-16.4-5.5-33-10.2"/>
	<path class="st0" d="M-66.6-17.8c-16.7-4.5-15.8-7.6-32.2-12.6"/>
	<path class="st0" d="M-66.6-17.8c-16.7-4.5-15.1-9.6-31.4-15.1"/>
	<path class="st0" d="M-62.5-29.1c-15.6-7.3-17.7-2.3-33.8-8.6"/>
	<path class="st0" d="M-62.5-29.1c-15.6-7.3-16.9-4.3-32.8-11"/>
	<path class="st0" d="M-62.5-29.1c-15.6-7.3-16.1-6.3-31.8-13.4"/>
	<path class="st0" d="M-62.5-29.1c-15.6-7.3-15.2-8.3-30.7-15.7"/>
	<path class="st0" d="M-62.5-29.1c-15.6-7.3-14.2-10.2-29.6-18"/>
	<path class="st0" d="M-62.5-29.1c-15.6-7.3-13.2-12.1-28.3-20.3"/>
	<path class="st0" d="M-56.5-39.6c-14.1-9.9-17.1-5.4-31.8-14.4"/>
	<path class="st0" d="M-56.5-39.6c-14.1-9.9-15.9-7.2-30.4-16.6"/>
	<path class="st0" d="M-56.5-39.6c-14.1-9.9-14.7-9-29-18.7"/>
	<path class="st0" d="M-56.5-39.6C-70.6-49.4-70-50.3-84-60.4"/>
	<path class="st0" d="M-56.5-39.6c-14.1-9.9-12.2-12.5-26-22.9"/>
	<path class="st0" d="M-56.5-39.6c-14.1-9.9-10.9-14.2-24.4-24.9"/>
	<path class="st0" d="M-48.8-48.8C-61-61-64.6-57-77.6-68.5"/>
	<path class="st0" d="M-48.8-48.8C-61-61-63.2-58.6-75.8-70.4"/>
	<path class="st0" d="M-48.8-48.8C-61-61-61.7-60.2-74.1-72.2"/>
	<path class="st0" d="M-48.8-48.8C-61-61-60.2-61.7-72.2-74.1"/>
	<path class="st0" d="M-48.8-48.8C-61-61-58.6-63.2-70.4-75.8"/>
	<path class="st0" d="M-48.8-48.8C-61-61-57-64.6-68.5-77.6"/>
	<path class="st0" d="M-39.6-56.5c-9.9-14.1-14.2-10.9-24.9-24.4"/>
	<path class="st0" d="M-39.6-56.5c-9.9-14.1-12.5-12.2-22.9-26"/>
	<path class="st0" d="M-39.6-56.5C-49.4-70.6-50.3-70-60.4-84"/>
	<path class="st0" d="M-39.6-56.5c-9.9-14.1-9-14.7-18.7-29"/>
	<path class="st0" d="M-39.6-56.5c-9.9-14.1-7.2-15.9-16.6-30.4"/>
	<path class="st0" d="M-39.6-56.5c-9.9-14.1-5.4-17.1-14.4-31.8"/>
	<path class="st0" d="M-29.1-62.5c-7.3-15.6-12.1-13.2-20.3-28.3"/>
	<path class="st0" d="M-29.1-62.5c-7.3-15.6-10.2-14.2-18-29.6"/>
	<path class="st0" d="M-29.1-62.5c-7.3-15.6-8.3-15.2-15.7-30.7"/>
	<path class="st0" d="M-29.1-62.5c-7.3-15.6-6.3-16.1-13.4-31.8"/>
	<path class="st0" d="M-29.1-62.5c-7.3-15.6-4.3-16.9-11-32.8"/>
	<path class="st0" d="M-29.1-62.5c-7.3-15.6-2.3-17.7-8.6-33.8"/>
	<path class="st0" d="M-17.8-66.6c-4.5-16.7-9.6-15.1-15.1-31.4"/>
	<path class="st0" d="M-17.8-66.6c-4.5-16.7-7.6-15.8-12.6-32.2"/>
	<path class="st0" d="M-17.8-66.6c-4.5-16.7-5.5-16.4-10.2-33"/>
	<path class="st0" d="M-17.8-66.6c-4.5-16.7-3.4-16.9-7.7-33.6"/>
	<path class="st0" d="M-17.8-66.6c-4.5-16.7-1.3-17.4-5.2-34.2"/>
	<path class="st0" d="M-17.8-66.6c-4.5-16.7,0.8-17.9-2.6-34.8"/>
	<path class="st0" d="M-6-68.7c-1.5-17.2-6.8-16.5-9.4-33.6"/>
	<path class="st0" d="M-6-68.7c-1.5-17.2-4.7-16.8-6.9-33.9"/>
	<path class="st0" d="M-6-68.7c-1.5-17.2-2.6-17.1-4.3-34.2"/>
	<path class="st0" d="M-6-68.7C-7.5-85.9-6.4-86-7.7-103.2"/>
	<path class="st0" d="M-6-68.7c-1.5-17.2,1.7-17.4,0.9-34.6"/>
	<path class="st0" d="M-6-68.7c-1.5-17.2,3.9-17.5,3.4-34.7"/>
</g>
<g transform="translate(150,150)">
	<circle class="st4" cx="0" cy="0" r="5"/>
	<circle class="st4" cx="17.2" cy="-29.9" r="5"/>
	<circle class="st4" cx="34.5" cy="0" r="5"/>
	<circle class="st4" cx="17.2" cy="29.9" r="5"/>
	<circle class="st4" cx="-17.2" cy="29.9" r="5"/>
	<circle class="st4" cx="-34.5" cy="0" r="5"/>
	<circle class="st4" cx="-17.2" cy="-29.9" r="5"/>
	<circle class="st4" cx="6" cy="-68.7" r="5"/>
	<circle class="st4" cx="17.8" cy="-66.6" r="5"/>
	<circle class="st4" cx="29.1" cy="-62.5" r="5"/>
	<circle class="st4" cx="39.6" cy="-56.5" r="5"/>
	<circle class="st4" cx="48.8" cy="-48.8" r="5"/>
	<circle class="st4" cx="56.5" cy="-39.6" r="5"/>
	<circle class="st4" cx="62.5" cy="-29.1" r="5"/>
	<circle class="st4" cx="66.6" cy="-17.8" r="5"/>
	<circle class="st4" cx="68.7" cy="-6" r="5"/>
	<circle class="st4" cx="68.7" cy="6" r="5"/>
	<circle class="st4" cx="66.6" cy="17.8" r="5"/>
	<circle class="st4" cx="62.5" cy="29.1" r="5"/>
	<circle class="st4" cx="56.5" cy="39.6" r="5"/>
	<circle class="st4" cx="48.8" cy="48.8" r="5"/>
	<circle class="st4" cx="39.6" cy="56.5" r="5"/>
	<circle class="st4" cx="29.1" cy="62.5" r="5"/>
	<circle class="st4" cx="17.8" cy="66.6" r="5"/>
	<circle class="st4" cx="6" cy="68.7" r="5"/>
	<circle class="st4" cx="-6" cy="68.7" r="5"/>
	<circle class="st4" cx="-17.8" cy="66.6" r="5"/>
	<circle class="st4" cx="-29.1" cy="62.5" r="5"/>
	<circle class="st4" cx="-39.6" cy="56.5" r="5"/>
	<circle class="st4" cx="-48.8" cy="48.8" r="5"/>
	<circle class="st4" cx="-56.5" cy="39.6" r="5"/>
	<circle class="st4" cx="-62.5" cy="29.1" r="5"/>
	<circle class="st4" cx="-66.6" cy="17.8" r="5"/>
	<circle class="st4" cx="-68.7" cy="6" r="5"/>
	<circle class="st4" cx="-68.7" cy="-6" r="5"/>
	<circle class="st4" cx="-66.6" cy="-17.8" r="5"/>
	<circle class="st4" cx="-62.5" cy="-29.1" r="5"/>
	<circle class="st4" cx="-56.5" cy="-39.6" r="5"/>
	<circle class="st4" cx="-48.8" cy="-48.8" r="5"/>
	<circle class="st4" cx="-39.6" cy="-56.5" r="5"/>
	<circle class="st4" cx="-29.1" cy="-62.5" r="5"/>
	<circle class="st4" cx="-17.8" cy="-66.6" r="5"/>
	<circle class="st4" cx="-6" cy="-68.7" r="5"/>
	<circle class="st4" cx="2.6" cy="-103.4" r="5"/>
	<circle class="st4" cx="5.2" cy="-103.3" r="5"/>
	<circle class="st4" cx="7.7" cy="-103.2" r="5"/>
	<circle class="st4" cx="10.3" cy="-102.9" r="5"/>
	<circle class="st4" cx="12.9" cy="-102.6" r="5"/>
	<circle class="st4" cx="15.4" cy="-102.3" r="5"/>
	<circle class="st4" cx="20.5" cy="-101.4" r="5"/>
	<circle class="st4" cx="23" cy="-100.9" r="5"/>
	<circle class="st4" cx="25.5" cy="-100.2" r="5"/>
	<circle class="st4" cx="28" cy="-99.6" r="5"/>
	<circle class="st4" cx="30.5" cy="-98.9" r="5"/>
	<circle class="st4" cx="32.9" cy="-98.1" r="5"/>
	<circle class="st4" cx="37.8" cy="-96.3" r="5"/>
	<circle class="st4" cx="40.2" cy="-95.3" r="5"/>
	<circle class="st4" cx="42.5" cy="-94.3" r="5"/>
	<circle class="st4" cx="44.9" cy="-93.2" r="5"/>
	<circle class="st4" cx="47.2" cy="-92.1" r="5"/>
	<circle class="st4" cx="49.5" cy="-90.9" r="5"/>
	<circle class="st4" cx="53.9" cy="-88.3" r="5"/>
	<circle class="st4" cx="56.1" cy="-86.9" r="5"/>
	<circle class="st4" cx="58.3" cy="-85.5" r="5"/>
	<circle class="st4" cx="60.4" cy="-84" r="5"/>
	<circle class="st4" cx="62.5" cy="-82.5" r="5"/>
	<circle class="st4" cx="64.5" cy="-80.9" r="5"/>
	<circle class="st4" cx="68.5" cy="-77.6" r="5"/>
	<circle class="st4" cx="70.4" cy="-75.8" r="5"/>
	<circle class="st4" cx="72.2" cy="-74.1" r="5"/>
	<circle class="st4" cx="74.1" cy="-72.2" r="5"/>
	<circle class="st4" cx="75.8" cy="-70.4" r="5"/>
	<circle class="st4" cx="77.6" cy="-68.5" r="5"/>
	<circle class="st4" cx="80.9" cy="-64.5" r="5"/>
	<circle class="st4" cx="82.5" cy="-62.5" r="5"/>
	<circle class="st4" cx="84" cy="-60.4" r="5"/>
	<circle class="st4" cx="85.5" cy="-58.3" r="5"/>
	<circle class="st4" cx="86.9" cy="-56.1" r="5"/>
	<circle class="st4" cx="88.3" cy="-53.9" r="5"/>
	<circle class="st4" cx="90.9" cy="-49.5" r="5"/>
	<circle class="st4" cx="92.1" cy="-47.2" r="5"/>
	<circle class="st4" cx="93.2" cy="-44.9" r="5"/>
	<circle class="st4" cx="94.3" cy="-42.5" r="5"/>
	<circle class="st4" cx="95.3" cy="-40.2" r="5"/>
	<circle class="st4" cx="96.3" cy="-37.8" r="5"/>
	<circle class="st4" cx="98.1" cy="-32.9" r="5"/>
	<circle class="st4" cx="98.9" cy="-30.5" r="5"/>
	<circle class="st4" cx="99.6" cy="-28" r="5"/>
	<circle class="st4" cx="100.2" cy="-25.5" r="5"/>
	<circle class="st4" cx="100.9" cy="-23" r="5"/>
	<circle class="st4" cx="101.4" cy="-20.5" r="5"/>
	<circle class="st4" cx="102.3" cy="-15.4" r="5"/>
	<circle class="st4" cx="102.6" cy="-12.9" r="5"/>
	<circle class="st4" cx="102.9" cy="-10.3" r="5"/>
	<circle class="st4" cx="103.2" cy="-7.7" r="5"/>
	<circle class="st4" cx="103.3" cy="-5.2" r="5"/>
	<circle class="st4" cx="103.4" cy="-2.6" r="5"/>
	<circle class="st4" cx="103.4" cy="2.6" r="5"/>
	<circle class="st4" cx="103.3" cy="5.2" r="5"/>
	<circle class="st4" cx="103.2" cy="7.7" r="5"/>
	<circle class="st4" cx="102.9" cy="10.3" r="5"/>
	<circle class="st4" cx="102.6" cy="12.9" r="5"/>
	<circle class="st4" cx="102.3" cy="15.4" r="5"/>
	<circle class="st4" cx="101.4" cy="20.5" r="5"/>
	<circle class="st4" cx="100.9" cy="23" r="5"/>
	<circle class="st4" cx="100.2" cy="25.5" r="5"/>
	<circle class="st4" cx="99.6" cy="28" r="5"/>
	<circle class="st4" cx="98.9" cy="30.5" r="5"/>
	<circle class="st4" cx="98.1" cy="32.9" r="5"/>
	<circle class="st4" cx="96.3" cy="37.8" r="5"/>
	<circle class="st4" cx="95.3" cy="40.2" r="5"/>
	<circle class="st4" cx="94.3" cy="42.5" r="5"/>
	<circle class="st4" cx="93.2" cy="44.9" r="5"/>
	<circle class="st4" cx="92.1" cy="47.2" r="5"/>
	<circle class="st4" cx="90.9" cy="49.5" r="5"/>
	<circle class="st4" cx="88.3" cy="53.9" r="5"/>
	<circle class="st4" cx="86.9" cy="56.1" r="5"/>
	<circle class="st4" cx="85.5" cy="58.3" r="5"/>
	<circle class="st4" cx="84" cy="60.4" r="5"/>
	<circle class="st4" cx="82.5" cy="62.5" r="5"/>
	<circle class="st4" cx="80.9" cy="64.5" r="5"/>
	<circle class="st4" cx="77.6" cy="68.5" r="5"/>
	<circle class="st4" cx="75.8" cy="70.4" r="5"/>
	<circle class="st4" cx="74.1" cy="72.2" r="5"/>
	<circle class="st4" cx="72.2" cy="74.1" r="5"/>
	<circle class="st4" cx="70.4" cy="75.8" r="5"/>
	<circle class="st4" cx="68.5" cy="77.6" r="5"/>
	<circle class="st4" cx="64.5" cy="80.9" r="5"/>
	<circle class="st4" cx="62.5" cy="82.5" r="5"/>
	<circle class="st4" cx="60.4" cy="84" r="5"/>
	<circle class="st4" cx="58.3" cy="85.5" r="5"/>
	<circle class="st4" cx="56.1" cy="86.9" r="5"/>
	<circle class="st4" cx="53.9" cy="88.3" r="5"/>
	<circle class="st4" cx="49.5" cy="90.9" r="5"/>
	<circle class="st4" cx="47.2" cy="92.1" r="5"/>
	<circle class="st4" cx="44.9" cy="93.2" r="5"/>
	<circle class="st4" cx="42.5" cy="94.3" r="5"/>
	<circle class="st4" cx="40.2" cy="95.3" r="5"/>
	<circle class="st4" cx="37.8" cy="96.3" r="5"/>
	<circle class="st4" cx="32.9" cy="98.1" r="5"/>
	<circle class="st4" cx="30.5" cy="98.9" r="5"/>
	<circle class="st4" cx="28" cy="99.6" r="5"/>
	<circle class="st4" cx="25.5" cy="100.2" r="5"/>
	<circle class="st4" cx="23" cy="100.9" r="5"/>
	<circle class="st4" cx="20.5" cy="101.4" r="5"/>
	<circle class="st4" cx="15.4" cy="102.3" r="5"/>
	<circle class="st4" cx="12.9" cy="102.6" r="5"/>
	<circle class="st4" cx="10.3" cy="102.9" r="5"/>
	<circle class="st4" cx="7.7" cy="103.2" r="5"/>
	<circle class="st4" cx="5.2" cy="103.3" r="5"/>
	<circle class="st4" cx="2.6" cy="103.4" r="5"/>
	<circle class="st4" cx="-2.6" cy="103.4" r="5"/>
	<circle class="st4" cx="-5.2" cy="103.3" r="5"/>
	<circle class="st4" cx="-7.7" cy="103.2" r="5"/>
	<circle class="st4" cx="-10.3" cy="102.9" r="5"/>
	<circle class="st4" cx="-12.9" cy="102.6" r="5"/>
	<circle class="st4" cx="-15.4" cy="102.3" r="5"/>
	<circle class="st4" cx="-20.5" cy="101.4" r="5"/>
	<circle class="st4" cx="-23" cy="100.9" r="5"/>
	<circle class="st4" cx="-25.5" cy="100.2" r="5"/>
	<circle class="st4" cx="-28" cy="99.6" r="5"/>
	<circle class="st4" cx="-30.5" cy="98.9" r="5"/>
	<circle class="st4" cx="-32.9" cy="98.1" r="5"/>
	<circle class="st4" cx="-37.8" cy="96.3" r="5"/>
	<circle class="st4" cx="-40.2" cy="95.3" r="5"/>
	<circle class="st4" cx="-42.5" cy="94.3" r="5"/>
	<circle class="st4" cx="-44.9" cy="93.2" r="5"/>
	<circle class="st4" cx="-47.2" cy="92.1" r="5"/>
	<circle class="st4" cx="-49.5" cy="90.9" r="5"/>
	<circle class="st4" cx="-53.9" cy="88.3" r="5"/>
	<circle class="st4" cx="-56.1" cy="86.9" r="5"/>
	<circle class="st4" cx="-58.3" cy="85.5" r="5"/>
	<circle class="st4" cx="-60.4" cy="84" r="5"/>
	<circle class="st4" cx="-62.5" cy="82.5" r="5"/>
	<circle class="st4" cx="-64.5" cy="80.9" r="5"/>
	<circle class="st4" cx="-68.5" cy="77.6" r="5"/>
	<circle class="st4" cx="-70.4" cy="75.8" r="5"/>
	<circle class="st4" cx="-72.2" cy="74.1" r="5"/>
	<circle class="st4" cx="-74.1" cy="72.2" r="5"/>
	<circle class="st4" cx="-75.8" cy="70.4" r="5"/>
	<circle class="st4" cx="-77.6" cy="68.5" r="5"/>
	<circle class="st4" cx="-80.9" cy="64.5" r="5"/>
	<circle class="st4" cx="-82.5" cy="62.5" r="5"/>
	<circle class="st4" cx="-84" cy="60.4" r="5"/>
	<circle class="st4" cx="-85.5" cy="58.3" r="5"/>
	<circle class="st4" cx="-86.9" cy="56.1" r="5"/>
	<circle class="st4" cx="-88.3" cy="53.9" r="5"/>
	<circle class="st4" cx="-90.9" cy="49.5" r="5"/>
	<circle class="st4" cx="-92.1" cy="47.2" r="5"/>
	<circle class="st4" cx="-93.2" cy="44.9" r="5"/>
	<circle class="st4" cx="-94.3" cy="42.5" r="5"/>
	<circle class="st4" cx="-95.3" cy="40.2" r="5"/>
	<circle class="st4" cx="-96.3" cy="37.8" r="5"/>
	<circle class="st4" cx="-98.1" cy="32.9" r="5"/>
	<circle class="st4" cx="-98.9" cy="30.5" r="5"/>
	<circle class="st4" cx="-99.6" cy="28" r="5"/>
	<circle class="st4" cx="-100.2" cy="25.5" r="5"/>
	<circle class="st4" cx="-100.9" cy="23" r="5"/>
	<circle class="st4" cx="-101.4" cy="20.5" r="5"/>
	<circle class="st4" cx="-102.3" cy="15.4" r="5"/>
	<circle class="st4" cx="-102.6" cy="12.9" r="5"/>
	<circle class="st4" cx="-102.9" cy="10.3" r="5"/>
	<circle class="st4" cx="-103.2" cy="7.7" r="5"/>
	<circle class="st4" cx="-103.3" cy="5.2" r="5"/>
	<circle class="st4" cx="-103.4" cy="2.6" r="5"/>
	<circle class="st4" cx="-103.4" cy="-2.6" r="5"/>
	<circle class="st4" cx="-103.3" cy="-5.2" r="5"/>
	<circle class="st4" cx="-103.2" cy="-7.7" r="5"/>
	<circle class="st4" cx="-102.9" cy="-10.3" r="5"/>
	<circle class="st4" cx="-102.6" cy="-12.9" r="5"/>
	<circle class="st4" cx="-102.3" cy="-15.4" r="5"/>
	<circle class="st4" cx="-101.4" cy="-20.5" r="5"/>
	<circle class="st4" cx="-100.9" cy="-23" r="5"/>
	<circle class="st4" cx="-100.2" cy="-25.5" r="5"/>
	<circle class="st4" cx="-99.6" cy="-28" r="5"/>
	<circle class="st4" cx="-98.9" cy="-30.5" r="5"/>
	<circle class="st4" cx="-98.1" cy="-32.9" r="5"/>
	<circle class="st4" cx="-96.3" cy="-37.8" r="5"/>
	<circle class="st4" cx="-95.3" cy="-40.2" r="5"/>
	<circle class="st4" cx="-94.3" cy="-42.5" r="5"/>
	<circle class="st4" cx="-93.2" cy="-44.9" r="5"/>
	<circle class="st4" cx="-92.1" cy="-47.2" r="5"/>
	<circle class="st4" cx="-90.9" cy="-49.5" r="5"/>
	<circle class="st4" cx="-88.3" cy="-53.9" r="5"/>
	<circle class="st4" cx="-86.9" cy="-56.1" r="5"/>
	<circle class="st4" cx="-85.5" cy="-58.3" r="5"/>
	<circle class="st4" cx="-84" cy="-60.4" r="5"/>
	<circle class="st4" cx="-82.5" cy="-62.5" r="5"/>
	<circle class="st4" cx="-80.9" cy="-64.5" r="5"/>
	<circle class="st4" cx="-77.6" cy="-68.5" r="5"/>
	<circle class="st4" cx="-75.8" cy="-70.4" r="5"/>
	<circle class="st4" cx="-74.1" cy="-72.2" r="5"/>
	<circle class="st4" cx="-72.2" cy="-74.1" r="5"/>
	<circle class="st4" cx="-70.4" cy="-75.8" r="5"/>
	<circle class="st4" cx="-68.5" cy="-77.6" r="5"/>
	<circle class="st4" cx="-64.5" cy="-80.9" r="5"/>
	<circle class="st4" cx="-62.5" cy="-82.5" r="5"/>
	<circle class="st4" cx="-60.4" cy="-84" r="5"/>
	<circle class="st4" cx="-58.3" cy="-85.5" r="5"/>
	<circle class="st4" cx="-56.1" cy="-86.9" r="5"/>
	<circle class="st4" cx="-53.9" cy="-88.3" r="5"/>
	<circle class="st4" cx="-49.5" cy="-90.9" r="5"/>
	<circle class="st4" cx="-47.2" cy="-92.1" r="5"/>
	<circle class="st4" cx="-44.9" cy="-93.2" r="5"/>
	<circle class="st4" cx="-42.5" cy="-94.3" r="5"/>
	<circle class="st4" cx="-40.2" cy="-95.3" r="5"/>
	<circle class="st4" cx="-37.8" cy="-96.3" r="5"/>
	<circle class="st4" cx="-32.9" cy="-98.1" r="5"/>
	<circle class="st4" cx="-30.5" cy="-98.9" r="5"/>
	<circle class="st4" cx="-28" cy="-99.6" r="5"/>
	<circle class="st4" cx="-25.5" cy="-100.2" r="5"/>
	<circle class="st4" cx="-23" cy="-100.9" r="5"/>
	<circle class="st4" cx="-20.5" cy="-101.4" r="5"/>
	<circle class="st4" cx="-15.4" cy="-102.3" r="5"/>
	<circle class="st4" cx="-12.9" cy="-102.6" r="5"/>
	<circle class="st4" cx="-10.3" cy="-102.9" r="5"/>
	<circle class="st4" cx="-7.7" cy="-103.2" r="5"/>
	<circle class="st4" cx="-5.2" cy="-103.3" r="5"/>
	<circle class="st4" cx="-2.6" cy="-103.4" r="5"/>
</g>
</svg>
