<svg xmlns="http://www.w3.org/2000/svg" width="300" height="300" preserveAspectRatio="xMinYMin meet" viewBox="0 0 300 300" class="svg-content"><g transform="translate(150,150)" fill="none" stroke="#555" stroke-opacity="0.4" stroke-width="1.5"><path d="M0,0C2.8378377634609384,17.006229369012456,15.789195287156165,6.925783183671886,31.57839057431233,13.851566367343771"></path><path d="M0,0C2.8378377634609384,17.006229369012456,-12.684895011605715,11.677268476305887,-25.36979002321143,23.354536952611774"></path><path d="M31.57839057431233,13.851566367343771C47.3675858614685,20.777349551015657,47.3675858614685,20.777349551015657,63.15678114862466,27.703132734687543"></path><path d="M-25.36979002321143,23.354536952611774C-38.05468503481715,35.031805428917664,-38.05468503481715,35.031805428917664,-50.73958004642286,46.70907390522355"></path><path d="M63.15678114862466,27.703132734687543C78.94597643578084,34.62891591835943,78.94597643578084,34.62891591835943,94.735171722937,41.554699102031314"></path><path d="M-50.73958004642286,46.70907390522355C-63.42447505802858,58.386342381529445,-41.0299476756098,75.8167026902146,-49.235937210731755,90.9800432282575"></path><path d="M-50.73958004642286,46.70907390522355C-63.42447505802858,58.386342381529445,-78.94597643578085,34.628915918359404,-94.73517172293701,41.55469910203128"></path></g><g transform="translate(150,150)"><circle class="testing" style="display: block;" transform="rotate(80.52631578947367) translate(0,0)" fill="red" r="5"></circle><circle class="testing" style="display: block;" transform="rotate(23.68421052631578) translate(34.48275862068966,0)" fill="red" r="5"></circle><circle class="testing" style="display: block;" transform="rotate(137.36842105263156) translate(34.48275862068966,0)" fill="red" r="5"></circle><circle class="testing" style="display: block;" transform="rotate(23.68421052631578) translate(68.96551724137932,0)" fill="red" r="5"></circle><circle class="testing" style="display: block;" transform="rotate(137.36842105263156) translate(68.96551724137932,0)" fill="red" r="5"></circle><circle class="testing" style="display: block;" transform="rotate(23.68421052631578) translate(103.44827586206898,0)" fill="red" r="5"></circle><circle class="testing" style="display: block;" transform="rotate(118.42105263157896) translate(103.44827586206898,0)" fill="red" r="5"></circle><circle class="testing" style="display: block;" transform="rotate(156.31578947368425) translate(103.44827586206898,0)" fill="red" r="5"></circle></g><g transform="translate(150,150)" font-family="sans-serif" font-size="10" stroke-linejoin="round" stroke-width="3"><text class="testing" style="display: block;" transform="
			rotate(80.52631578947367) 
			translate(0,0) 
			rotate(0)
			"></text><text class="testing" style="display: block;" transform="
			rotate(23.68421052631578) 
			translate(34.48275862068966,0) 
			rotate(0)
			"></text><text class="testing" style="display: block;" transform="
			rotate(137.36842105263156) 
			translate(34.48275862068966,0) 
			rotate(180)
			"></text><text class="testing" style="display: block;" transform="
			rotate(23.68421052631578) 
			translate(68.96551724137932,0) 
			rotate(0)
			"></text><text class="testing" style="display: block;" transform="
			rotate(137.36842105263156) 
			translate(68.96551724137932,0) 
			rotate(180)
			"></text><text class="testing" style="display: block;" transform="
			rotate(23.68421052631578) 
			translate(103.44827586206898,0) 
			rotate(0)
			"></text><text class="testing" style="display: block;" transform="
			rotate(118.42105263157896) 
			translate(103.44827586206898,0) 
			rotate(180)
			"></text><text class="testing" style="display: block;" transform="
			rotate(156.31578947368425) 
			translate(103.44827586206898,0) 
			rotate(180)
			"></text></g><g><circle cx="150" cy="150" r="103.44827586206897" stroke="#555" stroke-opacity="0.4" stroke-width="1.5" fill="none" style="stroke-dasharray: 3, 3;"></circle></g><text x="150" y="248.44827586206895" font-family="sans-serif" font-size="12px" fill="black" style="text-anchor: middle;">3</text><g><circle cx="150" cy="150" r="68.9655172413793" stroke="#555" stroke-opacity="0.4" stroke-width="1.5" fill="none" style="stroke-dasharray: 3, 3;"></circle></g><text x="150" y="213.9655172413793" font-family="sans-serif" font-size="12px" fill="black" style="text-anchor: middle;">2</text><g><circle cx="150" cy="150" r="34.482758620689644" stroke="#555" stroke-opacity="0.4" stroke-width="1.5" fill="none" style="stroke-dasharray: 3, 3;"></circle></g><text x="150" y="179.48275862068965" font-family="sans-serif" font-size="12px" fill="black" style="text-anchor: middle;">1</text><text class="radial-info" x="150" y="15" style="text-anchor: middle;">Influenza (swine flu), R naught = 1.5</text><text class="radial-total" x="150" y="285" style="text-anchor: middle;">Total infected: 8</text><g transform="translate(150,150)" fill="none" stroke="#555" stroke-opacity="0.4" stroke-width="1.5"><path d="M0,0C2.8378377634609384,17.006229369012456,15.789195287156165,6.925783183671886,31.57839057431233,13.851566367343771"></path><path d="M0,0C2.8378377634609384,17.006229369012456,-12.684895011605715,11.677268476305887,-25.36979002321143,23.354536952611774"></path><path d="M31.57839057431233,13.851566367343771C47.3675858614685,20.777349551015657,47.3675858614685,20.777349551015657,63.15678114862466,27.703132734687543"></path><path d="M-25.36979002321143,23.354536952611774C-38.05468503481715,35.031805428917664,-38.05468503481715,35.031805428917664,-50.73958004642286,46.70907390522355"></path><path d="M63.15678114862466,27.703132734687543C78.94597643578084,34.62891591835943,78.94597643578084,34.62891591835943,94.735171722937,41.554699102031314"></path><path d="M-50.73958004642286,46.70907390522355C-63.42447505802858,58.386342381529445,-41.0299476756098,75.8167026902146,-49.235937210731755,90.9800432282575"></path><path d="M-50.73958004642286,46.70907390522355C-63.42447505802858,58.386342381529445,-78.94597643578085,34.628915918359404,-94.73517172293701,41.55469910203128"></path></g><g transform="translate(150,150)" fill="none" stroke="#555" stroke-opacity="0.4" stroke-width="1.5"><path d="M0,0C2.8378377634609384,17.006229369012456,15.789195287156165,6.925783183671886,31.57839057431233,13.851566367343771"></path><path d="M0,0C2.8378377634609384,17.006229369012456,-12.684895011605715,11.677268476305887,-25.36979002321143,23.354536952611774"></path><path d="M31.57839057431233,13.851566367343771C47.3675858614685,20.777349551015657,47.3675858614685,20.777349551015657,63.15678114862466,27.703132734687543"></path><path d="M-25.36979002321143,23.354536952611774C-38.05468503481715,35.031805428917664,-38.05468503481715,35.031805428917664,-50.73958004642286,46.70907390522355"></path><path d="M63.15678114862466,27.703132734687543C78.94597643578084,34.62891591835943,78.94597643578084,34.62891591835943,94.735171722937,41.554699102031314"></path><path d="M-50.73958004642286,46.70907390522355C-63.42447505802858,58.386342381529445,-41.0299476756098,75.8167026902146,-49.235937210731755,90.9800432282575"></path><path d="M-50.73958004642286,46.70907390522355C-63.42447505802858,58.386342381529445,-78.94597643578085,34.628915918359404,-94.73517172293701,41.55469910203128"></path></g></svg>