<svg xmlns="http://www.w3.org/2000/svg" width="300" height="300" preserveAspectRatio="xMinYMin meet" viewBox="0 0 300 300" class="svg-content"><g transform="translate(150,150)" fill="none" stroke="#555" stroke-opacity="0.4" stroke-width="1.5"><path d="M0,0C-0.6446757633849184,17.229322496351703,17.24137931034483,0,34.48275862068966,0"></path><path d="M0,0C-0.6446757633849184,17.229322496351703,-17.1931689169169,-1.2884498894211107,-34.3863378338338,-2.5768997788422214"></path><path d="M34.48275862068966,0C51.72413793103449,0,22.442262368149564,-46.601837994952724,29.923016490866083,-62.135783993270294"></path><path d="M34.48275862068966,0C51.72413793103449,0,51.5795067507507,-3.8653496682633164,68.7726756676676,-5.1537995576844216"></path><path d="M34.48275862068966,0C51.72413793103449,0,22.442262368149564,46.601837994952724,29.923016490866083,62.135783993270294"></path><path d="M-34.3863378338338,-2.5768997788422214C-51.5795067507507,-3.865349668263333,-29.137244382601107,42.73648832668942,-38.849659176801474,56.98198443558589"></path><path d="M-34.3863378338338,-2.5768997788422214C-51.5795067507507,-3.865349668263333,-51.57950675075071,-3.8653496682632866,-68.77267566766761,-5.153799557684382"></path><path d="M-34.3863378338338,-2.5768997788422214C-51.5795067507507,-3.865349668263333,-22.44226236814957,-46.60183799495272,-29.923016490866093,-62.13578399327029"></path><path d="M29.923016490866083,-62.135783993270294C37.40377061358261,-77.66972999158787,25.40992882852624,-82.37696601604662,30.491914594231485,-98.85235921925594"></path><path d="M29.923016490866083,-62.135783993270294C37.40377061358261,-77.66972999158787,48.56207397100193,-71.22748054448232,58.274488765202314,-85.47297665337878"></path><path d="M68.7726756676676,-5.1537995576844216C85.96584458458452,-6.442249447105527,80.24773695208658,-31.494915893654742,96.2972843425039,-37.79389907238569"></path><path d="M68.7726756676676,-5.1537995576844216C85.96584458458452,-6.442249447105527,85.96584458458452,-6.442249447105527,103.1590135015014,-7.730699336526633"></path><path d="M68.7726756676676,-5.1537995576844216C85.96584458458452,-6.442249447105527,84.04550967084688,19.18283913416504,100.85461160501626,23.019406960998044"></path><path d="M29.923016490866083,62.135783993270294C37.40377061358261,77.66972999158787,58.63558084232068,63.19412688188157,70.36269701078481,75.83295225825789"></path><path d="M29.923016490866083,62.135783993270294C37.40377061358261,77.66972999158787,37.40377061358261,77.66972999158787,44.88452473629913,93.20367598990545"></path><path d="M29.923016490866083,62.135783993270294C37.40377061358261,77.66972999158787,12.848471222084024,85.24403674354558,15.418165466500827,102.2928440922547"></path><path d="M-38.849659176801474,56.98198443558589C-48.562073971001844,71.22748054448238,-37.403770613582566,77.6697299915879,-44.88452473629908,93.20367598990546"></path><path d="M-38.849659176801474,56.98198443558589C-48.562073971001844,71.22748054448238,-58.635580842320635,63.1941268818816,-70.36269701078476,75.83295225825792"></path><path d="M-68.77267566766761,-5.153799557684382C-85.96584458458452,-6.442249447105478,-84.04550967084688,19.182839134165047,-100.85461160501626,23.019406960998055"></path><path d="M-68.77267566766761,-5.153799557684382C-85.96584458458452,-6.442249447105478,-85.96584458458452,-6.442249447105478,-103.15901350150142,-7.730699336526573"></path><path d="M-68.77267566766761,-5.153799557684382C-85.96584458458452,-6.442249447105478,-80.24773695208661,-31.494915893654714,-96.29728434250393,-37.793899072385656"></path><path d="M-29.923016490866093,-62.13578399327029C-37.403770613582616,-77.66972999158787,-48.56207397100203,-71.22748054448225,-58.27448876520243,-85.4729766533787"></path><path d="M-29.923016490866093,-62.13578399327029C-37.403770613582616,-77.66972999158787,-25.40992882852627,-82.37696601604662,-30.49191459423152,-98.85235921925593"></path></g><g transform="translate(150,150)"><circle class="testing" style="display: block;" transform="rotate(92.14285714285714) translate(0,0)" fill="red" r="5"></circle><circle class="testing" style="display: block;" transform="rotate(0) translate(34.48275862068966,0)" fill="red" r="5"></circle><circle class="testing" style="display: block;" transform="rotate(184.28571428571428) translate(34.48275862068966,0)" fill="red" r="5"></circle><circle class="testing" style="display: block;" transform="rotate(-64.28571428571428) translate(68.96551724137932,0)" fill="red" r="5"></circle><circle class="testing" style="display: block;" transform="rotate(-4.285714285714278) translate(68.96551724137932,0)" fill="red" r="5"></circle><circle class="testing" style="display: block;" transform="rotate(64.2857142857143) translate(68.96551724137932,0)" fill="red" r="5"></circle><circle class="testing" style="display: block;" transform="rotate(124.28571428571425) translate(68.96551724137932,0)" fill="red" r="5"></circle><circle class="testing" style="display: block;" transform="rotate(184.28571428571428) translate(68.96551724137932,0)" fill="red" r="5"></circle><circle class="testing" style="display: block;" transform="rotate(244.28571428571428) translate(68.96551724137932,0)" fill="red" r="5"></circle><circle class="testing" style="display: block;" transform="rotate(-72.85714285714285) translate(103.44827586206898,0)" fill="red" r="5"></circle><circle class="testing" style="display: block;" transform="rotate(-55.7142857142857) translate(103.44827586206898,0)" fill="red" r="5"></circle><circle class="testing" style="display: block;" transform="rotate(-21.42857142857143) translate(103.44827586206898,0)" fill="red" r="5"></circle><circle class="testing" style="display: block;" transform="rotate(-4.285714285714278) translate(103.44827586206898,0)" fill="red" r="5"></circle><circle class="testing" style="display: block;" transform="rotate(12.857142857142861) translate(103.44827586206898,0)" fill="red" r="5"></circle><circle class="testing" style="display: block;" transform="rotate(47.14285714285714) translate(103.44827586206898,0)" fill="red" r="5"></circle><circle class="testing" style="display: block;" transform="rotate(64.2857142857143) translate(103.44827586206898,0)" fill="red" r="5"></circle><circle class="testing" style="display: block;" transform="rotate(81.42857142857142) translate(103.44827586206898,0)" fill="red" r="5"></circle><circle class="testing" style="display: block;" transform="rotate(115.71428571428567) translate(103.44827586206898,0)" fill="red" r="5"></circle><circle class="testing" style="display: block;" transform="rotate(132.85714285714286) translate(103.44827586206898,0)" fill="red" r="5"></circle><circle class="testing" style="display: block;" transform="rotate(167.1428571428571) translate(103.44827586206898,0)" fill="red" r="5"></circle><circle class="testing" style="display: block;" transform="rotate(184.28571428571428) translate(103.44827586206898,0)" fill="red" r="5"></circle><circle class="testing" style="display: block;" transform="rotate(201.4285714285714) translate(103.44827586206898,0)" fill="red" r="5"></circle><circle class="testing" style="display: block;" transform="rotate(235.7142857142856) translate(103.44827586206898,0)" fill="red" r="5"></circle><circle class="testing" style="display: block;" transform="rotate(252.85714285714283) translate(103.44827586206898,0)" fill="red" r="5"></circle></g><g transform="translate(150,150)" font-family="sans-serif" font-size="10" stroke-linejoin="round" stroke-width="3"><text class="testing" style="display: block;" transform="
			rotate(92.14285714285714) 
			translate(0,0) 
			rotate(180)
			"></text><text class="testing" style="display: block;" transform="
			rotate(0) 
			translate(34.48275862068966,0) 
			rotate(0)
			"></text><text class="testing" style="display: block;" transform="
			rotate(184.28571428571428) 
			translate(34.48275862068966,0) 
			rotate(180)
			"></text><text class="testing" style="display: block;" transform="
			rotate(-64.28571428571428) 
			translate(68.96551724137932,0) 
			rotate(0)
			"></text><text class="testing" style="display: block;" transform="
			rotate(-4.285714285714278) 
			translate(68.96551724137932,0) 
			rotate(0)
			"></text><text class="testing" style="display: block;" transform="
			rotate(64.2857142857143) 
			translate(68.96551724137932,0) 
			rotate(0)
			"></text><text class="testing" style="display: block;" transform="
			rotate(124.28571428571425) 
			translate(68.96551724137932,0) 
			rotate(180)
			"></text><text class="testing" style="display: block;" transform="
			rotate(184.28571428571428) 
			translate(68.96551724137932,0) 
			rotate(180)
			"></text><text class="testing" style="display: block;" transform="
			rotate(244.28571428571428) 
			translate(68.96551724137932,0) 
			rotate(180)
			"></text><text class="testing" style="display: block;" transform="
			rotate(-72.85714285714285) 
			translate(103.44827586206898,0) 
			rotate(0)
			"></text><text class="testing" style="display: block;" transform="
			rotate(-55.7142857142857) 
			translate(103.44827586206898,0) 
			rotate(0)
			"></text><text class="testing" style="display: block;" transform="
			rotate(-21.42857142857143) 
			translate(103.44827586206898,0) 
			rotate(0)
			"></text><text class="testing" style="display: block;" transform="
			rotate(-4.285714285714278) 
			translate(103.44827586206898,0) 
			rotate(0)
			"></text><text class="testing" style="display: block;" transform="
			rotate(12.857142857142861) 
			translate(103.44827586206898,0) 
			rotate(0)
			"></text><text class="testing" style="display: block;" transform="
			rotate(47.14285714285714) 
			translate(103.44827586206898,0) 
			rotate(0)
			"></text><text class="testing" style="display: block;" transform="
			rotate(64.2857142857143) 
			translate(103.44827586206898,0) 
			rotate(0)
			"></text><text class="testing" style="display: block;" transform="
			rotate(81.42857142857142) 
			translate(103.44827586206898,0) 
			rotate(0)
			"></text><text class="testing" style="display: block;" transform="
			rotate(115.71428571428567) 
			translate(103.44827586206898,0) 
			rotate(180)
			"></text><text class="testing" style="display: block;" transform="
			rotate(132.85714285714286) 
			translate(103.44827586206898,0) 
			rotate(180)
			"></text><text class="testing" style="display: block;" transform="
			rotate(167.1428571428571) 
			translate(103.44827586206898,0) 
			rotate(180)
			"></text><text class="testing" style="display: block;" transform="
			rotate(184.28571428571428) 
			translate(103.44827586206898,0) 
			rotate(180)
			"></text><text class="testing" style="display: block;" transform="
			rotate(201.4285714285714) 
			translate(103.44827586206898,0) 
			rotate(180)
			"></text><text class="testing" style="display: block;" transform="
			rotate(235.7142857142856) 
			translate(103.44827586206898,0) 
			rotate(180)
			"></text><text class="testing" style="display: block;" transform="
			rotate(252.85714285714283) 
			translate(103.44827586206898,0) 
			rotate(180)
			"></text></g><g><circle cx="150" cy="150" r="103.44827586206897" stroke="#555" stroke-opacity="0.4" stroke-width="1.5" fill="none" style="stroke-dasharray: 3, 3;"></circle></g><text x="150" y="248.44827586206895" font-family="sans-serif" font-size="12px" fill="black" style="text-anchor: middle;">3</text><g><circle cx="150" cy="150" r="68.9655172413793" stroke="#555" stroke-opacity="0.4" stroke-width="1.5" fill="none" style="stroke-dasharray: 3, 3;"></circle></g><text x="150" y="213.9655172413793" font-family="sans-serif" font-size="12px" fill="black" style="text-anchor: middle;">2</text><g><circle cx="150" cy="150" r="34.482758620689644" stroke="#555" stroke-opacity="0.4" stroke-width="1.5" fill="none" style="stroke-dasharray: 3, 3;"></circle></g><text x="150" y="179.48275862068965" font-family="sans-serif" font-size="12px" fill="black" style="text-anchor: middle;">1</text><text class="radial-info" x="150" y="15" style="text-anchor: middle;">Influenza (seasonal flu), R naught = 2.5</text><text class="radial-total" x="150" y="285" style="text-anchor: middle;">Total infected: 24</text><g transform="translate(150,150)" fill="none" stroke="#555" stroke-opacity="0.4" stroke-width="1.5"><path d="M0,0C-0.6446757633849184,17.229322496351703,17.24137931034483,0,34.48275862068966,0"></path><path d="M0,0C-0.6446757633849184,17.229322496351703,-17.1931689169169,-1.2884498894211107,-34.3863378338338,-2.5768997788422214"></path><path d="M34.48275862068966,0C51.72413793103449,0,22.442262368149564,-46.601837994952724,29.923016490866083,-62.135783993270294"></path><path d="M34.48275862068966,0C51.72413793103449,0,51.5795067507507,-3.8653496682633164,68.7726756676676,-5.1537995576844216"></path><path d="M34.48275862068966,0C51.72413793103449,0,22.442262368149564,46.601837994952724,29.923016490866083,62.135783993270294"></path><path d="M-34.3863378338338,-2.5768997788422214C-51.5795067507507,-3.865349668263333,-29.137244382601107,42.73648832668942,-38.849659176801474,56.98198443558589"></path><path d="M-34.3863378338338,-2.5768997788422214C-51.5795067507507,-3.865349668263333,-51.57950675075071,-3.8653496682632866,-68.77267566766761,-5.153799557684382"></path><path d="M-34.3863378338338,-2.5768997788422214C-51.5795067507507,-3.865349668263333,-22.44226236814957,-46.60183799495272,-29.923016490866093,-62.13578399327029"></path><path d="M29.923016490866083,-62.135783993270294C37.40377061358261,-77.66972999158787,25.40992882852624,-82.37696601604662,30.491914594231485,-98.85235921925594"></path><path d="M29.923016490866083,-62.135783993270294C37.40377061358261,-77.66972999158787,48.56207397100193,-71.22748054448232,58.274488765202314,-85.47297665337878"></path><path d="M68.7726756676676,-5.1537995576844216C85.96584458458452,-6.442249447105527,80.24773695208658,-31.494915893654742,96.2972843425039,-37.79389907238569"></path><path d="M68.7726756676676,-5.1537995576844216C85.96584458458452,-6.442249447105527,85.96584458458452,-6.442249447105527,103.1590135015014,-7.730699336526633"></path><path d="M68.7726756676676,-5.1537995576844216C85.96584458458452,-6.442249447105527,84.04550967084688,19.18283913416504,100.85461160501626,23.019406960998044"></path><path d="M29.923016490866083,62.135783993270294C37.40377061358261,77.66972999158787,58.63558084232068,63.19412688188157,70.36269701078481,75.83295225825789"></path><path d="M29.923016490866083,62.135783993270294C37.40377061358261,77.66972999158787,37.40377061358261,77.66972999158787,44.88452473629913,93.20367598990545"></path><path d="M29.923016490866083,62.135783993270294C37.40377061358261,77.66972999158787,12.848471222084024,85.24403674354558,15.418165466500827,102.2928440922547"></path><path d="M-38.849659176801474,56.98198443558589C-48.562073971001844,71.22748054448238,-37.403770613582566,77.6697299915879,-44.88452473629908,93.20367598990546"></path><path d="M-38.849659176801474,56.98198443558589C-48.562073971001844,71.22748054448238,-58.635580842320635,63.1941268818816,-70.36269701078476,75.83295225825792"></path><path d="M-68.77267566766761,-5.153799557684382C-85.96584458458452,-6.442249447105478,-84.04550967084688,19.182839134165047,-100.85461160501626,23.019406960998055"></path><path d="M-68.77267566766761,-5.153799557684382C-85.96584458458452,-6.442249447105478,-85.96584458458452,-6.442249447105478,-103.15901350150142,-7.730699336526573"></path><path d="M-68.77267566766761,-5.153799557684382C-85.96584458458452,-6.442249447105478,-80.24773695208661,-31.494915893654714,-96.29728434250393,-37.793899072385656"></path><path d="M-29.923016490866093,-62.13578399327029C-37.403770613582616,-77.66972999158787,-48.56207397100203,-71.22748054448225,-58.27448876520243,-85.4729766533787"></path><path d="M-29.923016490866093,-62.13578399327029C-37.403770613582616,-77.66972999158787,-25.40992882852627,-82.37696601604662,-30.49191459423152,-98.85235921925593"></path></g><g transform="translate(150,150)" fill="none" stroke="#555" stroke-opacity="0.4" stroke-width="1.5"><path d="M0,0C-0.6446757633849184,17.229322496351703,17.24137931034483,0,34.48275862068966,0"></path><path d="M0,0C-0.6446757633849184,17.229322496351703,-17.1931689169169,-1.2884498894211107,-34.3863378338338,-2.5768997788422214"></path><path d="M34.48275862068966,0C51.72413793103449,0,22.442262368149564,-46.601837994952724,29.923016490866083,-62.135783993270294"></path><path d="M34.48275862068966,0C51.72413793103449,0,51.5795067507507,-3.8653496682633164,68.7726756676676,-5.1537995576844216"></path><path d="M34.48275862068966,0C51.72413793103449,0,22.442262368149564,46.601837994952724,29.923016490866083,62.135783993270294"></path><path d="M-34.3863378338338,-2.5768997788422214C-51.5795067507507,-3.865349668263333,-29.137244382601107,42.73648832668942,-38.849659176801474,56.98198443558589"></path><path d="M-34.3863378338338,-2.5768997788422214C-51.5795067507507,-3.865349668263333,-51.57950675075071,-3.8653496682632866,-68.77267566766761,-5.153799557684382"></path><path d="M-34.3863378338338,-2.5768997788422214C-51.5795067507507,-3.865349668263333,-22.44226236814957,-46.60183799495272,-29.923016490866093,-62.13578399327029"></path><path d="M29.923016490866083,-62.135783993270294C37.40377061358261,-77.66972999158787,25.40992882852624,-82.37696601604662,30.491914594231485,-98.85235921925594"></path><path d="M29.923016490866083,-62.135783993270294C37.40377061358261,-77.66972999158787,48.56207397100193,-71.22748054448232,58.274488765202314,-85.47297665337878"></path><path d="M68.7726756676676,-5.1537995576844216C85.96584458458452,-6.442249447105527,80.24773695208658,-31.494915893654742,96.2972843425039,-37.79389907238569"></path><path d="M68.7726756676676,-5.1537995576844216C85.96584458458452,-6.442249447105527,85.96584458458452,-6.442249447105527,103.1590135015014,-7.730699336526633"></path><path d="M68.7726756676676,-5.1537995576844216C85.96584458458452,-6.442249447105527,84.04550967084688,19.18283913416504,100.85461160501626,23.019406960998044"></path><path d="M29.923016490866083,62.135783993270294C37.40377061358261,77.66972999158787,58.63558084232068,63.19412688188157,70.36269701078481,75.83295225825789"></path><path d="M29.923016490866083,62.135783993270294C37.40377061358261,77.66972999158787,37.40377061358261,77.66972999158787,44.88452473629913,93.20367598990545"></path><path d="M29.923016490866083,62.135783993270294C37.40377061358261,77.66972999158787,12.848471222084024,85.24403674354558,15.418165466500827,102.2928440922547"></path><path d="M-38.849659176801474,56.98198443558589C-48.562073971001844,71.22748054448238,-37.403770613582566,77.6697299915879,-44.88452473629908,93.20367598990546"></path><path d="M-38.849659176801474,56.98198443558589C-48.562073971001844,71.22748054448238,-58.635580842320635,63.1941268818816,-70.36269701078476,75.83295225825792"></path><path d="M-68.77267566766761,-5.153799557684382C-85.96584458458452,-6.442249447105478,-84.04550967084688,19.182839134165047,-100.85461160501626,23.019406960998055"></path><path d="M-68.77267566766761,-5.153799557684382C-85.96584458458452,-6.442249447105478,-85.96584458458452,-6.442249447105478,-103.15901350150142,-7.730699336526573"></path><path d="M-68.77267566766761,-5.153799557684382C-85.96584458458452,-6.442249447105478,-80.24773695208661,-31.494915893654714,-96.29728434250393,-37.793899072385656"></path><path d="M-29.923016490866093,-62.13578399327029C-37.403770613582616,-77.66972999158787,-48.56207397100203,-71.22748054448225,-58.27448876520243,-85.4729766533787"></path><path d="M-29.923016490866093,-62.13578399327029C-37.403770613582616,-77.66972999158787,-25.40992882852627,-82.37696601604662,-30.49191459423152,-98.85235921925593"></path></g></svg>