<svg xmlns="http://www.w3.org/2000/svg" width="300" height="300" preserveAspectRatio="xMinYMin meet" viewBox="0 0 300 300" class="svg-content"><g transform="translate(150,150)" fill="none" stroke="#555" stroke-opacity="0.4" stroke-width="1.5"><path d="M0,0C3.107845479550109,16.958963912881785,17.115670243069896,-2.078218625091779,34.23134048613979,-4.156437250183558"></path><path d="M0,0C3.107845479550109,16.958963912881785,-16.740376162518135,4.126132142888941,-33.48075232503627,8.252264285777882"></path><path d="M34.23134048613979,-4.156437250183558C51.3470107292097,-6.234655875275338,34.29944784004114,-38.71607318126386,45.73259712005485,-51.621430908351805"></path><path d="M34.23134048613979,-4.156437250183558C51.3470107292097,-6.234655875275338,42.56813099449949,29.382659313680456,56.757507992665985,39.17687908490727"></path><path d="M-33.48075232503627,8.252264285777882C-50.22112848755441,12.378396428666823,-24.037405450539733,45.799449602752254,-32.049873934052975,61.06593280366967"></path><path d="M-33.48075232503627,8.252264285777882C-50.22112848755441,12.378396428666823,-42.568130994499505,-29.38265931368043,-56.75750799266601,-39.17687908490724"></path><path d="M45.73259712005485,-51.621430908351805C57.165746400068564,-64.52678863543976,40.06234241756625,-76.33241600458707,48.074810901079495,-91.5988992055045"></path><path d="M45.73259712005485,-51.621430908351805C57.165746400068564,-64.52678863543976,70.94688499083244,-48.97109885613415,85.13626198899894,-58.765318627360976"></path><path d="M56.757507992665985,39.17687908490727C70.94688499083249,48.97109885613409,80.60484850736337,30.569386814011676,96.72581820883605,36.683264176814006"></path><path d="M56.757507992665985,39.17687908490727C70.94688499083249,48.97109885613409,57.165746400068585,64.52678863543974,68.5988956800823,77.43214636252769"></path><path d="M-32.049873934052975,61.06593280366967C-40.06234241756623,76.3324160045871,-20.63066071444458,83.70188081259073,-24.756792857333494,100.44225697510886"></path><path d="M-32.049873934052975,61.06593280366967C-40.06234241756623,76.3324160045871,-57.165746400068514,64.5267886354398,-68.59889568008221,77.43214636252776"></path><path d="M-56.75750799266601,-39.17687908490724C-70.94688499083252,-48.971098856134056,-85.57835121534951,-10.391093125458829,-102.6940214584194,-12.469311750550593"></path><path d="M-56.75750799266601,-39.17687908490724C-70.94688499083252,-48.971098856134056,-70.94688499083252,-48.971098856134056,-85.13626198899901,-58.76531862736086"></path><path d="M-56.75750799266601,-39.17687908490724C-70.94688499083252,-48.971098856134056,-40.06234241756631,-76.33241600458705,-48.07481090107957,-91.59889920550445"></path></g><g transform="translate(150,150)"><circle class="testing" style="display: block;" transform="rotate(79.61538461538458) translate(0,0)" fill="red" r="5"></circle><circle class="testing" style="display: block;" transform="rotate(-6.923076923076934) translate(34.48275862068966,0)" fill="red" r="5"></circle><circle class="testing" style="display: block;" transform="rotate(166.15384615384613) translate(34.48275862068966,0)" fill="red" r="5"></circle><circle class="testing" style="display: block;" transform="rotate(-48.46153846153847) translate(68.96551724137932,0)" fill="red" r="5"></circle><circle class="testing" style="display: block;" transform="rotate(34.615384615384585) translate(68.96551724137932,0)" fill="red" r="5"></circle><circle class="testing" style="display: block;" transform="rotate(117.69230769230765) translate(68.96551724137932,0)" fill="red" r="5"></circle><circle class="testing" style="display: block;" transform="rotate(214.61538461538458) translate(68.96551724137932,0)" fill="red" r="5"></circle><circle class="testing" style="display: block;" transform="rotate(-62.307692307692314) translate(103.44827586206898,0)" fill="red" r="5"></circle><circle class="testing" style="display: block;" transform="rotate(-34.61538461538463) translate(103.44827586206898,0)" fill="red" r="5"></circle><circle class="testing" style="display: block;" transform="rotate(20.76923076923076) translate(103.44827586206898,0)" fill="red" r="5"></circle><circle class="testing" style="display: block;" transform="rotate(48.46153846153845) translate(103.44827586206898,0)" fill="red" r="5"></circle><circle class="testing" style="display: block;" transform="rotate(103.84615384615378) translate(103.44827586206898,0)" fill="red" r="5"></circle><circle class="testing" style="display: block;" transform="rotate(131.53846153846152) translate(103.44827586206898,0)" fill="red" r="5"></circle><circle class="testing" style="display: block;" transform="rotate(186.9230769230769) translate(103.44827586206898,0)" fill="red" r="5"></circle><circle class="testing" style="display: block;" transform="rotate(214.61538461538458) translate(103.44827586206898,0)" fill="red" r="5"></circle><circle class="testing" style="display: block;" transform="rotate(242.30769230769226) translate(103.44827586206898,0)" fill="red" r="5"></circle></g><g transform="translate(150,150)" font-family="sans-serif" font-size="10" stroke-linejoin="round" stroke-width="3"><text class="testing" style="display: block;" transform="
			rotate(79.61538461538458) 
			translate(0,0) 
			rotate(0)
			"></text><text class="testing" style="display: block;" transform="
			rotate(-6.923076923076934) 
			translate(34.48275862068966,0) 
			rotate(0)
			"></text><text class="testing" style="display: block;" transform="
			rotate(166.15384615384613) 
			translate(34.48275862068966,0) 
			rotate(180)
			"></text><text class="testing" style="display: block;" transform="
			rotate(-48.46153846153847) 
			translate(68.96551724137932,0) 
			rotate(0)
			"></text><text class="testing" style="display: block;" transform="
			rotate(34.615384615384585) 
			translate(68.96551724137932,0) 
			rotate(0)
			"></text><text class="testing" style="display: block;" transform="
			rotate(117.69230769230765) 
			translate(68.96551724137932,0) 
			rotate(180)
			"></text><text class="testing" style="display: block;" transform="
			rotate(214.61538461538458) 
			translate(68.96551724137932,0) 
			rotate(180)
			"></text><text class="testing" style="display: block;" transform="
			rotate(-62.307692307692314) 
			translate(103.44827586206898,0) 
			rotate(0)
			"></text><text class="testing" style="display: block;" transform="
			rotate(-34.61538461538463) 
			translate(103.44827586206898,0) 
			rotate(0)
			"></text><text class="testing" style="display: block;" transform="
			rotate(20.76923076923076) 
			translate(103.44827586206898,0) 
			rotate(0)
			"></text><text class="testing" style="display: block;" transform="
			rotate(48.46153846153845) 
			translate(103.44827586206898,0) 
			rotate(0)
			"></text><text class="testing" style="display: block;" transform="
			rotate(103.84615384615378) 
			translate(103.44827586206898,0) 
			rotate(180)
			"></text><text class="testing" style="display: block;" transform="
			rotate(131.53846153846152) 
			translate(103.44827586206898,0) 
			rotate(180)
			"></text><text class="testing" style="display: block;" transform="
			rotate(186.9230769230769) 
			translate(103.44827586206898,0) 
			rotate(180)
			"></text><text class="testing" style="display: block;" transform="
			rotate(214.61538461538458) 
			translate(103.44827586206898,0) 
			rotate(180)
			"></text><text class="testing" style="display: block;" transform="
			rotate(242.30769230769226) 
			translate(103.44827586206898,0) 
			rotate(180)
			"></text></g><g><circle cx="150" cy="150" r="103.44827586206897" stroke="#555" stroke-opacity="0.4" stroke-width="1.5" fill="none" style="stroke-dasharray: 3, 3;"></circle></g><text x="150" y="248.44827586206895" font-family="sans-serif" font-size="12px" fill="black" style="text-anchor: middle;">3</text><g><circle cx="150" cy="150" r="68.9655172413793" stroke="#555" stroke-opacity="0.4" stroke-width="1.5" fill="none" style="stroke-dasharray: 3, 3;"></circle></g><text x="150" y="213.9655172413793" font-family="sans-serif" font-size="12px" fill="black" style="text-anchor: middle;">2</text><g><circle cx="150" cy="150" r="34.482758620689644" stroke="#555" stroke-opacity="0.4" stroke-width="1.5" fill="none" style="stroke-dasharray: 3, 3;"></circle></g><text x="150" y="179.48275862068965" font-family="sans-serif" font-size="12px" fill="black" style="text-anchor: middle;">1</text><text class="radial-info" x="150" y="15" style="text-anchor: middle;">SARS, R naught = 2.4</text><text class="radial-total" x="150" y="285" style="text-anchor: middle;">Total infected: 16</text><g transform="translate(150,150)" fill="none" stroke="#555" stroke-opacity="0.4" stroke-width="1.5"><path d="M0,0C3.107845479550109,16.958963912881785,17.115670243069896,-2.078218625091779,34.23134048613979,-4.156437250183558"></path><path d="M0,0C3.107845479550109,16.958963912881785,-16.740376162518135,4.126132142888941,-33.48075232503627,8.252264285777882"></path><path d="M34.23134048613979,-4.156437250183558C51.3470107292097,-6.234655875275338,34.29944784004114,-38.71607318126386,45.73259712005485,-51.621430908351805"></path><path d="M34.23134048613979,-4.156437250183558C51.3470107292097,-6.234655875275338,42.56813099449949,29.382659313680456,56.757507992665985,39.17687908490727"></path><path d="M-33.48075232503627,8.252264285777882C-50.22112848755441,12.378396428666823,-24.037405450539733,45.799449602752254,-32.049873934052975,61.06593280366967"></path><path d="M-33.48075232503627,8.252264285777882C-50.22112848755441,12.378396428666823,-42.568130994499505,-29.38265931368043,-56.75750799266601,-39.17687908490724"></path><path d="M45.73259712005485,-51.621430908351805C57.165746400068564,-64.52678863543976,40.06234241756625,-76.33241600458707,48.074810901079495,-91.5988992055045"></path><path d="M45.73259712005485,-51.621430908351805C57.165746400068564,-64.52678863543976,70.94688499083244,-48.97109885613415,85.13626198899894,-58.765318627360976"></path><path d="M56.757507992665985,39.17687908490727C70.94688499083249,48.97109885613409,80.60484850736337,30.569386814011676,96.72581820883605,36.683264176814006"></path><path d="M56.757507992665985,39.17687908490727C70.94688499083249,48.97109885613409,57.165746400068585,64.52678863543974,68.5988956800823,77.43214636252769"></path><path d="M-32.049873934052975,61.06593280366967C-40.06234241756623,76.3324160045871,-20.63066071444458,83.70188081259073,-24.756792857333494,100.44225697510886"></path><path d="M-32.049873934052975,61.06593280366967C-40.06234241756623,76.3324160045871,-57.165746400068514,64.5267886354398,-68.59889568008221,77.43214636252776"></path><path d="M-56.75750799266601,-39.17687908490724C-70.94688499083252,-48.971098856134056,-85.57835121534951,-10.391093125458829,-102.6940214584194,-12.469311750550593"></path><path d="M-56.75750799266601,-39.17687908490724C-70.94688499083252,-48.971098856134056,-70.94688499083252,-48.971098856134056,-85.13626198899901,-58.76531862736086"></path><path d="M-56.75750799266601,-39.17687908490724C-70.94688499083252,-48.971098856134056,-40.06234241756631,-76.33241600458705,-48.07481090107957,-91.59889920550445"></path></g><g transform="translate(150,150)" fill="none" stroke="#555" stroke-opacity="0.4" stroke-width="1.5"><path d="M0,0C3.107845479550109,16.958963912881785,17.115670243069896,-2.078218625091779,34.23134048613979,-4.156437250183558"></path><path d="M0,0C3.107845479550109,16.958963912881785,-16.740376162518135,4.126132142888941,-33.48075232503627,8.252264285777882"></path><path d="M34.23134048613979,-4.156437250183558C51.3470107292097,-6.234655875275338,34.29944784004114,-38.71607318126386,45.73259712005485,-51.621430908351805"></path><path d="M34.23134048613979,-4.156437250183558C51.3470107292097,-6.234655875275338,42.56813099449949,29.382659313680456,56.757507992665985,39.17687908490727"></path><path d="M-33.48075232503627,8.252264285777882C-50.22112848755441,12.378396428666823,-24.037405450539733,45.799449602752254,-32.049873934052975,61.06593280366967"></path><path d="M-33.48075232503627,8.252264285777882C-50.22112848755441,12.378396428666823,-42.568130994499505,-29.38265931368043,-56.75750799266601,-39.17687908490724"></path><path d="M45.73259712005485,-51.621430908351805C57.165746400068564,-64.52678863543976,40.06234241756625,-76.33241600458707,48.074810901079495,-91.5988992055045"></path><path d="M45.73259712005485,-51.621430908351805C57.165746400068564,-64.52678863543976,70.94688499083244,-48.97109885613415,85.13626198899894,-58.765318627360976"></path><path d="M56.757507992665985,39.17687908490727C70.94688499083249,48.97109885613409,80.60484850736337,30.569386814011676,96.72581820883605,36.683264176814006"></path><path d="M56.757507992665985,39.17687908490727C70.94688499083249,48.97109885613409,57.165746400068585,64.52678863543974,68.5988956800823,77.43214636252769"></path><path d="M-32.049873934052975,61.06593280366967C-40.06234241756623,76.3324160045871,-20.63066071444458,83.70188081259073,-24.756792857333494,100.44225697510886"></path><path d="M-32.049873934052975,61.06593280366967C-40.06234241756623,76.3324160045871,-57.165746400068514,64.5267886354398,-68.59889568008221,77.43214636252776"></path><path d="M-56.75750799266601,-39.17687908490724C-70.94688499083252,-48.971098856134056,-85.57835121534951,-10.391093125458829,-102.6940214584194,-12.469311750550593"></path><path d="M-56.75750799266601,-39.17687908490724C-70.94688499083252,-48.971098856134056,-70.94688499083252,-48.971098856134056,-85.13626198899901,-58.76531862736086"></path><path d="M-56.75750799266601,-39.17687908490724C-70.94688499083252,-48.971098856134056,-40.06234241756631,-76.33241600458705,-48.07481090107957,-91.59889920550445"></path></g></svg>