<?xml version="1.0" encoding="utf-8"?>
<!-- Generator: Adobe Illustrator 24.1.0, SVG Export Plug-In . SVG Version: 6.00 Build 0)  -->
<svg version="1.1" id="Layer_1" xmlns="http://www.w3.org/2000/svg" xmlns:xlink="http://www.w3.org/1999/xlink" x="0px" y="0px"
	 viewBox="0 0 300 300" style="enable-background:new 0 0 300 300;" xml:space="preserve">
<style type="text/css">
	.radial-total {
		font-family: "Guardian Text Sans Web", "Helvetica Neue", Helvetica, Arial, "Lucida Grande", sans-serif;
		font-size: 12px;
		fill: #D73027;
		font-weight: 600;
	}

	.radial-info {
		font-family: "Guardian Text Sans Web", "Helvetica Neue", Helvetica, Arial, "Lucida Grande", sans-serif;
		font-size: 12px;
		fill: black;
		font-weight: 600;
	}
</style><g transform="translate(150,150)" fill="none" stroke="#555" stroke-opacity="0.4" stroke-width="1.5"><path d="M0,0C-5.327879213361169,16.39752614301989,-5.327879213361169,16.39752614301989,-10.655758426722338,32.79505228603978"></path><path d="M-10.655758426722338,32.79505228603978C-15.983637640083508,49.192578429059665,49.19257842905967,15.983637640083488,65.59010457207955,21.31151685344465"></path><path d="M-10.655758426722338,32.79505228603978C-15.983637640083508,49.192578429059665,-49.192578429059665,-15.983637640083526,-65.59010457207954,-21.3115168534447"></path><path d="M65.59010457207955,21.31151685344465C81.98763071509946,26.639396066805816,81.98763071509947,-26.639396066805798,98.38515685811936,-31.967275280166955"></path><path d="M65.59010457207955,21.31151685344465C81.98763071509946,26.639396066805816,50.67114243900629,69.74284434266792,60.80537092680754,83.69141321120149"></path><path d="M-65.59010457207954,-21.3115168534447C-81.98763071509944,-26.63939606680588,-81.98763071509944,-26.63939606680588,-98.38515685811933,-31.96727528016705"></path></g><g transform="translate(150,150)" font-family="sans-serif" font-size="10" stroke-linejoin="round" stroke-width="3"><text class="testing" style="display: block;" transform="
			rotate(108.00000000000003) 
			translate(0,0) 
			rotate(180)
			"></text><text class="testing" style="display: block;" transform="
			rotate(108.00000000000003) 
			translate(34.48275862068966,0) 
			rotate(180)
			"></text><text class="testing" style="display: block;" transform="
			rotate(18) 
			translate(68.96551724137932,0) 
			rotate(0)
			"></text><text class="testing" style="display: block;" transform="
			rotate(198.00000000000006) 
			translate(68.96551724137932,0) 
			rotate(180)
			"></text><text class="testing" style="display: block;" transform="
			rotate(-17.999999999999986) 
			translate(103.44827586206898,0) 
			rotate(0)
			"></text><text class="testing" style="display: block;" transform="
			rotate(54.00000000000003) 
			translate(103.44827586206898,0) 
			rotate(0)
			"></text><text class="testing" style="display: block;" transform="
			rotate(198.00000000000006) 
			translate(103.44827586206898,0) 
			rotate(180)
			"></text></g><g><circle cx="150" cy="150" r="103.44827586206897" stroke="#555" stroke-opacity="0.4" stroke-width="1.5" fill="none" style="stroke-dasharray: 3, 3;"></circle></g><g><circle cx="150" cy="150" r="68.9655172413793" stroke="#555" stroke-opacity="0.4" stroke-width="1.5" fill="none" style="stroke-dasharray: 3, 3;"></circle></g><g><circle cx="150" cy="150" r="34.482758620689644" stroke="#555" stroke-opacity="0.4" stroke-width="1.5" fill="none" style="stroke-dasharray: 3, 3;"></circle></g><text class="radial-info" x="150" y="15" style="text-anchor: middle;">Influenza (Spanish flu), R naught = 1.8</text><text class="radial-total" x="150" y="285" style="text-anchor: middle;">Total infected: 7</text><g transform="translate(150,150)" fill="none" stroke="#555" stroke-opacity="0.4" stroke-width="1.5"><path d="M0,0C-5.327879213361169,16.39752614301989,-5.327879213361169,16.39752614301989,-10.655758426722338,32.79505228603978"></path><path d="M-10.655758426722338,32.79505228603978C-15.983637640083508,49.192578429059665,49.19257842905967,15.983637640083488,65.59010457207955,21.31151685344465"></path><path d="M-10.655758426722338,32.79505228603978C-15.983637640083508,49.192578429059665,-49.192578429059665,-15.983637640083526,-65.59010457207954,-21.3115168534447"></path><path d="M65.59010457207955,21.31151685344465C81.98763071509946,26.639396066805816,81.98763071509947,-26.639396066805798,98.38515685811936,-31.967275280166955"></path><path d="M65.59010457207955,21.31151685344465C81.98763071509946,26.639396066805816,50.67114243900629,69.74284434266792,60.80537092680754,83.69141321120149"></path><path d="M-65.59010457207954,-21.3115168534447C-81.98763071509944,-26.63939606680588,-81.98763071509944,-26.63939606680588,-98.38515685811933,-31.96727528016705"></path></g><g transform="translate(150,150)" fill="none" stroke="#555" stroke-opacity="0.4" stroke-width="1.5"><path d="M0,0C-5.327879213361169,16.39752614301989,-5.327879213361169,16.39752614301989,-10.655758426722338,32.79505228603978"></path><path d="M-10.655758426722338,32.79505228603978C-15.983637640083508,49.192578429059665,49.19257842905967,15.983637640083488,65.59010457207955,21.31151685344465"></path><path d="M-10.655758426722338,32.79505228603978C-15.983637640083508,49.192578429059665,-49.192578429059665,-15.983637640083526,-65.59010457207954,-21.3115168534447"></path><path d="M65.59010457207955,21.31151685344465C81.98763071509946,26.639396066805816,81.98763071509947,-26.639396066805798,98.38515685811936,-31.967275280166955"></path><path d="M65.59010457207955,21.31151685344465C81.98763071509946,26.639396066805816,50.67114243900629,69.74284434266792,60.80537092680754,83.69141321120149"></path><path d="M-65.59010457207954,-21.3115168534447C-81.98763071509944,-26.63939606680588,-81.98763071509944,-26.63939606680588,-98.38515685811933,-31.96727528016705"></path></g><g transform="translate(150,150)"><circle class="testing" style="display: block;" transform="rotate(108.00000000000003) translate(0,0)" fill="#D73027" r="5"></circle><circle class="testing" style="display: block;" transform="rotate(108.00000000000003) translate(34.48275862068966,0)" fill="#D73027" r="5"></circle><circle class="testing" style="display: block;" transform="rotate(18) translate(68.96551724137932,0)" fill="#D73027" r="5"></circle><circle class="testing" style="display: block;" transform="rotate(198.00000000000006) translate(68.96551724137932,0)" fill="#D73027" r="5"></circle><circle class="testing" style="display: block;" transform="rotate(-17.999999999999986) translate(103.44827586206898,0)" fill="#D73027" r="5"></circle><circle class="testing" style="display: block;" transform="rotate(54.00000000000003) translate(103.44827586206898,0)" fill="#D73027" r="5"></circle><circle class="testing" style="display: block;" transform="rotate(198.00000000000006) translate(103.44827586206898,0)" fill="#D73027" r="5"></circle></g></svg>