<?xml version="1.0" encoding="utf-8"?>
<!-- Generator: Adobe Illustrator 24.1.0, SVG Export Plug-In . SVG Version: 6.00 Build 0)  -->
<svg version="1.1" id="Layer_1" xmlns="http://www.w3.org/2000/svg" xmlns:xlink="http://www.w3.org/1999/xlink" x="0px" y="0px"
	 viewBox="0 0 300 300" style="enable-background:new 0 0 300 300;" xml:space="preserve">
<style type="text/css">
	.radial-total {
		font-family: "Guardian Text Sans Web", "Helvetica Neue", Helvetica, Arial, "Lucida Grande", sans-serif;
		font-size: 12px;
		fill: red;
		font-weight: 600;
	}

	.radial-info {
		font-family: "Guardian Text Sans Web", "Helvetica Neue", Helvetica, Arial, "Lucida Grande", sans-serif;
		font-size: 12px;
		fill: black;
		font-weight: 600;
	}
</style>
	<g transform="translate(150,150)" fill="none" stroke="#555" stroke-opacity="0.4" stroke-width="1.5"><path d="M0,0C8.712440513921212e-15,17.24137931034483,17.24137931034483,-3.828355257328126e-15,34.48275862068966,-7.656710514656253e-15"></path><path d="M0,0C8.712440513921212e-15,17.24137931034483,-17.24137931034483,2.1114599985299196e-15,-34.48275862068966,4.222919997059839e-15"></path><path d="M34.48275862068966,-7.656710514656253e-15C51.72413793103449,-1.148506577198438e-14,36.574488682062814,-36.57448868206281,48.76598490941708,-48.76598490941707"></path><path d="M34.48275862068966,-7.656710514656253e-15C51.72413793103449,-1.148506577198438e-14,36.57448868206282,36.57448868206279,48.76598490941709,48.76598490941706"></path><path d="M-34.48275862068966,4.222919997059839e-15C-51.72413793103449,6.334379995589759e-15,-36.57448868206281,36.574488682062814,-48.76598490941707,48.76598490941708"></path><path d="M-34.48275862068966,4.222919997059839e-15C-51.72413793103449,6.334379995589759e-15,-36.574488682062814,-36.57448868206281,-48.765984909417085,-48.76598490941707"></path><path d="M48.76598490941708,-48.76598490941707C60.95748113677136,-60.95748113677135,43.10344827586207,-74.65736239521026,51.72413793103448,-89.5888348742523"></path><path d="M48.76598490941708,-48.76598490941707C60.95748113677136,-60.95748113677135,74.65736239521023,-43.1034482758621,89.58883487425227,-51.72413793103451"></path><path d="M48.76598490941709,48.76598490941706C60.95748113677138,60.95748113677133,74.65736239521026,43.103448275862064,89.5888348742523,51.72413793103448"></path><path d="M48.76598490941709,48.76598490941706C60.95748113677138,60.95748113677133,43.10344827586211,74.65736239521023,51.72413793103453,89.58883487425227"></path><path d="M-48.76598490941707,48.76598490941708C-60.95748113677135,60.95748113677136,-43.10344827586203,74.65736239521028,-51.724137931034434,89.58883487425233"></path><path d="M-48.76598490941707,48.76598490941708C-60.95748113677135,60.95748113677136,-74.65736239521023,43.10344827586211,-89.58883487425227,51.72413793103453"></path><path d="M-48.765984909417085,-48.76598490941707C-60.957481136771364,-60.95748113677135,-74.65736239521028,-43.10344827586203,-89.58883487425233,-51.72413793103443"></path><path d="M-48.765984909417085,-48.76598490941707C-60.957481136771364,-60.95748113677135,-43.103448275862114,-74.65736239521023,-51.724137931034534,-89.58883487425227"></path></g><g transform="translate(150,150)" font-family="sans-serif" font-size="10" stroke-linejoin="round" stroke-width="3"><text class="testing" style="display: block;" transform="
			rotate(89.99999999999997) 
			translate(0,0) 
			rotate(0)
			"></text><text class="testing" style="display: block;" transform="
			rotate(-1.4210854715202004e-14) 
			translate(34.48275862068966,0) 
			rotate(0)
			"></text><text class="testing" style="display: block;" transform="
			rotate(180) 
			translate(34.48275862068966,0) 
			rotate(180)
			"></text><text class="testing" style="display: block;" transform="
			rotate(-45) 
			translate(68.96551724137932,0) 
			rotate(0)
			"></text><text class="testing" style="display: block;" transform="
			rotate(44.99999999999997) 
			translate(68.96551724137932,0) 
			rotate(0)
			"></text><text class="testing" style="display: block;" transform="
			rotate(135) 
			translate(68.96551724137932,0) 
			rotate(180)
			"></text><text class="testing" style="display: block;" transform="
			rotate(225) 
			translate(68.96551724137932,0) 
			rotate(180)
			"></text><text class="testing" style="display: block;" transform="
			rotate(-60.00000000000001) 
			translate(103.44827586206898,0) 
			rotate(0)
			"></text><text class="testing" style="display: block;" transform="
			rotate(-30.000000000000014) 
			translate(103.44827586206898,0) 
			rotate(0)
			"></text><text class="testing" style="display: block;" transform="
			rotate(29.999999999999986) 
			translate(103.44827586206898,0) 
			rotate(0)
			"></text><text class="testing" style="display: block;" transform="
			rotate(59.99999999999997) 
			translate(103.44827586206898,0) 
			rotate(0)
			"></text><text class="testing" style="display: block;" transform="
			rotate(119.99999999999997) 
			translate(103.44827586206898,0) 
			rotate(180)
			"></text><text class="testing" style="display: block;" transform="
			rotate(149.99999999999997) 
			translate(103.44827586206898,0) 
			rotate(180)
			"></text><text class="testing" style="display: block;" transform="
			rotate(209.99999999999994) 
			translate(103.44827586206898,0) 
			rotate(180)
			"></text><text class="testing" style="display: block;" transform="
			rotate(239.99999999999994) 
			translate(103.44827586206898,0) 
			rotate(180)
			"></text></g><g><circle cx="150" cy="150" r="103.44827586206897" stroke="#555" stroke-opacity="0.4" stroke-width="1.5" fill="none" style="stroke-dasharray: 3, 3;"></circle></g><g><circle cx="150" cy="150" r="68.9655172413793" stroke="#555" stroke-opacity="0.4" stroke-width="1.5" fill="none" style="stroke-dasharray: 3, 3;"></circle></g><g><circle cx="150" cy="150" r="34.482758620689644" stroke="#555" stroke-opacity="0.4" stroke-width="1.5" fill="none" style="stroke-dasharray: 3, 3;"></circle></g><text class="radial-info" x="150" y="15" style="text-anchor: middle;">Covid-19 (low), R naught = 2</text><text class="radial-total" x="150" y="285" style="text-anchor: middle;">Total infected: 15</text><g transform="translate(150,150)" fill="none" stroke="#555" stroke-opacity="0.4" stroke-width="1.5"><path d="M0,0C8.712440513921212e-15,17.24137931034483,17.24137931034483,-3.828355257328126e-15,34.48275862068966,-7.656710514656253e-15"></path><path d="M0,0C8.712440513921212e-15,17.24137931034483,-17.24137931034483,2.1114599985299196e-15,-34.48275862068966,4.222919997059839e-15"></path><path d="M34.48275862068966,-7.656710514656253e-15C51.72413793103449,-1.148506577198438e-14,36.574488682062814,-36.57448868206281,48.76598490941708,-48.76598490941707"></path><path d="M34.48275862068966,-7.656710514656253e-15C51.72413793103449,-1.148506577198438e-14,36.57448868206282,36.57448868206279,48.76598490941709,48.76598490941706"></path><path d="M-34.48275862068966,4.222919997059839e-15C-51.72413793103449,6.334379995589759e-15,-36.57448868206281,36.574488682062814,-48.76598490941707,48.76598490941708"></path><path d="M-34.48275862068966,4.222919997059839e-15C-51.72413793103449,6.334379995589759e-15,-36.574488682062814,-36.57448868206281,-48.765984909417085,-48.76598490941707"></path><path d="M48.76598490941708,-48.76598490941707C60.95748113677136,-60.95748113677135,43.10344827586207,-74.65736239521026,51.72413793103448,-89.5888348742523"></path><path d="M48.76598490941708,-48.76598490941707C60.95748113677136,-60.95748113677135,74.65736239521023,-43.1034482758621,89.58883487425227,-51.72413793103451"></path><path d="M48.76598490941709,48.76598490941706C60.95748113677138,60.95748113677133,74.65736239521026,43.103448275862064,89.5888348742523,51.72413793103448"></path><path d="M48.76598490941709,48.76598490941706C60.95748113677138,60.95748113677133,43.10344827586211,74.65736239521023,51.72413793103453,89.58883487425227"></path><path d="M-48.76598490941707,48.76598490941708C-60.95748113677135,60.95748113677136,-43.10344827586203,74.65736239521028,-51.724137931034434,89.58883487425233"></path><path d="M-48.76598490941707,48.76598490941708C-60.95748113677135,60.95748113677136,-74.65736239521023,43.10344827586211,-89.58883487425227,51.72413793103453"></path><path d="M-48.765984909417085,-48.76598490941707C-60.957481136771364,-60.95748113677135,-74.65736239521028,-43.10344827586203,-89.58883487425233,-51.72413793103443"></path><path d="M-48.765984909417085,-48.76598490941707C-60.957481136771364,-60.95748113677135,-43.103448275862114,-74.65736239521023,-51.724137931034534,-89.58883487425227"></path></g><g transform="translate(150,150)" fill="none" stroke="#555" stroke-opacity="0.4" stroke-width="1.5"><path d="M0,0C8.712440513921212e-15,17.24137931034483,17.24137931034483,-3.828355257328126e-15,34.48275862068966,-7.656710514656253e-15"></path><path d="M0,0C8.712440513921212e-15,17.24137931034483,-17.24137931034483,2.1114599985299196e-15,-34.48275862068966,4.222919997059839e-15"></path><path d="M34.48275862068966,-7.656710514656253e-15C51.72413793103449,-1.148506577198438e-14,36.574488682062814,-36.57448868206281,48.76598490941708,-48.76598490941707"></path><path d="M34.48275862068966,-7.656710514656253e-15C51.72413793103449,-1.148506577198438e-14,36.57448868206282,36.57448868206279,48.76598490941709,48.76598490941706"></path><path d="M-34.48275862068966,4.222919997059839e-15C-51.72413793103449,6.334379995589759e-15,-36.57448868206281,36.574488682062814,-48.76598490941707,48.76598490941708"></path><path d="M-34.48275862068966,4.222919997059839e-15C-51.72413793103449,6.334379995589759e-15,-36.574488682062814,-36.57448868206281,-48.765984909417085,-48.76598490941707"></path><path d="M48.76598490941708,-48.76598490941707C60.95748113677136,-60.95748113677135,43.10344827586207,-74.65736239521026,51.72413793103448,-89.5888348742523"></path><path d="M48.76598490941708,-48.76598490941707C60.95748113677136,-60.95748113677135,74.65736239521023,-43.1034482758621,89.58883487425227,-51.72413793103451"></path><path d="M48.76598490941709,48.76598490941706C60.95748113677138,60.95748113677133,74.65736239521026,43.103448275862064,89.5888348742523,51.72413793103448"></path><path d="M48.76598490941709,48.76598490941706C60.95748113677138,60.95748113677133,43.10344827586211,74.65736239521023,51.72413793103453,89.58883487425227"></path><path d="M-48.76598490941707,48.76598490941708C-60.95748113677135,60.95748113677136,-43.10344827586203,74.65736239521028,-51.724137931034434,89.58883487425233"></path><path d="M-48.76598490941707,48.76598490941708C-60.95748113677135,60.95748113677136,-74.65736239521023,43.10344827586211,-89.58883487425227,51.72413793103453"></path><path d="M-48.765984909417085,-48.76598490941707C-60.957481136771364,-60.95748113677135,-74.65736239521028,-43.10344827586203,-89.58883487425233,-51.72413793103443"></path><path d="M-48.765984909417085,-48.76598490941707C-60.957481136771364,-60.95748113677135,-43.103448275862114,-74.65736239521023,-51.724137931034534,-89.58883487425227"></path></g><g transform="translate(150,150)"><circle class="testing" style="display: block;" transform="rotate(89.99999999999997) translate(0,0)" fill="red" r="5"></circle><circle class="testing" style="display: block;" transform="rotate(-1.4210854715202004e-14) translate(34.48275862068966,0)" fill="red" r="5"></circle><circle class="testing" style="display: block;" transform="rotate(180) translate(34.48275862068966,0)" fill="red" r="5"></circle><circle class="testing" style="display: block;" transform="rotate(-45) translate(68.96551724137932,0)" fill="red" r="5"></circle><circle class="testing" style="display: block;" transform="rotate(44.99999999999997) translate(68.96551724137932,0)" fill="red" r="5"></circle><circle class="testing" style="display: block;" transform="rotate(135) translate(68.96551724137932,0)" fill="red" r="5"></circle><circle class="testing" style="display: block;" transform="rotate(225) translate(68.96551724137932,0)" fill="red" r="5"></circle><circle class="testing" style="display: block;" transform="rotate(-60.00000000000001) translate(103.44827586206898,0)" fill="red" r="5"></circle><circle class="testing" style="display: block;" transform="rotate(-30.000000000000014) translate(103.44827586206898,0)" fill="red" r="5"></circle><circle class="testing" style="display: block;" transform="rotate(29.999999999999986) translate(103.44827586206898,0)" fill="red" r="5"></circle><circle class="testing" style="display: block;" transform="rotate(59.99999999999997) translate(103.44827586206898,0)" fill="red" r="5"></circle><circle class="testing" style="display: block;" transform="rotate(119.99999999999997) translate(103.44827586206898,0)" fill="red" r="5"></circle><circle class="testing" style="display: block;" transform="rotate(149.99999999999997) translate(103.44827586206898,0)" fill="red" r="5"></circle><circle class="testing" style="display: block;" transform="rotate(209.99999999999994) translate(103.44827586206898,0)" fill="red" r="5"></circle><circle class="testing" style="display: block;" transform="rotate(239.99999999999994) translate(103.44827586206898,0)" fill="red" r="5"></circle></g></svg>