<svg xmlns="http://www.w3.org/2000/svg" width="300" height="300" preserveAspectRatio="xMinYMin meet" viewBox="0 0 300 300" class="svg-content"><g transform="translate(150,150)" fill="none" stroke="#555" stroke-opacity="0.4" stroke-width="1.5"><path d="M0,0C1.0557299992649598e-15,17.24137931034483,1.0557299992649598e-15,17.24137931034483,2.1114599985299196e-15,34.48275862068966"></path><path d="M2.1114599985299196e-15,34.48275862068966C3.1671899977948795e-15,51.72413793103449,3.1671899977948795e-15,51.72413793103449,4.222919997059839e-15,68.96551724137932"></path><path d="M4.222919997059839e-15,68.96551724137932C5.2786499963247995e-15,86.20689655172416,5.2786499963247995e-15,86.20689655172416,6.334379995589759e-15,103.44827586206898"></path></g><g transform="translate(150,150)"><circle class="testing" style="display: block;" transform="rotate(90) translate(0,0)" fill="red" r="5"></circle><circle class="testing" style="display: block;" transform="rotate(90) translate(34.48275862068966,0)" fill="red" r="5"></circle><circle class="testing" style="display: block;" transform="rotate(90) translate(68.96551724137932,0)" fill="red" r="5"></circle><circle class="testing" style="display: block;" transform="rotate(90) translate(103.44827586206898,0)" fill="red" r="5"></circle></g><g transform="translate(150,150)" font-family="sans-serif" font-size="10" stroke-linejoin="round" stroke-width="3"><text class="testing" style="display: block;" transform="
			rotate(90) 
			translate(0,0) 
			rotate(180)
			"></text><text class="testing" style="display: block;" transform="
			rotate(90) 
			translate(34.48275862068966,0) 
			rotate(180)
			"></text><text class="testing" style="display: block;" transform="
			rotate(90) 
			translate(68.96551724137932,0) 
			rotate(180)
			"></text><text class="testing" style="display: block;" transform="
			rotate(90) 
			translate(103.44827586206898,0) 
			rotate(180)
			"></text></g><g><circle cx="150" cy="150" r="103.44827586206897" stroke="#555" stroke-opacity="0.4" stroke-width="1.5" fill="none" style="stroke-dasharray: 3, 3;"></circle></g><text x="150" y="248.44827586206895" font-family="sans-serif" font-size="12px" fill="black" style="text-anchor: middle;">3</text><g><circle cx="150" cy="150" r="68.9655172413793" stroke="#555" stroke-opacity="0.4" stroke-width="1.5" fill="none" style="stroke-dasharray: 3, 3;"></circle></g><text x="150" y="213.9655172413793" font-family="sans-serif" font-size="12px" fill="black" style="text-anchor: middle;">2</text><g><circle cx="150" cy="150" r="34.482758620689644" stroke="#555" stroke-opacity="0.4" stroke-width="1.5" fill="none" style="stroke-dasharray: 3, 3;"></circle></g><text x="150" y="179.48275862068965" font-family="sans-serif" font-size="12px" fill="black" style="text-anchor: middle;">1</text><text class="radial-info" x="150" y="15" style="text-anchor: middle;">Influenza (bird flu), R naught = 1</text><text class="radial-total" x="150" y="285" style="text-anchor: middle;">Total infected: 4</text><g transform="translate(150,150)" fill="none" stroke="#555" stroke-opacity="0.4" stroke-width="1.5"><path d="M0,0C1.0557299992649598e-15,17.24137931034483,1.0557299992649598e-15,17.24137931034483,2.1114599985299196e-15,34.48275862068966"></path><path d="M2.1114599985299196e-15,34.48275862068966C3.1671899977948795e-15,51.72413793103449,3.1671899977948795e-15,51.72413793103449,4.222919997059839e-15,68.96551724137932"></path><path d="M4.222919997059839e-15,68.96551724137932C5.2786499963247995e-15,86.20689655172416,5.2786499963247995e-15,86.20689655172416,6.334379995589759e-15,103.44827586206898"></path></g><g transform="translate(150,150)" fill="none" stroke="#555" stroke-opacity="0.4" stroke-width="1.5"><path d="M0,0C1.0557299992649598e-15,17.24137931034483,1.0557299992649598e-15,17.24137931034483,2.1114599985299196e-15,34.48275862068966"></path><path d="M2.1114599985299196e-15,34.48275862068966C3.1671899977948795e-15,51.72413793103449,3.1671899977948795e-15,51.72413793103449,4.222919997059839e-15,68.96551724137932"></path><path d="M4.222919997059839e-15,68.96551724137932C5.2786499963247995e-15,86.20689655172416,5.2786499963247995e-15,86.20689655172416,6.334379995589759e-15,103.44827586206898"></path></g></svg>