<svg xmlns="http://www.w3.org/2000/svg" width="300" height="300" preserveAspectRatio="xMinYMin meet" viewBox="0 0 300 300" class="svg-content"><g transform="translate(150,150)" fill="none" stroke="#555" stroke-opacity="0.4" stroke-width="1.5"><path d="M0,0C1.6369151028577463e-14,17.24137931034483,14.931472479042046,-8.620689655172415,29.862944958084093,-17.24137931034483"></path><path d="M0,0C1.6369151028577463e-14,17.24137931034483,1.0557299992649598e-15,17.24137931034483,2.1114599985299196e-15,34.48275862068966"></path><path d="M0,0C1.6369151028577463e-14,17.24137931034483,-14.931472479042053,-8.620689655172404,-29.862944958084107,-17.241379310344808"></path><path d="M29.862944958084093,-17.24137931034483C44.79441743712614,-25.862068965517246,17.690697068569058,-48.60479073030562,23.587596091425407,-64.8063876404075"></path><path d="M29.862944958084093,-17.24137931034483C44.79441743712614,-25.862068965517246,44.794417437126135,-25.862068965517256,59.72588991616818,-34.48275862068967"></path><path d="M29.862944958084093,-17.24137931034483C44.79441743712614,-25.862068965517246,50.9383320523556,8.981802293117077,67.91777606980746,11.97573639082277"></path><path d="M2.1114599985299196e-15,34.48275862068966C3.1671899977948795e-15,51.72413793103449,33.24763498378655,39.62298843718851,44.33017997838206,52.83065124958467"></path><path d="M2.1114599985299196e-15,34.48275862068966C3.1671899977948795e-15,51.72413793103449,4.9107453085732396e-14,51.72413793103449,6.547660411430985e-14,68.96551724137932"></path><path d="M2.1114599985299196e-15,34.48275862068966C3.1671899977948795e-15,51.72413793103449,-33.24763498378649,39.62298843718855,-44.330179978381985,52.83065124958473"></path><path d="M-29.862944958084107,-17.241379310344808C-44.794417437126164,-25.862068965517214,-50.93833205235559,8.981802293117129,-67.91777606980745,11.975736390822838"></path><path d="M-29.862944958084107,-17.241379310344808C-44.794417437126164,-25.862068965517214,-44.794417437126164,-25.862068965517214,-59.725889916168214,-34.482758620689616"></path><path d="M-29.862944958084107,-17.241379310344808C-44.794417437126164,-25.862068965517214,-17.69069706856915,-48.60479073030559,-23.587596091425535,-64.80638764040745"></path><path d="M23.587596091425407,-64.8063876404075C29.484495114281764,-81.00798455050938,14.96967048852847,-84.89722008725934,17.963604586234165,-101.8766641047112"></path><path d="M23.587596091425407,-64.8063876404075C29.484495114281764,-81.00798455050938,29.484495114281764,-81.00798455050938,35.381394137138116,-97.20958146061125"></path><path d="M23.587596091425407,-64.8063876404075C29.484495114281764,-81.00798455050938,43.10344827586207,-74.65736239521026,51.72413793103448,-89.5888348742523"></path><path d="M59.72588991616818,-34.48275862068967C74.65736239521023,-43.1034482758621,66.03831406198087,-55.412724972977564,79.24597687437704,-66.49526996757307"></path><path d="M59.72588991616818,-34.48275862068967C74.65736239521023,-43.1034482758621,74.65736239521023,-43.1034482758621,89.58883487425227,-51.72413793103451"></path><path d="M59.72588991616818,-34.48275862068967C74.65736239521023,-43.1034482758621,81.00798455050935,-29.48449511428183,97.2095814606112,-35.381394137138194"></path><path d="M67.91777606980746,11.97573639082277C84.89722008725934,14.969670488528463,86.20689655172416,-3.828355257328127e-14,103.44827586206898,-4.594026308793752e-14"></path><path d="M67.91777606980746,11.97573639082277C84.89722008725934,14.969670488528463,84.89722008725934,14.969670488528463,101.8766641047112,17.963604586234155"></path><path d="M67.91777606980746,11.97573639082277C84.89722008725934,14.969670488528463,81.00798455050938,29.48449511428176,97.20958146061125,35.38139413713811"></path><path d="M44.33017997838206,52.83065124958467C55.41272497297758,66.03831406198086,66.03831406198093,55.412724972977486,79.2459768743771,66.49526996757298"></path><path d="M44.33017997838206,52.83065124958467C55.41272497297758,66.03831406198086,55.41272497297758,66.03831406198086,66.4952699675731,79.24597687437702"></path><path d="M44.33017997838206,52.83065124958467C55.41272497297758,66.03831406198086,43.103448275862135,74.65736239521021,51.72413793103456,89.58883487425224"></path><path d="M6.547660411430985e-14,68.96551724137932C8.184575514288732e-14,86.20689655172416,14.969670488528545,84.89722008725933,17.963604586234254,101.87666410471118"></path><path d="M6.547660411430985e-14,68.96551724137932C8.184575514288732e-14,86.20689655172416,8.184575514288732e-14,86.20689655172416,9.821490617146479e-14,103.44827586206898"></path><path d="M6.547660411430985e-14,68.96551724137932C8.184575514288732e-14,86.20689655172416,-14.96967048852842,84.89722008725934,-17.963604586234105,101.8766641047112"></path><path d="M-44.330179978381985,52.83065124958473C-55.412724972977486,66.03831406198093,-43.10344827586203,74.65736239521028,-51.724137931034434,89.58883487425233"></path><path d="M-44.330179978381985,52.83065124958473C-55.412724972977486,66.03831406198093,-55.412724972977486,66.03831406198093,-66.49526996757298,79.2459768743771"></path><path d="M-44.330179978381985,52.83065124958473C-55.412724972977486,66.03831406198093,-66.03831406198081,55.41272497297761,-79.24597687437698,66.49526996757312"></path><path d="M-67.91777606980745,11.975736390822838C-84.89722008725933,14.96967048852855,-81.00798455050935,29.484495114281845,-97.2095814606112,35.38139413713821"></path><path d="M-67.91777606980745,11.975736390822838C-84.89722008725933,14.96967048852855,-84.89722008725933,14.96967048852855,-101.87666410471118,17.963604586234258"></path><path d="M-67.91777606980745,11.975736390822838C-84.89722008725933,14.96967048852855,-86.20689655172416,1.0557299992649599e-14,-103.44827586206898,1.2668759991179518e-14"></path><path d="M-59.725889916168214,-34.482758620689616C-74.65736239521028,-43.10344827586203,-81.00798455050938,-29.48449511428175,-97.20958146061125,-35.381394137138095"></path><path d="M-59.725889916168214,-34.482758620689616C-74.65736239521028,-43.10344827586203,-74.65736239521028,-43.10344827586203,-89.58883487425233,-51.72413793103443"></path><path d="M-59.725889916168214,-34.482758620689616C-74.65736239521028,-43.10344827586203,-66.03831406198094,-55.41272497297748,-79.24597687437712,-66.49526996757297"></path><path d="M-23.587596091425535,-64.80638764040745C-29.48449511428192,-81.00798455050932,-43.103448275862114,-74.65736239521023,-51.724137931034534,-89.58883487425227"></path><path d="M-23.587596091425535,-64.80638764040745C-29.48449511428192,-81.00798455050932,-29.48449511428192,-81.00798455050932,-35.3813941371383,-97.20958146061118"></path><path d="M-23.587596091425535,-64.80638764040745C-29.48449511428192,-81.00798455050932,-14.969670488528553,-84.89722008725933,-17.963604586234265,-101.87666410471118"></path></g><g transform="translate(150,150)" font-family="sans-serif" font-size="10" stroke-linejoin="round" stroke-width="3"><text class="testing" style="display: block;" transform="
			rotate(89.99999999999994) 
			translate(0,0) 
			rotate(0)
			"></text><text class="testing" style="display: block;" transform="
			rotate(-30.000000000000007) 
			translate(34.48275862068966,0) 
			rotate(0)
			"></text><text class="testing" style="display: block;" transform="
			rotate(90) 
			translate(34.48275862068966,0) 
			rotate(180)
			"></text><text class="testing" style="display: block;" transform="
			rotate(209.99999999999994) 
			translate(34.48275862068966,0) 
			rotate(180)
			"></text><text class="testing" style="display: block;" transform="
			rotate(-70.00000000000003) 
			translate(68.96551724137932,0) 
			rotate(0)
			"></text><text class="testing" style="display: block;" transform="
			rotate(-30.000000000000014) 
			translate(68.96551724137932,0) 
			rotate(0)
			"></text><text class="testing" style="display: block;" transform="
			rotate(9.999999999999986) 
			translate(68.96551724137932,0) 
			rotate(0)
			"></text><text class="testing" style="display: block;" transform="
			rotate(49.99999999999997) 
			translate(68.96551724137932,0) 
			rotate(0)
			"></text><text class="testing" style="display: block;" transform="
			rotate(89.99999999999994) 
			translate(68.96551724137932,0) 
			rotate(0)
			"></text><text class="testing" style="display: block;" transform="
			rotate(129.99999999999994) 
			translate(68.96551724137932,0) 
			rotate(180)
			"></text><text class="testing" style="display: block;" transform="
			rotate(169.99999999999994) 
			translate(68.96551724137932,0) 
			rotate(180)
			"></text><text class="testing" style="display: block;" transform="
			rotate(209.99999999999994) 
			translate(68.96551724137932,0) 
			rotate(180)
			"></text><text class="testing" style="display: block;" transform="
			rotate(249.99999999999994) 
			translate(68.96551724137932,0) 
			rotate(180)
			"></text><text class="testing" style="display: block;" transform="
			rotate(-80.00000000000001) 
			translate(103.44827586206898,0) 
			rotate(0)
			"></text><text class="testing" style="display: block;" transform="
			rotate(-70.00000000000003) 
			translate(103.44827586206898,0) 
			rotate(0)
			"></text><text class="testing" style="display: block;" transform="
			rotate(-60) 
			translate(103.44827586206898,0) 
			rotate(0)
			"></text><text class="testing" style="display: block;" transform="
			rotate(-40.000000000000014) 
			translate(103.44827586206898,0) 
			rotate(0)
			"></text><text class="testing" style="display: block;" transform="
			rotate(-30.000000000000014) 
			translate(103.44827586206898,0) 
			rotate(0)
			"></text><text class="testing" style="display: block;" transform="
			rotate(-20.00000000000003) 
			translate(103.44827586206898,0) 
			rotate(0)
			"></text><text class="testing" style="display: block;" transform="
			rotate(-2.842170943040401e-14) 
			translate(103.44827586206898,0) 
			rotate(0)
			"></text><text class="testing" style="display: block;" transform="
			rotate(9.999999999999986) 
			translate(103.44827586206898,0) 
			rotate(0)
			"></text><text class="testing" style="display: block;" transform="
			rotate(19.99999999999997) 
			translate(103.44827586206898,0) 
			rotate(0)
			"></text><text class="testing" style="display: block;" transform="
			rotate(39.99999999999994) 
			translate(103.44827586206898,0) 
			rotate(0)
			"></text><text class="testing" style="display: block;" transform="
			rotate(49.99999999999997) 
			translate(103.44827586206898,0) 
			rotate(0)
			"></text><text class="testing" style="display: block;" transform="
			rotate(59.99999999999997) 
			translate(103.44827586206898,0) 
			rotate(0)
			"></text><text class="testing" style="display: block;" transform="
			rotate(79.99999999999997) 
			translate(103.44827586206898,0) 
			rotate(0)
			"></text><text class="testing" style="display: block;" transform="
			rotate(89.99999999999994) 
			translate(103.44827586206898,0) 
			rotate(0)
			"></text><text class="testing" style="display: block;" transform="
			rotate(99.99999999999997) 
			translate(103.44827586206898,0) 
			rotate(180)
			"></text><text class="testing" style="display: block;" transform="
			rotate(119.99999999999997) 
			translate(103.44827586206898,0) 
			rotate(180)
			"></text><text class="testing" style="display: block;" transform="
			rotate(129.99999999999994) 
			translate(103.44827586206898,0) 
			rotate(180)
			"></text><text class="testing" style="display: block;" transform="
			rotate(139.99999999999994) 
			translate(103.44827586206898,0) 
			rotate(180)
			"></text><text class="testing" style="display: block;" transform="
			rotate(159.99999999999997) 
			translate(103.44827586206898,0) 
			rotate(180)
			"></text><text class="testing" style="display: block;" transform="
			rotate(169.99999999999994) 
			translate(103.44827586206898,0) 
			rotate(180)
			"></text><text class="testing" style="display: block;" transform="
			rotate(180) 
			translate(103.44827586206898,0) 
			rotate(180)
			"></text><text class="testing" style="display: block;" transform="
			rotate(200) 
			translate(103.44827586206898,0) 
			rotate(180)
			"></text><text class="testing" style="display: block;" transform="
			rotate(209.99999999999994) 
			translate(103.44827586206898,0) 
			rotate(180)
			"></text><text class="testing" style="display: block;" transform="
			rotate(219.99999999999994) 
			translate(103.44827586206898,0) 
			rotate(180)
			"></text><text class="testing" style="display: block;" transform="
			rotate(239.99999999999994) 
			translate(103.44827586206898,0) 
			rotate(180)
			"></text><text class="testing" style="display: block;" transform="
			rotate(249.99999999999994) 
			translate(103.44827586206898,0) 
			rotate(180)
			"></text><text class="testing" style="display: block;" transform="
			rotate(259.99999999999994) 
			translate(103.44827586206898,0) 
			rotate(180)
			"></text></g><g><circle cx="150" cy="150" r="103.44827586206897" stroke="#555" stroke-opacity="0.4" stroke-width="1.5" fill="none" style="stroke-dasharray: 3, 3;"></circle></g><g><circle cx="150" cy="150" r="68.9655172413793" stroke="#555" stroke-opacity="0.4" stroke-width="1.5" fill="none" style="stroke-dasharray: 3, 3;"></circle></g><g><circle cx="150" cy="150" r="34.482758620689644" stroke="#555" stroke-opacity="0.4" stroke-width="1.5" fill="none" style="stroke-dasharray: 3, 3;"></circle></g><text class="radial-info" x="150" y="15" style="text-anchor: middle;">Covid-19 (high), R naught = 3</text><text class="radial-total" x="150" y="285" style="text-anchor: middle;">Total infected: 40</text><g transform="translate(150,150)" fill="none" stroke="#555" stroke-opacity="0.4" stroke-width="1.5"><path d="M0,0C1.6369151028577463e-14,17.24137931034483,14.931472479042046,-8.620689655172415,29.862944958084093,-17.24137931034483"></path><path d="M0,0C1.6369151028577463e-14,17.24137931034483,1.0557299992649598e-15,17.24137931034483,2.1114599985299196e-15,34.48275862068966"></path><path d="M0,0C1.6369151028577463e-14,17.24137931034483,-14.931472479042053,-8.620689655172404,-29.862944958084107,-17.241379310344808"></path><path d="M29.862944958084093,-17.24137931034483C44.79441743712614,-25.862068965517246,17.690697068569058,-48.60479073030562,23.587596091425407,-64.8063876404075"></path><path d="M29.862944958084093,-17.24137931034483C44.79441743712614,-25.862068965517246,44.794417437126135,-25.862068965517256,59.72588991616818,-34.48275862068967"></path><path d="M29.862944958084093,-17.24137931034483C44.79441743712614,-25.862068965517246,50.9383320523556,8.981802293117077,67.91777606980746,11.97573639082277"></path><path d="M2.1114599985299196e-15,34.48275862068966C3.1671899977948795e-15,51.72413793103449,33.24763498378655,39.62298843718851,44.33017997838206,52.83065124958467"></path><path d="M2.1114599985299196e-15,34.48275862068966C3.1671899977948795e-15,51.72413793103449,4.9107453085732396e-14,51.72413793103449,6.547660411430985e-14,68.96551724137932"></path><path d="M2.1114599985299196e-15,34.48275862068966C3.1671899977948795e-15,51.72413793103449,-33.24763498378649,39.62298843718855,-44.330179978381985,52.83065124958473"></path><path d="M-29.862944958084107,-17.241379310344808C-44.794417437126164,-25.862068965517214,-50.93833205235559,8.981802293117129,-67.91777606980745,11.975736390822838"></path><path d="M-29.862944958084107,-17.241379310344808C-44.794417437126164,-25.862068965517214,-44.794417437126164,-25.862068965517214,-59.725889916168214,-34.482758620689616"></path><path d="M-29.862944958084107,-17.241379310344808C-44.794417437126164,-25.862068965517214,-17.69069706856915,-48.60479073030559,-23.587596091425535,-64.80638764040745"></path><path d="M23.587596091425407,-64.8063876404075C29.484495114281764,-81.00798455050938,14.96967048852847,-84.89722008725934,17.963604586234165,-101.8766641047112"></path><path d="M23.587596091425407,-64.8063876404075C29.484495114281764,-81.00798455050938,29.484495114281764,-81.00798455050938,35.381394137138116,-97.20958146061125"></path><path d="M23.587596091425407,-64.8063876404075C29.484495114281764,-81.00798455050938,43.10344827586207,-74.65736239521026,51.72413793103448,-89.5888348742523"></path><path d="M59.72588991616818,-34.48275862068967C74.65736239521023,-43.1034482758621,66.03831406198087,-55.412724972977564,79.24597687437704,-66.49526996757307"></path><path d="M59.72588991616818,-34.48275862068967C74.65736239521023,-43.1034482758621,74.65736239521023,-43.1034482758621,89.58883487425227,-51.72413793103451"></path><path d="M59.72588991616818,-34.48275862068967C74.65736239521023,-43.1034482758621,81.00798455050935,-29.48449511428183,97.2095814606112,-35.381394137138194"></path><path d="M67.91777606980746,11.97573639082277C84.89722008725934,14.969670488528463,86.20689655172416,-3.828355257328127e-14,103.44827586206898,-4.594026308793752e-14"></path><path d="M67.91777606980746,11.97573639082277C84.89722008725934,14.969670488528463,84.89722008725934,14.969670488528463,101.8766641047112,17.963604586234155"></path><path d="M67.91777606980746,11.97573639082277C84.89722008725934,14.969670488528463,81.00798455050938,29.48449511428176,97.20958146061125,35.38139413713811"></path><path d="M44.33017997838206,52.83065124958467C55.41272497297758,66.03831406198086,66.03831406198093,55.412724972977486,79.2459768743771,66.49526996757298"></path><path d="M44.33017997838206,52.83065124958467C55.41272497297758,66.03831406198086,55.41272497297758,66.03831406198086,66.4952699675731,79.24597687437702"></path><path d="M44.33017997838206,52.83065124958467C55.41272497297758,66.03831406198086,43.103448275862135,74.65736239521021,51.72413793103456,89.58883487425224"></path><path d="M6.547660411430985e-14,68.96551724137932C8.184575514288732e-14,86.20689655172416,14.969670488528545,84.89722008725933,17.963604586234254,101.87666410471118"></path><path d="M6.547660411430985e-14,68.96551724137932C8.184575514288732e-14,86.20689655172416,8.184575514288732e-14,86.20689655172416,9.821490617146479e-14,103.44827586206898"></path><path d="M6.547660411430985e-14,68.96551724137932C8.184575514288732e-14,86.20689655172416,-14.96967048852842,84.89722008725934,-17.963604586234105,101.8766641047112"></path><path d="M-44.330179978381985,52.83065124958473C-55.412724972977486,66.03831406198093,-43.10344827586203,74.65736239521028,-51.724137931034434,89.58883487425233"></path><path d="M-44.330179978381985,52.83065124958473C-55.412724972977486,66.03831406198093,-55.412724972977486,66.03831406198093,-66.49526996757298,79.2459768743771"></path><path d="M-44.330179978381985,52.83065124958473C-55.412724972977486,66.03831406198093,-66.03831406198081,55.41272497297761,-79.24597687437698,66.49526996757312"></path><path d="M-67.91777606980745,11.975736390822838C-84.89722008725933,14.96967048852855,-81.00798455050935,29.484495114281845,-97.2095814606112,35.38139413713821"></path><path d="M-67.91777606980745,11.975736390822838C-84.89722008725933,14.96967048852855,-84.89722008725933,14.96967048852855,-101.87666410471118,17.963604586234258"></path><path d="M-67.91777606980745,11.975736390822838C-84.89722008725933,14.96967048852855,-86.20689655172416,1.0557299992649599e-14,-103.44827586206898,1.2668759991179518e-14"></path><path d="M-59.725889916168214,-34.482758620689616C-74.65736239521028,-43.10344827586203,-81.00798455050938,-29.48449511428175,-97.20958146061125,-35.381394137138095"></path><path d="M-59.725889916168214,-34.482758620689616C-74.65736239521028,-43.10344827586203,-74.65736239521028,-43.10344827586203,-89.58883487425233,-51.72413793103443"></path><path d="M-59.725889916168214,-34.482758620689616C-74.65736239521028,-43.10344827586203,-66.03831406198094,-55.41272497297748,-79.24597687437712,-66.49526996757297"></path><path d="M-23.587596091425535,-64.80638764040745C-29.48449511428192,-81.00798455050932,-43.103448275862114,-74.65736239521023,-51.724137931034534,-89.58883487425227"></path><path d="M-23.587596091425535,-64.80638764040745C-29.48449511428192,-81.00798455050932,-29.48449511428192,-81.00798455050932,-35.3813941371383,-97.20958146061118"></path><path d="M-23.587596091425535,-64.80638764040745C-29.48449511428192,-81.00798455050932,-14.969670488528553,-84.89722008725933,-17.963604586234265,-101.87666410471118"></path></g><g transform="translate(150,150)" fill="none" stroke="#555" stroke-opacity="0.4" stroke-width="1.5"><path d="M0,0C1.6369151028577463e-14,17.24137931034483,14.931472479042046,-8.620689655172415,29.862944958084093,-17.24137931034483"></path><path d="M0,0C1.6369151028577463e-14,17.24137931034483,1.0557299992649598e-15,17.24137931034483,2.1114599985299196e-15,34.48275862068966"></path><path d="M0,0C1.6369151028577463e-14,17.24137931034483,-14.931472479042053,-8.620689655172404,-29.862944958084107,-17.241379310344808"></path><path d="M29.862944958084093,-17.24137931034483C44.79441743712614,-25.862068965517246,17.690697068569058,-48.60479073030562,23.587596091425407,-64.8063876404075"></path><path d="M29.862944958084093,-17.24137931034483C44.79441743712614,-25.862068965517246,44.794417437126135,-25.862068965517256,59.72588991616818,-34.48275862068967"></path><path d="M29.862944958084093,-17.24137931034483C44.79441743712614,-25.862068965517246,50.9383320523556,8.981802293117077,67.91777606980746,11.97573639082277"></path><path d="M2.1114599985299196e-15,34.48275862068966C3.1671899977948795e-15,51.72413793103449,33.24763498378655,39.62298843718851,44.33017997838206,52.83065124958467"></path><path d="M2.1114599985299196e-15,34.48275862068966C3.1671899977948795e-15,51.72413793103449,4.9107453085732396e-14,51.72413793103449,6.547660411430985e-14,68.96551724137932"></path><path d="M2.1114599985299196e-15,34.48275862068966C3.1671899977948795e-15,51.72413793103449,-33.24763498378649,39.62298843718855,-44.330179978381985,52.83065124958473"></path><path d="M-29.862944958084107,-17.241379310344808C-44.794417437126164,-25.862068965517214,-50.93833205235559,8.981802293117129,-67.91777606980745,11.975736390822838"></path><path d="M-29.862944958084107,-17.241379310344808C-44.794417437126164,-25.862068965517214,-44.794417437126164,-25.862068965517214,-59.725889916168214,-34.482758620689616"></path><path d="M-29.862944958084107,-17.241379310344808C-44.794417437126164,-25.862068965517214,-17.69069706856915,-48.60479073030559,-23.587596091425535,-64.80638764040745"></path><path d="M23.587596091425407,-64.8063876404075C29.484495114281764,-81.00798455050938,14.96967048852847,-84.89722008725934,17.963604586234165,-101.8766641047112"></path><path d="M23.587596091425407,-64.8063876404075C29.484495114281764,-81.00798455050938,29.484495114281764,-81.00798455050938,35.381394137138116,-97.20958146061125"></path><path d="M23.587596091425407,-64.8063876404075C29.484495114281764,-81.00798455050938,43.10344827586207,-74.65736239521026,51.72413793103448,-89.5888348742523"></path><path d="M59.72588991616818,-34.48275862068967C74.65736239521023,-43.1034482758621,66.03831406198087,-55.412724972977564,79.24597687437704,-66.49526996757307"></path><path d="M59.72588991616818,-34.48275862068967C74.65736239521023,-43.1034482758621,74.65736239521023,-43.1034482758621,89.58883487425227,-51.72413793103451"></path><path d="M59.72588991616818,-34.48275862068967C74.65736239521023,-43.1034482758621,81.00798455050935,-29.48449511428183,97.2095814606112,-35.381394137138194"></path><path d="M67.91777606980746,11.97573639082277C84.89722008725934,14.969670488528463,86.20689655172416,-3.828355257328127e-14,103.44827586206898,-4.594026308793752e-14"></path><path d="M67.91777606980746,11.97573639082277C84.89722008725934,14.969670488528463,84.89722008725934,14.969670488528463,101.8766641047112,17.963604586234155"></path><path d="M67.91777606980746,11.97573639082277C84.89722008725934,14.969670488528463,81.00798455050938,29.48449511428176,97.20958146061125,35.38139413713811"></path><path d="M44.33017997838206,52.83065124958467C55.41272497297758,66.03831406198086,66.03831406198093,55.412724972977486,79.2459768743771,66.49526996757298"></path><path d="M44.33017997838206,52.83065124958467C55.41272497297758,66.03831406198086,55.41272497297758,66.03831406198086,66.4952699675731,79.24597687437702"></path><path d="M44.33017997838206,52.83065124958467C55.41272497297758,66.03831406198086,43.103448275862135,74.65736239521021,51.72413793103456,89.58883487425224"></path><path d="M6.547660411430985e-14,68.96551724137932C8.184575514288732e-14,86.20689655172416,14.969670488528545,84.89722008725933,17.963604586234254,101.87666410471118"></path><path d="M6.547660411430985e-14,68.96551724137932C8.184575514288732e-14,86.20689655172416,8.184575514288732e-14,86.20689655172416,9.821490617146479e-14,103.44827586206898"></path><path d="M6.547660411430985e-14,68.96551724137932C8.184575514288732e-14,86.20689655172416,-14.96967048852842,84.89722008725934,-17.963604586234105,101.8766641047112"></path><path d="M-44.330179978381985,52.83065124958473C-55.412724972977486,66.03831406198093,-43.10344827586203,74.65736239521028,-51.724137931034434,89.58883487425233"></path><path d="M-44.330179978381985,52.83065124958473C-55.412724972977486,66.03831406198093,-55.412724972977486,66.03831406198093,-66.49526996757298,79.2459768743771"></path><path d="M-44.330179978381985,52.83065124958473C-55.412724972977486,66.03831406198093,-66.03831406198081,55.41272497297761,-79.24597687437698,66.49526996757312"></path><path d="M-67.91777606980745,11.975736390822838C-84.89722008725933,14.96967048852855,-81.00798455050935,29.484495114281845,-97.2095814606112,35.38139413713821"></path><path d="M-67.91777606980745,11.975736390822838C-84.89722008725933,14.96967048852855,-84.89722008725933,14.96967048852855,-101.87666410471118,17.963604586234258"></path><path d="M-67.91777606980745,11.975736390822838C-84.89722008725933,14.96967048852855,-86.20689655172416,1.0557299992649599e-14,-103.44827586206898,1.2668759991179518e-14"></path><path d="M-59.725889916168214,-34.482758620689616C-74.65736239521028,-43.10344827586203,-81.00798455050938,-29.48449511428175,-97.20958146061125,-35.381394137138095"></path><path d="M-59.725889916168214,-34.482758620689616C-74.65736239521028,-43.10344827586203,-74.65736239521028,-43.10344827586203,-89.58883487425233,-51.72413793103443"></path><path d="M-59.725889916168214,-34.482758620689616C-74.65736239521028,-43.10344827586203,-66.03831406198094,-55.41272497297748,-79.24597687437712,-66.49526996757297"></path><path d="M-23.587596091425535,-64.80638764040745C-29.48449511428192,-81.00798455050932,-43.103448275862114,-74.65736239521023,-51.724137931034534,-89.58883487425227"></path><path d="M-23.587596091425535,-64.80638764040745C-29.48449511428192,-81.00798455050932,-29.48449511428192,-81.00798455050932,-35.3813941371383,-97.20958146061118"></path><path d="M-23.587596091425535,-64.80638764040745C-29.48449511428192,-81.00798455050932,-14.969670488528553,-84.89722008725933,-17.963604586234265,-101.87666410471118"></path></g><g transform="translate(150,150)"><circle class="testing" style="display: block;" transform="rotate(89.99999999999994) translate(0,0)" fill="red" r="5"></circle><circle class="testing" style="display: block;" transform="rotate(-30.000000000000007) translate(34.48275862068966,0)" fill="red" r="5"></circle><circle class="testing" style="display: block;" transform="rotate(90) translate(34.48275862068966,0)" fill="red" r="5"></circle><circle class="testing" style="display: block;" transform="rotate(209.99999999999994) translate(34.48275862068966,0)" fill="red" r="5"></circle><circle class="testing" style="display: block;" transform="rotate(-70.00000000000003) translate(68.96551724137932,0)" fill="red" r="5"></circle><circle class="testing" style="display: block;" transform="rotate(-30.000000000000014) translate(68.96551724137932,0)" fill="red" r="5"></circle><circle class="testing" style="display: block;" transform="rotate(9.999999999999986) translate(68.96551724137932,0)" fill="red" r="5"></circle><circle class="testing" style="display: block;" transform="rotate(49.99999999999997) translate(68.96551724137932,0)" fill="red" r="5"></circle><circle class="testing" style="display: block;" transform="rotate(89.99999999999994) translate(68.96551724137932,0)" fill="red" r="5"></circle><circle class="testing" style="display: block;" transform="rotate(129.99999999999994) translate(68.96551724137932,0)" fill="red" r="5"></circle><circle class="testing" style="display: block;" transform="rotate(169.99999999999994) translate(68.96551724137932,0)" fill="red" r="5"></circle><circle class="testing" style="display: block;" transform="rotate(209.99999999999994) translate(68.96551724137932,0)" fill="red" r="5"></circle><circle class="testing" style="display: block;" transform="rotate(249.99999999999994) translate(68.96551724137932,0)" fill="red" r="5"></circle><circle class="testing" style="display: block;" transform="rotate(-80.00000000000001) translate(103.44827586206898,0)" fill="red" r="5"></circle><circle class="testing" style="display: block;" transform="rotate(-70.00000000000003) translate(103.44827586206898,0)" fill="red" r="5"></circle><circle class="testing" style="display: block;" transform="rotate(-60) translate(103.44827586206898,0)" fill="red" r="5"></circle><circle class="testing" style="display: block;" transform="rotate(-40.000000000000014) translate(103.44827586206898,0)" fill="red" r="5"></circle><circle class="testing" style="display: block;" transform="rotate(-30.000000000000014) translate(103.44827586206898,0)" fill="red" r="5"></circle><circle class="testing" style="display: block;" transform="rotate(-20.00000000000003) translate(103.44827586206898,0)" fill="red" r="5"></circle><circle class="testing" style="display: block;" transform="rotate(-2.842170943040401e-14) translate(103.44827586206898,0)" fill="red" r="5"></circle><circle class="testing" style="display: block;" transform="rotate(9.999999999999986) translate(103.44827586206898,0)" fill="red" r="5"></circle><circle class="testing" style="display: block;" transform="rotate(19.99999999999997) translate(103.44827586206898,0)" fill="red" r="5"></circle><circle class="testing" style="display: block;" transform="rotate(39.99999999999994) translate(103.44827586206898,0)" fill="red" r="5"></circle><circle class="testing" style="display: block;" transform="rotate(49.99999999999997) translate(103.44827586206898,0)" fill="red" r="5"></circle><circle class="testing" style="display: block;" transform="rotate(59.99999999999997) translate(103.44827586206898,0)" fill="red" r="5"></circle><circle class="testing" style="display: block;" transform="rotate(79.99999999999997) translate(103.44827586206898,0)" fill="red" r="5"></circle><circle class="testing" style="display: block;" transform="rotate(89.99999999999994) translate(103.44827586206898,0)" fill="red" r="5"></circle><circle class="testing" style="display: block;" transform="rotate(99.99999999999997) translate(103.44827586206898,0)" fill="red" r="5"></circle><circle class="testing" style="display: block;" transform="rotate(119.99999999999997) translate(103.44827586206898,0)" fill="red" r="5"></circle><circle class="testing" style="display: block;" transform="rotate(129.99999999999994) translate(103.44827586206898,0)" fill="red" r="5"></circle><circle class="testing" style="display: block;" transform="rotate(139.99999999999994) translate(103.44827586206898,0)" fill="red" r="5"></circle><circle class="testing" style="display: block;" transform="rotate(159.99999999999997) translate(103.44827586206898,0)" fill="red" r="5"></circle><circle class="testing" style="display: block;" transform="rotate(169.99999999999994) translate(103.44827586206898,0)" fill="red" r="5"></circle><circle class="testing" style="display: block;" transform="rotate(180) translate(103.44827586206898,0)" fill="red" r="5"></circle><circle class="testing" style="display: block;" transform="rotate(200) translate(103.44827586206898,0)" fill="red" r="5"></circle><circle class="testing" style="display: block;" transform="rotate(209.99999999999994) translate(103.44827586206898,0)" fill="red" r="5"></circle><circle class="testing" style="display: block;" transform="rotate(219.99999999999994) translate(103.44827586206898,0)" fill="red" r="5"></circle><circle class="testing" style="display: block;" transform="rotate(239.99999999999994) translate(103.44827586206898,0)" fill="red" r="5"></circle><circle class="testing" style="display: block;" transform="rotate(249.99999999999994) translate(103.44827586206898,0)" fill="red" r="5"></circle><circle class="testing" style="display: block;" transform="rotate(259.99999999999994) translate(103.44827586206898,0)" fill="red" r="5"></circle></g></svg>